{"glyphs":{"0":{"ha":943,"x_min":69,"x_max":874,"o":"m 471 33 q 596 63 553 33 q 658 172 639 92 q 676 408 676 251 l 676 454 l 274 249 q 304 115 282 161 q 365 51 326 68 q 471 33 404 33 m 471 -164 q 246 -109 333 -164 q 114 72 158 -54 q 69 408 69 197 q 114 747 69 621 q 246 928 158 874 q 471 983 333 983 q 697 928 608 983 q 829 747 785 874 q 874 408 874 621 q 829 72 874 197 q 697 -109 785 -54 q 471 -164 608 -164 m 665 613 q 631 719 654 682 q 569 772 607 757 q 471 786 532 786 q 347 756 390 786 q 285 647 304 726 q 267 410 267 567 l 665 613 z "},"1":{"ha":622,"x_min":69,"x_max":553,"o":"m 356 722 l 69 650 l 69 846 l 553 969 l 553 -150 l 356 -150 l 356 722 z "},"2":{"ha":938,"x_min":69,"x_max":868,"o":"m 74 47 q 81 166 74 110 q 128 301 88 222 q 254 443 168 379 q 342 488 296 474 q 464 518 389 503 q 569 544 532 532 q 631 585 607 557 q 656 665 656 614 q 611 753 656 722 q 464 783 567 783 q 315 737 364 783 q 267 611 267 690 l 69 611 q 115 797 69 713 q 249 931 160 881 q 464 981 339 981 q 677 940 590 981 q 808 827 764 899 q 851 665 851 756 q 803 480 851 544 q 690 390 756 415 q 521 347 624 365 q 385 311 424 332 q 301 228 326 278 q 273 143 276 179 q 269 47 269 107 l 868 47 l 868 -150 l 74 -150 l 74 47 z "},"3":{"ha":967,"x_min":69,"x_max":897,"o":"m 267 208 q 317 74 267 113 q 475 35 368 35 q 638 87 583 35 q 699 222 692 139 q 700 260 700 235 q 482 465 700 465 q 182 388 338 465 l 81 529 l 406 772 l 93 772 l 93 969 l 843 969 l 493 663 l 510 663 q 797 546 696 654 q 897 257 897 438 q 851 51 897 147 q 709 -103 804 -44 q 475 -162 614 -162 q 273 -125 364 -162 q 126 -5 182 -87 q 69 208 69 78 l 267 208 z "},"4":{"ha":936,"x_min":69,"x_max":867,"o":"m 347 315 l 669 315 l 669 772 l 867 772 l 867 -136 l 669 -136 l 669 118 l 69 118 l 374 971 l 582 971 l 347 315 z "},"5":{"ha":918,"x_min":69,"x_max":849,"o":"m 822 771 l 304 771 l 304 646 q 454 664 382 664 q 760 544 672 664 q 849 222 849 424 q 802 33 849 121 q 665 -109 756 -56 q 453 -162 575 -162 q 178 -73 288 -162 q 69 208 69 17 l 267 208 q 312 74 267 113 q 453 35 357 35 q 601 88 551 35 q 651 222 651 142 q 635 367 651 315 q 574 443 618 419 q 447 467 531 467 q 235 415 344 467 l 108 472 l 108 968 l 822 968 l 822 771 z "},"6":{"ha":922,"x_min":69,"x_max":853,"o":"m 768 738 q 551 788 660 788 q 351 722 431 788 q 267 535 271 657 q 390 627 319 600 q 517 654 460 654 q 774 532 694 654 q 853 218 853 410 q 806 31 853 118 q 669 -108 760 -56 q 454 -161 579 -161 q 264 -112 351 -161 q 123 39 176 -62 q 69 289 69 140 l 69 471 q 135 758 69 643 q 311 928 201 874 q 554 983 421 983 q 768 949 657 983 l 768 738 m 454 36 q 604 88 553 36 q 656 218 656 139 q 618 399 656 340 q 490 457 581 457 q 378 444 425 457 q 299 391 331 432 q 267 268 267 350 q 308 94 267 153 q 454 36 350 36 z "},"7":{"ha":925,"x_min":69,"x_max":856,"o":"m 325 -150 q 358 172 325 17 q 438 454 390 326 q 565 772 485 582 l 69 772 l 69 969 l 856 969 q 739 678 819 871 q 622 381 664 497 q 551 130 579 265 q 522 -150 522 -6 l 325 -150 z "},"8":{"ha":957,"x_min":69,"x_max":888,"o":"m 478 575 q 599 603 564 575 q 635 686 635 631 q 599 772 635 744 q 478 800 564 800 q 358 772 393 800 q 322 686 322 744 q 358 603 322 631 q 478 575 393 575 m 478 400 q 318 355 369 400 q 267 210 267 310 q 318 65 267 110 q 478 19 369 19 q 639 65 588 19 q 690 210 690 110 q 639 355 690 310 q 478 400 588 400 m 69 182 q 100 330 69 264 q 174 438 131 396 q 258 497 217 479 q 169 568 213 517 q 125 700 125 619 q 226 915 125 846 q 478 983 326 983 q 731 915 631 983 q 832 700 832 846 q 788 568 832 619 q 699 497 744 517 q 783 438 740 479 q 857 330 826 396 q 888 182 888 264 q 771 -79 888 6 q 478 -164 654 -164 q 274 -128 365 -164 q 126 -15 182 -93 q 69 182 69 63 z "},"9":{"ha":922,"x_min":69,"x_max":853,"o":"m 154 85 q 371 35 263 35 q 572 100 492 35 q 656 288 651 165 q 533 195 603 222 q 406 168 463 168 q 149 290 228 168 q 69 604 69 413 q 116 791 69 704 q 253 931 163 878 q 468 983 343 983 q 658 934 571 983 q 799 783 746 885 q 853 533 853 682 l 853 351 q 787 64 853 179 q 611 -106 721 -51 q 368 -161 501 -161 q 154 -126 265 -161 l 154 85 m 468 786 q 318 735 369 786 q 267 604 267 683 q 304 424 267 482 q 432 365 342 365 q 544 378 497 365 q 624 431 592 390 q 656 554 656 472 q 614 728 656 669 q 468 786 572 786 z "}," ":{"ha":276,"x_min":0,"x_max":0,"o":""}," ":{"ha":276,"x_min":0,"x_max":0,"o":""},"A":{"ha":1039,"x_min":14,"x_max":1025,"o":"m 14 -185 l 361 1004 l 678 1004 l 1025 -185 l 825 -185 l 754 47 l 285 47 l 214 -185 l 14 -185 m 688 271 l 519 825 l 351 271 l 688 271 z "},"B":{"ha":985,"x_min":56,"x_max":929,"o":"m 56 1004 l 525 1004 q 694 960 617 1004 q 818 840 772 915 q 864 675 864 764 q 845 566 864 618 q 793 472 826 514 q 893 347 857 421 q 929 189 929 272 q 878 -1 929 85 q 738 -135 826 -86 q 546 -185 650 -185 l 56 -185 l 56 1004 m 546 32 q 660 77 613 32 q 707 189 707 122 q 660 299 707 253 q 546 344 613 344 l 269 344 l 269 32 l 546 32 m 525 561 q 608 594 574 561 q 642 675 642 628 q 608 755 642 722 q 525 788 574 788 l 269 788 l 269 561 l 525 561 z "},"C":{"ha":1013,"x_min":56,"x_max":971,"o":"m 963 -111 q 581 -197 753 -197 q 299 -125 418 -197 q 118 80 181 -53 q 56 389 56 213 q 101 670 56 542 q 244 883 146 799 q 410 979 313 943 q 604 1015 507 1015 q 840 938 740 1015 q 971 697 940 861 l 751 658 q 696 767 738 733 q 594 801 654 801 q 488 778 543 801 q 392 719 433 756 q 278 389 278 619 q 356 115 278 211 q 582 19 433 19 q 876 90 706 19 l 963 -111 z "},"D":{"ha":997,"x_min":56,"x_max":942,"o":"m 269 32 q 569 65 475 32 q 691 174 663 99 q 719 410 719 250 q 691 645 719 569 q 569 754 663 721 q 269 788 475 788 l 269 32 m 56 -185 l 56 1004 l 269 1004 q 708 929 561 1004 q 898 730 854 854 q 942 410 942 606 q 898 90 942 214 q 708 -110 854 -35 q 269 -185 561 -185 l 56 -185 z "},"E":{"ha":904,"x_min":56,"x_max":849,"o":"m 56 1004 l 849 1004 l 849 794 l 269 794 l 269 514 l 810 514 l 810 306 l 269 306 l 269 25 l 849 25 l 849 -185 l 56 -185 l 56 1004 z "},"F":{"ha":904,"x_min":56,"x_max":849,"o":"m 56 -175 l 56 1014 l 849 1014 l 849 806 l 269 806 l 269 476 l 810 476 l 810 269 l 269 269 l 269 -175 l 56 -175 z "},"G":{"ha":1010,"x_min":28,"x_max":954,"o":"m 471 476 l 954 476 l 954 -81 q 517 -197 708 -197 q 253 -126 363 -197 q 85 78 143 -54 q 28 389 28 210 q 72 670 28 543 q 211 882 115 797 q 374 976 275 939 q 574 1014 474 1014 q 802 938 706 1014 q 928 696 899 863 l 708 660 q 655 768 696 733 q 557 803 614 803 q 454 780 507 803 q 361 721 401 757 q 250 389 250 622 q 317 114 250 208 q 521 19 385 19 q 732 63 613 19 l 732 260 l 471 260 l 471 476 z "},"H":{"ha":985,"x_min":56,"x_max":929,"o":"m 56 -185 l 56 1004 l 269 1004 l 269 736 l 715 736 l 715 1004 l 929 1004 l 929 -185 l 715 -185 l 715 526 l 269 526 l 269 -185 l 56 -185 z "},"I":{"ha":325,"x_min":56,"x_max":269,"o":"m 56 -185 l 56 1004 l 269 1004 l 269 -185 l 56 -185 z "},"J":{"ha":785,"x_min":56,"x_max":729,"o":"m 729 271 q 660 15 729 121 q 476 -143 590 -90 q 232 -196 363 -196 q 56 -171 142 -196 l 56 65 q 238 21 138 21 q 374 48 311 21 q 476 131 438 75 q 515 271 515 188 l 515 797 l 114 797 l 114 1007 l 729 1007 l 729 271 z "},"K":{"ha":1057,"x_min":56,"x_max":1043,"o":"m 56 -185 l 56 1004 l 269 1004 l 269 447 l 682 1004 l 936 1004 l 531 457 l 1043 -185 l 775 -185 l 342 342 l 269 342 l 269 -185 l 56 -185 z "},"L":{"ha":825,"x_min":56,"x_max":769,"o":"m 56 1004 l 269 1004 l 269 25 l 769 25 l 769 -185 l 56 -185 l 56 1004 z "},"M":{"ha":1285,"x_min":56,"x_max":1229,"o":"m 535 25 l 268 569 l 268 -185 l 56 -185 l 56 1004 l 268 1004 l 642 243 l 1015 1004 l 1229 1004 l 1229 -185 l 1015 -185 l 1015 568 l 749 25 l 535 25 z "},"N":{"ha":1019,"x_min":56,"x_max":964,"o":"m 750 -185 l 269 638 l 269 -185 l 56 -185 l 56 1004 l 269 1004 l 750 182 l 750 1004 l 964 1004 l 964 -185 l 750 -185 z "},"O":{"ha":950,"x_min":28,"x_max":922,"o":"m 475 -3 q 613 29 567 -3 q 680 148 660 61 q 700 408 700 235 q 680 671 700 583 q 613 790 660 758 q 475 822 567 822 q 337 790 383 822 q 270 671 290 758 q 250 408 250 583 q 270 148 250 235 q 337 29 290 61 q 475 -3 383 -3 m 475 -200 q 224 -142 322 -200 q 77 51 126 -83 q 28 408 28 185 q 77 767 28 633 q 224 960 126 901 q 475 1019 322 1019 q 726 961 628 1019 q 873 768 824 903 q 922 408 922 633 q 873 51 922 185 q 726 -142 824 -83 q 475 -200 628 -200 z "},"P":{"ha":997,"x_min":56,"x_max":942,"o":"m 558 1004 q 751 954 663 1004 q 890 817 839 904 q 942 628 942 731 q 890 440 942 526 q 751 303 839 354 q 558 253 663 253 l 268 253 l 268 -185 l 56 -185 l 56 1004 l 558 1004 m 558 471 q 672 517 625 471 q 719 628 719 563 q 672 740 719 694 q 558 786 625 786 l 268 786 l 268 471 l 558 471 z "},"Q":{"ha":935,"x_min":28,"x_max":907,"o":"m 467 88 q 602 115 557 88 q 666 217 647 143 q 685 443 685 292 q 666 672 685 596 q 602 775 647 747 q 467 803 557 803 q 333 775 378 803 q 269 672 288 747 q 250 443 250 596 q 269 217 250 292 q 333 115 288 143 q 467 88 378 88 m 28 443 q 76 783 28 657 q 221 965 125 910 q 467 1021 317 1021 q 713 965 617 1021 q 858 783 810 910 q 907 443 907 657 q 831 48 907 181 q 599 -118 756 -85 l 614 -224 l 400 -224 l 386 -126 q 115 27 203 -106 q 28 443 28 160 z "},"R":{"ha":997,"x_min":56,"x_max":942,"o":"m 558 1004 q 751 955 664 1004 q 890 821 839 906 q 942 633 942 736 q 886 439 942 528 q 738 301 831 350 l 915 -185 l 701 -185 l 540 258 l 269 258 l 269 -185 l 56 -185 l 56 1004 l 558 1004 m 558 476 q 673 522 626 476 q 719 633 719 568 q 673 746 719 700 q 558 792 626 792 l 269 792 l 269 476 l 558 476 z "},"S":{"ha":1014,"x_min":56,"x_max":958,"o":"m 56 165 q 219 79 156 110 q 356 31 283 49 q 517 14 428 14 q 632 34 582 14 q 709 88 682 54 q 736 164 736 122 q 698 251 736 218 q 606 301 660 283 q 471 335 553 318 l 440 342 q 269 404 354 360 q 128 522 185 449 q 71 688 71 594 q 121 862 71 788 q 265 977 171 936 q 489 1018 360 1018 q 679 999 585 1018 q 883 932 774 981 l 883 688 q 674 777 761 754 q 486 800 586 800 q 293 688 293 800 q 356 607 293 646 q 485 554 419 568 q 717 489 619 526 q 887 373 815 451 q 958 164 958 294 q 899 -25 958 60 q 740 -157 840 -110 q 517 -204 639 -204 q 276 -174 383 -204 q 56 -85 168 -143 l 56 165 z "},"T":{"ha":944,"x_min":56,"x_max":889,"o":"m 367 -185 l 367 794 l 56 794 l 56 1004 l 889 1004 l 889 794 l 579 794 l 579 -185 l 367 -185 z "},"U":{"ha":974,"x_min":56,"x_max":918,"o":"m 918 1004 l 918 394 q 871 41 918 171 q 729 -144 824 -89 q 486 -200 635 -200 q 244 -144 338 -200 q 103 41 150 -89 q 56 394 56 171 l 56 1004 l 278 1004 l 278 394 q 294 153 278 232 q 354 47 311 75 q 486 18 397 18 q 619 47 575 18 q 679 153 663 75 q 696 394 696 232 l 696 1004 l 918 1004 z "},"V":{"ha":989,"x_min":14,"x_max":975,"o":"m 414 -185 l 14 1004 l 228 1004 l 494 186 l 761 1004 l 975 1004 l 575 -185 l 414 -185 z "},"W":{"ha":1389,"x_min":14,"x_max":1375,"o":"m 268 -185 l 14 1004 l 228 1004 l 401 278 l 615 925 l 775 925 l 989 278 l 1161 1004 l 1375 1004 l 1122 -185 l 961 -185 l 694 572 l 428 -185 l 268 -185 z "},"X":{"ha":961,"x_min":14,"x_max":947,"o":"m 14 -185 l 332 451 l 14 1004 l 240 1004 l 481 613 l 719 1004 l 947 1004 l 628 451 l 947 -185 l 719 -185 l 481 290 l 240 -185 l 14 -185 z "},"Y":{"ha":961,"x_min":14,"x_max":947,"o":"m 374 -187 l 374 231 l 14 1001 l 256 1001 l 481 499 l 719 1001 l 947 1001 l 588 231 l 588 -187 l 374 -187 z "},"Z":{"ha":954,"x_min":56,"x_max":899,"o":"m 96 1004 l 871 1004 l 871 860 l 336 25 l 899 25 l 899 -185 l 56 -185 l 56 -40 l 592 794 l 96 794 l 96 1004 z "},"a":{"ha":796,"x_min":56,"x_max":740,"o":"m 526 -193 l 526 -129 q 414 -182 474 -164 q 297 -200 354 -200 q 146 -160 210 -200 q 63 -46 82 -121 q 56 7 56 -15 q 87 111 56 64 q 174 185 118 158 q 304 213 231 213 q 526 156 411 213 l 526 179 q 493 278 526 247 q 406 310 460 310 q 319 292 364 310 q 246 246 275 274 l 129 367 q 271 460 200 435 q 429 485 342 485 q 667 399 594 485 q 740 179 740 313 l 740 -193 l 526 -193 m 246 -12 q 318 -39 253 -39 q 424 -24 365 -39 q 526 14 483 -8 l 526 15 q 339 53 422 53 q 269 40 294 53 q 243 4 243 28 q 246 -12 243 -7 z "},"b":{"ha":860,"x_min":56,"x_max":804,"o":"m 56 -185 l 56 1004 l 269 1004 l 269 408 q 342 463 297 444 q 431 483 388 482 q 469 485 444 485 q 729 381 654 485 q 804 139 804 278 q 757 -53 804 25 q 626 -170 710 -132 q 432 -203 542 -208 q 348 -183 392 -200 q 269 -135 304 -167 l 269 -185 l 56 -185 m 269 104 q 327 19 269 43 q 440 -6 385 -6 q 550 30 510 -6 q 590 140 590 65 q 552 253 590 215 q 419 286 514 290 q 315 249 360 283 q 269 165 269 215 l 269 104 z "},"c":{"ha":821,"x_min":56,"x_max":765,"o":"m 746 -169 q 461 -221 596 -221 q 251 -181 343 -221 q 107 -65 158 -142 q 56 115 56 11 q 111 312 56 229 q 255 438 167 394 q 440 481 343 481 q 651 416 560 481 q 765 229 742 351 l 560 188 q 517 249 553 226 q 435 272 481 272 q 324 232 371 272 q 278 115 278 192 q 325 13 278 49 q 457 -22 372 -22 q 674 21 550 -22 l 746 -169 z "},"d":{"ha":860,"x_min":56,"x_max":804,"o":"m 590 -135 q 512 -183 556 -167 q 428 -201 468 -200 q 234 -169 318 -207 q 103 -53 150 -132 q 56 139 56 25 q 139 392 56 286 q 429 485 222 497 q 518 463 472 482 q 590 408 564 444 l 590 1004 l 804 1004 l 804 -185 l 590 -185 l 590 -135 m 590 165 q 540 253 590 218 q 424 288 490 288 q 304 249 339 288 q 269 140 269 211 q 310 31 269 65 q 419 -4 350 -4 q 533 19 475 -4 q 590 104 590 43 l 590 165 z "},"e":{"ha":804,"x_min":56,"x_max":749,"o":"m 56 113 q 92 278 56 203 q 204 404 128 353 q 319 454 254 436 q 449 472 383 472 q 644 417 563 472 q 743 247 726 361 q 749 181 749 197 q 721 61 749 125 l 264 61 q 325 -7 281 17 q 443 -31 369 -31 q 656 6 533 -31 l 714 -183 q 450 -225 576 -225 q 162 -135 268 -225 q 56 113 56 -46 m 558 192 l 557 221 q 525 265 553 250 q 456 279 497 279 q 381 269 419 279 q 317 240 343 258 q 272 192 288 224 l 558 192 z "},"f":{"ha":579,"x_min":56,"x_max":649,"o":"m 56 -185 l 56 588 q 75 782 56 704 q 149 921 94 860 q 248 994 190 968 q 368 1019 306 1019 q 545 953 467 1019 q 649 758 624 888 l 429 718 q 367 803 414 803 q 338 795 351 803 q 315 779 324 788 q 285 710 293 753 q 278 588 278 668 l 278 476 l 531 476 l 531 258 l 278 258 l 278 -185 l 56 -185 z "},"g":{"ha":860,"x_min":56,"x_max":804,"o":"m 804 451 l 804 -54 q 751 -305 804 -204 q 603 -456 697 -406 q 389 -506 510 -506 q 238 -487 311 -506 l 238 -297 q 375 -322 311 -322 q 508 -281 454 -322 q 582 -153 563 -239 q 512 -198 554 -182 q 429 -217 469 -214 q 390 -218 415 -218 q 131 -115 206 -218 q 56 128 56 -11 q 103 320 56 242 q 234 437 150 399 q 428 469 318 475 q 513 450 469 467 q 590 401 556 433 l 590 451 l 804 451 m 590 161 q 533 248 590 224 q 419 272 475 272 q 301 236 347 272 q 256 126 256 200 q 424 -19 256 -19 q 540 14 490 -19 q 590 100 590 47 l 590 161 z "},"h":{"ha":860,"x_min":56,"x_max":804,"o":"m 590 6 q 581 156 590 101 q 542 241 572 211 q 447 265 511 271 q 367 237 408 263 q 297 174 325 211 q 269 103 269 138 l 269 -185 l 56 -185 l 56 1004 l 269 1004 l 269 374 q 351 446 296 421 q 457 475 407 471 q 492 476 469 476 q 740 341 675 476 q 804 6 804 206 l 804 -185 l 590 -185 l 590 6 z "},"i":{"ha":399,"x_min":56,"x_max":343,"o":"m 93 -185 l 93 476 l 307 476 l 307 -185 l 93 -185 m 200 808 q 97 849 139 808 q 56 950 56 890 q 98 1048 56 1007 q 200 1089 140 1089 q 301 1048 260 1089 q 343 950 343 1007 q 301 849 343 890 q 200 808 260 808 z "},"j":{"ha":603,"x_min":-56,"x_max":547,"o":"m 404 799 q 303 840 344 799 q 261 940 261 881 q 303 1038 261 997 q 404 1079 344 1079 q 506 1038 464 1079 q 547 940 547 997 q 506 840 547 881 q 404 799 464 799 m 511 -10 q 455 -269 511 -161 q 301 -431 399 -376 q 81 -486 203 -486 q -56 -469 15 -486 l -56 -250 q 85 -276 24 -276 q 240 -211 183 -276 q 297 -10 297 -146 l 297 467 l 511 467 l 511 -10 z "},"k":{"ha":897,"x_min":56,"x_max":869,"o":"m 56 -185 l 56 1004 l 269 1004 l 269 196 l 510 475 l 763 475 l 513 183 l 869 -185 l 615 -185 l 333 106 l 269 106 l 269 -185 l 56 -185 z "},"l":{"ha":531,"x_min":56,"x_max":517,"o":"m 517 -182 q 397 -194 449 -194 q 226 -162 304 -194 q 104 -56 149 -129 q 56 189 56 24 l 56 1004 l 269 1004 l 269 194 q 274 109 269 150 q 288 53 279 68 q 397 15 310 15 q 517 33 460 15 l 517 -182 z "},"m":{"ha":1394,"x_min":56,"x_max":1339,"o":"m 590 -1 q 581 149 590 94 q 541 234 572 204 q 446 258 510 264 q 366 230 407 256 q 297 167 325 204 q 269 96 269 131 l 269 -190 l 56 -190 l 56 469 l 269 469 l 269 367 q 351 439 296 414 q 457 468 407 464 q 494 469 469 469 q 740 331 661 469 q 817 401 768 371 q 914 449 865 432 q 992 468 963 465 q 1026 469 1004 469 q 1274 334 1210 469 q 1339 -1 1339 199 l 1339 -190 l 1125 -190 l 1125 -1 q 1116 149 1125 94 q 1076 234 1107 204 q 982 258 1046 264 q 901 230 943 256 q 832 167 860 204 q 804 96 804 131 l 804 -190 l 590 -190 l 590 -1 z "},"n":{"ha":860,"x_min":56,"x_max":804,"o":"m 590 -1 q 581 149 590 94 q 542 234 572 204 q 447 258 511 264 q 367 230 408 256 q 297 167 325 204 q 269 96 269 131 l 269 -190 l 56 -190 l 56 476 l 269 476 l 269 367 q 351 439 296 414 q 457 468 407 464 q 493 469 469 469 q 694 399 626 469 q 783 228 763 329 q 804 -1 804 128 l 804 -190 l 590 -190 l 590 -1 z "},"o":{"ha":785,"x_min":28,"x_max":757,"o":"m 392 -24 q 485 -14 457 -24 q 524 26 514 -4 q 535 128 535 57 q 524 231 535 200 q 485 271 514 261 q 392 281 457 281 q 299 271 326 281 q 260 230 271 261 q 250 128 250 199 q 260 26 250 57 q 299 -14 271 -4 q 392 -24 326 -24 m 392 -217 q 116 -138 204 -217 q 28 128 28 -60 q 116 395 28 317 q 392 474 204 474 q 669 395 581 474 q 757 128 757 317 q 668 -138 757 -60 q 392 -217 579 -217 z "},"p":{"ha":860,"x_min":56,"x_max":804,"o":"m 269 425 q 347 474 304 457 q 432 493 390 490 q 625 460 540 499 q 757 343 710 422 q 804 151 804 264 q 721 -101 804 4 q 431 -193 638 -206 q 341 -172 386 -190 q 269 -117 296 -154 l 269 -496 l 56 -496 l 56 476 l 269 476 l 269 425 m 269 124 q 319 38 269 71 q 436 4 369 4 q 556 41 521 4 q 590 150 590 78 q 550 260 590 225 q 440 296 510 296 q 326 272 383 296 q 269 185 269 247 l 269 124 z "},"q":{"ha":860,"x_min":56,"x_max":804,"o":"m 804 478 l 804 -494 l 590 -494 l 590 -115 q 519 -171 564 -153 q 429 -192 475 -189 q 390 -193 415 -193 q 131 -90 206 -193 q 56 153 56 14 q 103 344 56 265 q 235 462 150 424 q 428 494 319 500 q 513 475 469 492 q 590 426 556 458 l 590 478 l 804 478 m 590 186 q 533 273 590 249 q 419 297 476 297 q 310 262 350 297 q 269 151 269 226 q 304 42 269 79 q 424 6 339 6 q 540 39 490 6 q 590 125 590 72 l 590 186 z "},"r":{"ha":625,"x_min":56,"x_max":569,"o":"m 569 222 q 463 257 525 257 q 369 235 414 257 q 297 176 325 214 q 268 89 268 138 l 268 -190 l 56 -190 l 56 476 l 268 476 l 268 390 q 463 485 343 485 q 569 465 515 485 l 569 222 z "},"s":{"ha":721,"x_min":56,"x_max":665,"o":"m 67 82 q 213 -1 140 26 q 378 -29 285 -29 q 450 -21 429 -29 q 471 4 471 -12 q 456 26 471 18 q 400 43 440 35 q 306 60 360 51 q 120 128 185 78 q 56 271 56 179 q 123 424 56 360 q 333 489 190 489 q 379 488 363 489 q 614 421 465 483 l 614 213 q 365 296 472 285 q 308 299 343 299 q 260 292 274 299 q 246 272 246 286 q 336 226 246 242 q 365 221 356 224 q 527 185 468 203 q 626 125 586 168 q 665 4 665 82 q 581 -156 665 -99 q 354 -214 497 -214 q 67 -136 210 -214 l 67 82 z "},"t":{"ha":611,"x_min":56,"x_max":556,"o":"m 269 185 q 272 97 269 125 q 285 53 274 69 q 417 10 315 10 q 494 16 456 10 q 556 31 532 22 l 556 -186 q 418 -200 486 -200 q 239 -168 321 -200 q 107 -64 157 -136 q 68 51 81 -24 q 56 185 56 125 l 56 996 l 269 996 l 269 467 l 496 467 l 496 257 l 269 257 l 269 190 l 269 185 z "},"u":{"ha":860,"x_min":56,"x_max":804,"o":"m 269 196 q 278 92 269 129 q 315 35 286 54 q 400 21 343 17 q 484 48 439 22 q 560 111 529 74 q 590 183 590 149 l 590 469 l 804 469 l 804 -190 l 590 -190 l 590 -87 q 503 -160 564 -135 q 389 -189 442 -185 q 350 -190 375 -190 q 153 -128 218 -190 q 72 22 89 -67 q 56 239 56 110 l 56 281 l 56 469 l 269 469 l 269 281 l 269 196 z "},"v":{"ha":775,"x_min":14,"x_max":761,"o":"m 307 -190 l 14 469 l 228 469 l 388 103 l 547 469 l 761 469 l 468 -190 l 307 -190 z "},"w":{"ha":1203,"x_min":14,"x_max":1189,"o":"m 268 -190 l 14 469 l 228 469 l 361 104 l 521 414 l 682 414 l 842 104 l 975 469 l 1189 469 l 935 -190 l 775 -190 l 601 160 l 428 -190 l 268 -190 z "},"x":{"ha":803,"x_min":14,"x_max":789,"o":"m 14 -190 l 254 140 l 14 469 l 256 469 l 401 256 l 547 469 l 789 469 l 549 140 l 789 -190 l 547 -190 l 401 25 l 256 -190 l 14 -190 z "},"y":{"ha":775,"x_min":14,"x_max":761,"o":"m 179 -454 l 271 -225 l 14 467 l 228 467 l 369 24 l 547 467 l 761 467 l 382 -454 l 179 -454 z "},"z":{"ha":793,"x_min":56,"x_max":738,"o":"m 96 468 l 711 468 l 711 338 l 378 -11 l 738 -11 l 738 -192 l 56 -192 l 56 -61 l 390 286 l 96 286 l 96 468 z "},"ㄱ":{"ha":1160,"x_min":208,"x_max":951,"o":"m 668 164 q 690 283 681 219 q 701 381 699 347 l 208 381 l 208 617 l 951 617 q 931 390 947 514 q 885 150 914 265 l 668 164 z "},"ㄲ":{"ha":1194,"x_min":208,"x_max":986,"o":"m 297 161 q 326 382 311 200 l 208 382 l 208 618 l 576 618 q 560 354 571 486 q 531 147 549 222 l 297 161 m 714 161 q 736 382 735 311 l 615 382 l 615 618 l 986 618 q 974 353 981 456 q 954 147 968 250 l 714 161 z "},"ㄳ":{"ha":1507,"x_min":208,"x_max":1299,"o":"m 572 144 l 336 144 l 336 390 l 208 390 l 208 624 l 572 624 l 572 144 m 664 381 q 790 390 746 381 q 850 428 835 400 q 864 471 861 446 q 867 540 867 496 l 867 628 l 1103 628 l 1103 551 q 1096 428 1103 478 l 1299 372 l 1299 128 l 1043 197 l 1043 289 q 892 175 986 206 q 664 144 797 144 l 615 144 l 615 381 l 664 381 z "},"ㄴ":{"ha":1146,"x_min":208,"x_max":938,"o":"m 938 221 q 208 142 521 142 l 208 635 l 444 635 l 444 406 q 694 413 560 406 q 938 435 828 419 l 938 221 z "},"ㄵ":{"ha":1507,"x_min":208,"x_max":1299,"o":"m 208 629 l 444 629 l 444 372 l 615 372 l 664 372 q 794 383 747 372 q 857 422 840 393 l 868 449 l 606 449 l 606 629 l 1299 629 l 1299 449 l 1093 449 q 1083 394 1088 413 l 1299 336 l 1299 119 l 1043 189 l 1043 303 q 895 182 989 214 q 668 150 801 150 l 664 150 l 615 150 l 208 150 l 208 629 z "},"ㄶ":{"ha":1507,"x_min":208,"x_max":1299,"o":"m 208 621 l 444 621 l 444 364 l 710 364 l 710 142 l 208 142 l 208 621 m 1299 426 l 1260 426 q 1268 349 1268 392 q 1202 165 1268 233 q 1010 96 1136 96 q 815 164 882 96 q 749 349 749 232 q 758 426 749 392 l 522 426 l 522 621 l 893 621 l 893 669 l 1129 669 l 1129 621 l 1299 621 l 1299 426 m 1010 276 q 1072 291 1057 276 q 1088 349 1088 306 q 1072 404 1088 390 q 1010 418 1057 418 q 945 404 961 418 q 929 349 929 390 q 944 291 929 306 q 1010 276 960 276 z "},"ㄷ":{"ha":1128,"x_min":208,"x_max":919,"o":"m 919 182 q 613 140 769 150 q 247 129 457 129 l 247 456 l 208 456 l 208 664 l 904 664 l 904 456 l 483 456 l 483 351 q 919 360 761 351 l 919 182 z "},"ㄸ":{"ha":1297,"x_min":208,"x_max":1089,"o":"m 1089 204 q 678 135 885 135 l 678 249 q 458 154 568 188 q 247 121 347 121 l 247 447 l 208 447 l 208 656 l 594 656 l 594 447 l 483 447 l 483 357 q 564 364 522 357 q 678 385 606 371 l 678 447 l 653 447 l 653 656 l 1067 656 l 1067 447 l 914 447 l 914 357 q 1089 382 996 357 l 1089 204 z "},"ㄹ":{"ha":1151,"x_min":208,"x_max":943,"o":"m 208 76 l 208 456 l 694 456 l 694 489 l 208 489 l 208 686 l 931 686 l 931 456 q 891 345 931 383 q 778 307 851 307 l 444 307 l 444 272 l 943 272 l 943 76 l 208 76 z "},"ㄺ":{"ha":1479,"x_min":208,"x_max":1271,"o":"m 424 464 l 424 499 l 208 499 l 208 700 l 660 700 l 660 311 l 444 311 l 444 276 l 938 276 l 938 75 l 208 75 l 208 464 l 424 464 m 1271 75 l 1035 75 l 1035 464 l 736 464 l 736 700 l 1271 700 l 1271 75 z "},"ㄻ":{"ha":1507,"x_min":208,"x_max":1299,"o":"m 208 461 l 465 461 l 465 494 l 208 494 l 208 693 l 701 693 l 701 310 l 444 310 l 444 275 l 750 275 l 750 693 l 1271 693 l 1271 297 l 1299 297 l 1299 78 l 208 78 l 208 461 m 1049 297 l 1049 474 l 972 474 l 972 297 l 1049 297 z "},"ㄼ":{"ha":1507,"x_min":208,"x_max":1299,"o":"m 465 460 l 465 494 l 208 494 l 208 693 l 701 693 l 701 310 l 444 310 l 444 276 l 750 276 l 750 693 l 972 693 l 972 638 l 1049 638 l 1049 693 l 1271 693 l 1271 296 l 1299 296 l 1299 78 l 208 78 l 208 460 l 465 460 m 1049 296 l 1049 419 l 972 419 l 972 296 l 1049 296 z "},"ㄽ":{"ha":1563,"x_min":208,"x_max":1354,"o":"m 535 461 l 535 496 l 208 496 l 208 694 l 771 694 l 771 310 l 444 310 l 444 275 l 660 275 l 719 275 q 982 397 901 275 q 1063 694 1063 519 l 1299 694 q 1213 347 1299 499 l 1354 304 l 1354 57 l 1126 126 l 1126 235 q 949 118 1051 160 q 719 76 846 76 l 660 76 l 657 76 l 208 76 l 208 461 l 535 461 z "},"ㄾ":{"ha":1507,"x_min":208,"x_max":1299,"o":"m 451 460 l 451 494 l 208 494 l 208 693 l 688 693 l 688 310 l 444 310 l 444 276 l 688 276 l 688 78 l 208 78 l 208 460 l 451 460 m 736 693 l 1299 693 l 1299 494 l 736 494 l 736 693 m 1299 310 l 972 310 l 972 276 l 1299 276 l 1299 78 l 736 78 l 736 460 l 1299 460 l 1299 310 z "},"ㄿ":{"ha":1507,"x_min":208,"x_max":1299,"o":"m 451 461 l 451 494 l 208 494 l 208 693 l 688 693 l 688 310 l 444 310 l 444 276 l 688 276 l 688 78 l 208 78 l 208 461 l 451 461 m 736 693 l 1299 693 l 1299 494 l 736 494 l 736 693 m 736 276 l 793 276 q 764 426 764 351 l 965 467 q 1000 276 965 371 l 1035 276 q 1069 467 1069 371 l 1271 426 q 1242 276 1271 351 l 1299 276 l 1299 78 l 736 78 l 736 276 z "},"ㅀ":{"ha":1557,"x_min":208,"x_max":1349,"o":"m 340 461 l 340 496 l 208 496 l 208 694 l 576 694 l 576 310 l 431 310 l 431 275 l 660 275 l 660 76 l 208 76 l 208 461 l 340 461 m 1349 482 l 1261 482 q 1292 342 1292 421 q 1254 185 1292 253 q 1147 81 1217 118 q 982 43 1076 43 q 807 85 878 43 q 703 194 736 126 q 669 342 669 263 q 701 482 669 422 l 611 482 l 611 674 l 863 674 l 863 736 l 1099 736 l 1099 674 l 1349 674 l 1349 482 m 982 265 q 1051 283 1032 265 q 1069 342 1069 300 q 1051 397 1069 381 q 982 413 1032 413 q 911 397 931 413 q 892 342 892 381 q 911 283 892 300 q 982 265 931 265 z "},"ㅁ":{"ha":1169,"x_min":208,"x_max":961,"o":"m 917 635 l 917 336 l 961 336 l 961 128 l 208 128 l 208 635 l 917 635 m 681 336 l 681 426 l 444 426 l 444 336 l 681 336 z "},"ㅂ":{"ha":1167,"x_min":208,"x_max":958,"o":"m 924 646 l 924 306 l 958 306 l 958 111 l 208 111 l 208 646 l 444 646 l 444 563 l 688 563 l 688 646 l 924 646 m 688 306 l 688 396 l 444 396 l 444 306 l 688 306 z "},"ㅃ":{"ha":1229,"x_min":208,"x_max":1021,"o":"m 986 669 l 986 315 l 1021 315 l 1021 107 l 208 107 l 208 669 l 431 669 l 431 586 l 493 586 l 493 669 l 701 669 l 701 586 l 764 586 l 764 669 l 986 669 m 764 315 l 764 406 l 701 406 l 701 315 l 764 315 m 493 315 l 493 406 l 431 406 l 431 315 l 493 315 z "},"ㅄ":{"ha":1563,"x_min":208,"x_max":1354,"o":"m 756 638 l 756 361 l 761 361 q 888 371 843 361 q 947 408 932 381 q 961 451 958 426 q 964 525 964 475 l 964 639 l 1200 639 l 1200 547 q 1192 403 1200 454 l 1354 353 l 1354 106 l 1126 175 l 1126 250 q 978 151 1068 178 q 761 125 888 125 l 756 125 l 713 125 l 208 125 l 208 638 l 431 638 l 431 563 l 533 563 l 533 638 l 756 638 m 533 319 l 533 396 l 431 396 l 431 319 l 533 319 z "},"ㅅ":{"ha":1201,"x_min":208,"x_max":993,"o":"m 257 390 q 456 428 374 390 q 580 519 539 467 q 621 614 621 572 l 857 614 q 839 508 857 563 q 788 403 821 453 l 993 379 l 993 154 l 636 196 l 636 257 q 257 154 476 154 l 208 154 l 208 390 l 257 390 z "},"ㅆ":{"ha":1279,"x_min":208,"x_max":1071,"o":"m 1071 157 l 864 203 l 864 283 q 767 183 828 221 q 635 146 707 146 q 458 203 547 146 q 243 157 381 157 l 208 157 l 208 393 l 243 393 q 319 399 297 393 q 347 418 342 404 q 356 452 354 432 q 358 513 358 472 l 358 615 l 594 615 l 594 525 q 588 400 594 447 q 631 383 613 383 q 667 414 654 383 q 674 455 672 431 q 676 525 676 479 l 676 615 l 913 615 l 913 535 q 910 435 913 465 l 1071 399 l 1071 157 z "},"ㅇ":{"ha":1133,"x_min":208,"x_max":925,"o":"m 569 297 q 645 303 621 297 q 679 328 669 310 q 689 382 689 346 q 679 435 689 418 q 645 459 669 453 q 569 465 621 465 q 490 459 517 465 q 454 435 464 453 q 444 382 444 418 q 454 328 444 346 q 490 303 464 310 q 569 297 517 297 m 569 75 q 303 153 397 75 q 208 382 208 232 q 303 609 208 531 q 569 688 397 688 q 830 610 735 688 q 925 382 925 533 q 830 152 925 229 q 569 75 735 75 z "},"ㅈ":{"ha":1251,"x_min":208,"x_max":1043,"o":"m 283 353 q 553 417 451 353 l 558 421 l 276 421 l 276 629 l 1043 629 l 1043 421 l 833 421 l 828 408 l 1043 364 l 1043 150 l 774 206 l 774 317 q 678 228 732 263 q 490 154 594 178 q 283 131 386 131 l 208 131 l 208 353 l 283 353 z "},"ㅉ":{"ha":1296,"x_min":208,"x_max":1088,"o":"m 1085 121 l 907 186 l 907 256 q 801 169 867 201 q 656 138 735 138 q 456 193 554 138 q 246 142 374 142 l 208 142 l 208 350 l 246 350 q 308 356 290 350 q 339 386 326 363 q 347 417 344 399 l 251 417 l 251 625 l 1088 625 l 1088 417 l 965 417 l 961 392 l 1085 346 l 1085 121 m 578 372 q 656 346 621 346 q 719 386 700 346 q 728 417 725 399 l 585 417 q 578 372 582 389 z "},"ㅊ":{"ha":1264,"x_min":208,"x_max":1056,"o":"m 311 361 q 446 375 376 361 q 568 417 515 389 l 263 417 l 263 625 l 651 625 q 658 736 658 692 l 894 736 q 890 625 894 686 l 1056 625 l 1056 417 l 846 417 l 838 394 l 1056 365 l 1056 140 l 792 176 l 792 313 q 738 257 767 278 q 537 167 654 196 q 311 139 419 139 l 208 139 l 208 361 l 311 361 z "},"ㅋ":{"ha":1200,"x_min":208,"x_max":992,"o":"m 722 111 q 733 214 731 151 q 208 174 378 174 l 208 396 q 740 414 465 396 l 742 449 l 249 449 l 249 657 l 992 657 l 989 606 q 939 107 978 267 l 722 111 z "},"ㅌ":{"ha":1197,"x_min":208,"x_max":989,"o":"m 989 140 q 656 98 843 108 q 247 88 469 88 l 247 485 l 208 485 l 208 681 l 974 681 l 974 496 l 483 496 l 483 454 l 917 454 l 917 328 l 483 328 l 483 283 l 628 283 q 989 293 863 283 l 989 140 z "},"ㅍ":{"ha":1222,"x_min":208,"x_max":1014,"o":"m 208 681 l 1014 681 l 1014 479 l 208 479 l 208 681 m 882 443 q 856 279 882 372 l 1014 279 l 1014 78 l 208 78 l 208 279 l 339 279 q 313 443 313 372 l 514 457 q 542 279 514 381 l 653 279 q 681 457 681 381 l 882 443 z "},"ㅎ":{"ha":1249,"x_min":208,"x_max":1040,"o":"m 1040 428 l 978 428 q 986 344 986 390 q 901 133 986 208 q 628 58 817 58 q 350 133 436 58 q 264 344 264 208 q 272 428 264 389 l 208 428 l 208 636 l 507 636 l 507 733 l 743 733 l 743 636 l 1040 636 l 1040 428 m 628 281 q 714 284 690 281 q 744 300 738 288 q 750 344 750 313 q 744 390 750 378 q 714 407 738 403 q 628 411 690 411 q 538 408 563 411 q 507 391 514 404 q 500 344 500 378 q 507 300 500 313 q 538 284 514 288 q 628 281 563 281 z "},"ㅏ":{"ha":1389,"x_min":579,"x_max":964,"o":"m 815 1083 l 815 801 l 964 801 l 964 565 l 815 565 l 815 -228 l 579 -228 l 579 1083 l 815 1083 z "},"ㅐ":{"ha":1389,"x_min":428,"x_max":956,"o":"m 956 1083 l 956 -229 l 733 -229 l 733 564 l 650 564 l 650 104 l 428 104 l 428 1083 l 650 1083 l 650 786 l 733 786 l 733 1083 l 956 1083 z "},"ㅑ":{"ha":1389,"x_min":578,"x_max":963,"o":"m 814 1083 l 814 954 l 963 954 l 963 718 l 814 718 l 814 635 l 963 635 l 963 399 l 814 399 l 814 -228 l 578 -228 l 578 1083 l 814 1083 z "},"ㅒ":{"ha":1389,"x_min":425,"x_max":953,"o":"m 953 1083 l 953 -229 l 731 -229 l 731 383 l 647 383 l 647 104 l 425 104 l 425 1083 l 647 1083 l 647 897 l 731 897 l 731 1083 l 953 1083 m 731 606 l 731 675 l 647 675 l 647 606 l 731 606 z "},"ㅓ":{"ha":1389,"x_min":403,"x_max":814,"o":"m 814 1083 l 814 -228 l 578 -228 l 578 578 l 403 578 l 403 786 l 578 786 l 578 1083 l 814 1083 z "},"ㅔ":{"ha":1389,"x_min":264,"x_max":956,"o":"m 956 1083 l 956 -229 l 733 -229 l 733 1083 l 956 1083 m 650 1083 l 650 104 l 428 104 l 428 592 l 264 592 l 264 814 l 428 814 l 428 1083 l 650 1083 z "},"ㅕ":{"ha":1389,"x_min":389,"x_max":814,"o":"m 814 1083 l 814 -228 l 578 -228 l 578 451 l 389 451 l 389 654 l 578 654 l 578 738 l 389 738 l 389 939 l 578 939 l 578 1083 l 814 1083 z "},"ㅖ":{"ha":1389,"x_min":279,"x_max":957,"o":"m 957 1083 l 957 -229 l 735 -229 l 735 1083 l 957 1083 m 651 1083 l 651 104 l 429 104 l 429 500 l 279 500 l 279 661 l 429 661 l 429 736 l 279 736 l 279 897 l 429 897 l 429 1083 l 651 1083 z "},"ㅗ":{"ha":1389,"x_min":64,"x_max":1328,"o":"m 1328 304 l 64 304 l 64 526 l 585 526 l 585 729 l 807 729 l 807 526 l 1328 526 l 1328 304 z "},"ㅘ":{"ha":1389,"x_min":25,"x_max":1365,"o":"m 1217 1083 l 1217 801 l 1365 801 l 1365 565 l 1217 565 l 1217 -228 l 981 -228 l 981 1083 l 1217 1083 m 25 78 l 25 314 l 324 332 l 324 550 l 560 550 l 560 347 l 915 369 l 915 133 l 25 78 z "},"ㅙ":{"ha":1389,"x_min":25,"x_max":1272,"o":"m 1272 1083 l 1272 -229 l 1050 -229 l 1050 564 l 967 564 l 967 104 l 744 104 l 744 218 l 25 151 l 25 388 l 254 408 l 254 596 l 490 596 l 490 431 l 744 454 l 744 1083 l 967 1083 l 967 786 l 1050 786 l 1050 1083 l 1272 1083 z "},"ㅚ":{"ha":1389,"x_min":25,"x_max":1217,"o":"m 1217 1083 l 1217 -228 l 981 -228 l 981 1083 l 1217 1083 m 25 78 l 25 314 l 324 332 l 324 550 l 560 550 l 560 347 l 915 369 l 915 133 l 25 78 z "},"ㅛ":{"ha":1389,"x_min":63,"x_max":1326,"o":"m 1326 304 l 63 304 l 63 526 l 347 526 l 347 779 l 569 779 l 569 526 l 819 526 l 819 779 l 1042 779 l 1042 526 l 1326 526 l 1326 304 z "},"ㅜ":{"ha":1389,"x_min":63,"x_max":1326,"o":"m 1326 528 l 806 528 l 806 157 l 583 157 l 583 528 l 63 528 l 63 750 l 1326 750 l 1326 528 z "},"ㅝ":{"ha":1389,"x_min":25,"x_max":1217,"o":"m 1217 1083 l 1217 -228 l 981 -228 l 981 224 l 863 224 l 863 460 l 981 460 l 981 1083 l 1217 1083 m 554 -60 l 554 215 l 25 175 l 25 411 l 790 467 l 790 -60 l 554 -60 z "},"ㅞ":{"ha":1389,"x_min":25,"x_max":1272,"o":"m 360 121 l 360 267 l 25 231 l 25 467 l 596 522 l 596 121 l 360 121 m 1272 1083 l 1272 -229 l 1050 -229 l 1050 1083 l 1272 1083 m 967 1083 l 967 35 l 744 35 l 744 263 l 654 263 l 654 499 l 744 499 l 744 1083 l 967 1083 z "},"ㅟ":{"ha":1389,"x_min":25,"x_max":1217,"o":"m 1217 1083 l 1217 -228 l 981 -228 l 981 1083 l 1217 1083 m 624 -87 l 624 188 l 25 147 l 25 383 l 860 439 l 860 -87 l 624 -87 z "},"ㅠ":{"ha":1389,"x_min":63,"x_max":1326,"o":"m 1326 528 l 1042 528 l 1042 157 l 819 157 l 819 528 l 569 528 l 569 157 l 347 157 l 347 528 l 63 528 l 63 750 l 1326 750 l 1326 528 z "},"ㅡ":{"ha":1389,"x_min":63,"x_max":1326,"o":"m 1326 304 l 63 304 l 63 526 l 1326 526 l 1326 304 z "},"ㅢ":{"ha":1389,"x_min":25,"x_max":1217,"o":"m 1217 1083 l 1217 -228 l 981 -228 l 981 1083 l 1217 1083 m 25 78 l 25 314 l 915 369 l 915 133 l 25 78 z "},"ㅣ":{"ha":1389,"x_min":575,"x_max":811,"o":"m 811 1083 l 811 -228 l 575 -228 l 575 1083 l 811 1083 z "},"가":{"ha":1389,"x_min":76,"x_max":1365,"o":"m 875 1069 q 676 544 860 738 q 76 326 493 351 l 76 563 q 444 633 275 576 q 625 833 614 690 l 132 833 l 132 1069 l 875 1069 m 1217 1083 l 1217 -228 l 981 -228 l 981 1083 l 1217 1083 m 1365 565 l 1217 565 l 1217 801 l 1365 801 l 1365 565 z "},"각":{"ha":1389,"x_min":76,"x_max":1365,"o":"m 1217 -250 l 981 -250 l 981 -7 l 154 -7 l 154 229 l 1217 229 l 1217 -250 m 1217 1083 l 1217 299 l 981 299 l 981 1083 l 1217 1083 m 875 1069 q 676 544 860 738 q 76 326 493 351 l 76 563 q 444 633 275 576 q 625 833 614 690 l 132 833 l 132 1069 l 875 1069 m 1365 565 l 1217 565 l 1217 801 l 1365 801 l 1365 565 z "},"간":{"ha":1389,"x_min":76,"x_max":1365,"o":"m 210 271 l 446 271 l 446 -14 l 1286 -14 l 1286 -250 l 210 -250 l 210 271 m 1217 1083 l 1217 76 l 981 76 l 981 1083 l 1217 1083 m 875 1069 q 676 544 860 738 q 76 326 493 351 l 76 563 q 444 633 275 576 q 625 833 614 690 l 132 833 l 132 1069 l 875 1069 m 1365 565 l 1217 565 l 1217 801 l 1365 801 l 1365 565 z "},"갇":{"ha":1389,"x_min":76,"x_max":1365,"o":"m 1217 243 l 1217 35 l 390 35 l 390 -42 l 1217 -42 l 1217 -250 l 154 -250 l 154 243 l 1217 243 m 1217 1083 l 1217 299 l 981 299 l 981 1083 l 1217 1083 m 875 1069 q 676 544 860 738 q 76 326 493 351 l 76 563 q 444 633 275 576 q 625 833 614 690 l 132 833 l 132 1069 l 875 1069 m 1365 565 l 1217 565 l 1217 801 l 1365 801 l 1365 565 z "},"갈":{"ha":1389,"x_min":76,"x_max":1365,"o":"m 981 153 l 981 188 l 154 188 l 154 403 l 1217 403 l 1217 0 l 390 0 l 390 -35 l 1258 -35 l 1258 -250 l 154 -250 l 154 153 l 981 153 m 1217 1083 l 1217 451 l 981 451 l 981 1083 l 1217 1083 m 875 1083 q 791 712 865 850 q 547 503 717 574 q 76 424 376 433 l 76 660 q 301 673 179 658 q 520 730 424 688 q 625 847 617 772 l 132 847 l 132 1083 l 875 1083 m 1365 649 l 1217 649 l 1217 885 l 1365 885 l 1365 649 z "},"갉":{"ha":1389,"x_min":76,"x_max":1365,"o":"m 369 139 l 369 174 l 154 174 l 154 375 l 606 375 l 606 -14 l 390 -14 l 390 -49 l 883 -49 l 883 -250 l 154 -250 l 154 139 l 369 139 m 1217 -250 l 981 -250 l 981 139 l 682 139 l 682 375 l 1217 375 l 1217 -250 m 1217 1083 l 1217 451 l 981 451 l 981 1083 l 1217 1083 m 875 1083 q 791 712 865 850 q 547 503 717 574 q 76 424 376 433 l 76 660 q 301 673 179 658 q 520 730 424 688 q 625 847 617 772 l 132 847 l 132 1083 l 875 1083 m 1365 649 l 1217 649 l 1217 885 l 1365 885 l 1365 649 z "},"갊":{"ha":1389,"x_min":76,"x_max":1365,"o":"m 154 139 l 411 139 l 411 174 l 154 174 l 154 375 l 647 375 l 647 -14 l 390 -14 l 390 -49 l 696 -49 l 696 375 l 1217 375 l 1217 -28 l 1244 -28 l 1244 -250 l 154 -250 l 154 139 m 994 -28 l 994 153 l 918 153 l 918 -28 l 994 -28 m 1217 1083 l 1217 451 l 981 451 l 981 1083 l 1217 1083 m 875 1083 q 791 712 865 850 q 547 503 717 574 q 76 424 376 433 l 76 660 q 301 673 179 658 q 520 730 424 688 q 625 847 617 772 l 132 847 l 132 1083 l 875 1083 m 1365 649 l 1217 649 l 1217 885 l 1365 885 l 1365 649 z "},"갋":{"ha":1389,"x_min":76,"x_max":1365,"o":"m 411 139 l 411 174 l 154 174 l 154 375 l 647 375 l 647 -14 l 390 -14 l 390 -49 l 696 -49 l 696 375 l 918 375 l 918 319 l 994 319 l 994 375 l 1217 375 l 1217 -28 l 1244 -28 l 1244 -250 l 154 -250 l 154 139 l 411 139 m 994 -28 l 994 97 l 918 97 l 918 -28 l 994 -28 m 1217 1083 l 1217 451 l 981 451 l 981 1083 l 1217 1083 m 875 1083 q 791 712 865 850 q 547 503 717 574 q 76 424 376 433 l 76 660 q 301 673 179 658 q 520 730 424 688 q 625 847 617 772 l 132 847 l 132 1083 l 875 1083 m 1365 649 l 1217 649 l 1217 885 l 1365 885 l 1365 649 z "},"감":{"ha":1389,"x_min":76,"x_max":1365,"o":"m 1217 243 l 1217 -250 l 154 -250 l 154 243 l 1217 243 m 981 -42 l 981 35 l 390 35 l 390 -42 l 981 -42 m 1217 1083 l 1217 299 l 981 299 l 981 1083 l 1217 1083 m 875 1069 q 676 544 860 738 q 76 326 493 351 l 76 563 q 444 633 275 576 q 625 833 614 690 l 132 833 l 132 1069 l 875 1069 m 1365 565 l 1217 565 l 1217 801 l 1365 801 l 1365 565 z "},"갑":{"ha":1389,"x_min":76,"x_max":1365,"o":"m 1217 257 l 1217 -250 l 154 -250 l 154 271 l 390 271 l 390 188 l 981 188 l 981 257 l 1217 257 m 981 -42 l 981 7 l 390 7 l 390 -42 l 981 -42 m 1217 1083 l 1217 299 l 981 299 l 981 1083 l 1217 1083 m 875 1069 q 676 544 860 738 q 76 326 493 351 l 76 563 q 444 633 275 576 q 625 833 614 690 l 132 833 l 132 1069 l 875 1069 m 1365 565 l 1217 565 l 1217 801 l 1365 801 l 1365 565 z "},"값":{"ha":1389,"x_min":76,"x_max":1365,"o":"m 688 263 l 688 -14 l 693 -14 q 819 -4 775 -14 q 879 33 864 6 q 893 76 890 51 q 896 150 896 100 l 896 264 l 1132 264 l 1132 172 q 1124 28 1132 79 l 1286 -22 l 1286 -269 l 1058 -200 l 1058 -125 q 910 -224 1000 -197 q 693 -250 819 -250 l 688 -250 l 644 -250 l 140 -250 l 140 263 l 363 263 l 363 188 l 465 188 l 465 263 l 688 263 m 465 -56 l 465 21 l 363 21 l 363 -56 l 465 -56 m 1217 1083 l 1217 299 l 981 299 l 981 1083 l 1217 1083 m 875 1069 q 676 544 860 738 q 76 326 493 351 l 76 563 q 444 633 275 576 q 625 833 614 690 l 132 833 l 132 1069 l 875 1069 m 1365 565 l 1217 565 l 1217 801 l 1365 801 l 1365 565 z "},"갓":{"ha":1389,"x_min":76,"x_max":1365,"o":"m 207 -14 q 379 2 290 -14 q 518 49 468 18 q 579 133 554 71 q 604 247 604 194 l 840 247 q 797 42 840 149 l 1217 -25 l 1217 -264 l 781 -194 l 781 6 q 643 -151 726 -100 q 438 -226 560 -203 q 207 -250 315 -250 l 158 -250 l 158 -14 l 207 -14 m 1217 1082 l 1217 146 l 981 146 l 981 1082 l 1217 1082 m 875 1069 q 676 544 860 738 q 76 326 493 351 l 76 563 q 444 633 275 576 q 625 833 614 690 l 132 833 l 132 1069 l 875 1069 m 1365 565 l 1217 565 l 1217 801 l 1365 801 l 1365 565 z "},"갔":{"ha":1389,"x_min":76,"x_max":1365,"o":"m 1286 -269 l 1058 -200 l 1058 -83 q 933 -211 1015 -160 q 744 -262 851 -262 q 481 -183 615 -262 q 349 -235 424 -221 q 179 -250 275 -250 l 131 -250 l 131 -14 l 179 -14 q 306 -4 261 -14 q 365 33 350 6 q 379 76 376 51 q 382 150 382 100 l 382 264 l 618 264 l 618 157 q 608 15 618 65 q 743 -25 683 -25 q 810 -9 782 -25 q 851 33 838 7 q 865 76 863 51 q 868 150 868 100 l 868 264 l 1104 264 l 1104 168 q 1097 35 1104 85 l 1286 -22 l 1286 -269 m 1217 1083 l 1217 299 l 981 299 l 981 1083 l 1217 1083 m 875 1069 q 676 544 860 738 q 76 326 493 351 l 76 563 q 444 633 275 576 q 625 833 614 690 l 132 833 l 132 1069 l 875 1069 m 1365 565 l 1217 565 l 1217 801 l 1365 801 l 1365 565 z "},"강":{"ha":1389,"x_min":76,"x_max":1365,"o":"m 711 -56 q 894 -53 844 -56 q 962 -38 943 -50 q 981 4 981 -26 q 963 47 981 35 q 901 63 946 60 q 740 65 856 65 l 658 65 q 510 62 553 65 q 452 47 468 58 q 436 4 436 35 q 456 -38 436 -26 q 525 -53 475 -50 q 711 -56 575 -56 m 711 -278 q 389 -239 501 -278 q 238 -139 276 -200 q 200 4 200 -78 q 238 149 200 88 q 389 249 276 210 q 711 288 501 288 q 1031 248 919 288 q 1180 147 1143 208 q 1217 4 1217 86 q 1180 -137 1217 -76 q 1031 -238 1143 -199 q 711 -278 919 -278 m 1217 1083 l 1217 299 l 981 299 l 981 1083 l 1217 1083 m 875 1069 q 676 544 860 738 q 76 326 493 351 l 76 563 q 444 633 275 576 q 625 833 614 690 l 132 833 l 132 1069 l 875 1069 m 1365 565 l 1217 565 l 1217 801 l 1365 801 l 1365 565 z "},"갖":{"ha":1389,"x_min":76,"x_max":1365,"o":"m 249 -14 q 395 1 325 -14 q 518 49 465 17 q 539 67 531 56 l 200 67 l 200 254 l 1217 254 l 1217 67 l 807 67 l 788 22 l 1217 -65 l 1217 -279 l 739 -182 l 739 -61 q 643 -151 699 -117 q 456 -227 558 -204 q 249 -250 353 -250 l 144 -250 l 144 -14 l 249 -14 m 1217 1083 l 1217 299 l 981 299 l 981 1083 l 1217 1083 m 875 1069 q 676 544 860 738 q 76 326 493 351 l 76 563 q 444 633 275 576 q 625 833 614 690 l 132 833 l 132 1069 l 875 1069 m 1365 565 l 1217 565 l 1217 801 l 1365 801 l 1365 565 z "},"갗":{"ha":1389,"x_min":76,"x_max":1365,"o":"m 249 -35 l 304 -35 q 434 -28 383 -35 q 522 1 485 -21 q 551 39 535 8 l 200 39 l 200 226 l 606 226 q 611 296 611 279 l 833 296 q 829 226 833 264 l 1217 226 l 1217 39 l 790 39 l 785 22 l 1217 -65 l 1217 -279 l 739 -182 l 739 -76 q 639 -187 697 -151 q 491 -244 569 -231 q 317 -257 413 -257 l 249 -257 l 158 -257 l 158 -35 l 249 -35 m 1217 1083 l 1217 299 l 981 299 l 981 1083 l 1217 1083 m 875 1069 q 676 544 860 738 q 76 326 493 351 l 76 563 q 444 633 275 576 q 625 833 614 690 l 132 833 l 132 1069 l 875 1069 m 1365 565 l 1217 565 l 1217 801 l 1365 801 l 1365 565 z "},"같":{"ha":1389,"x_min":76,"x_max":1365,"o":"m 1217 375 l 1217 174 l 460 174 l 460 139 l 1175 139 l 1175 -14 l 460 -14 l 460 -49 l 1217 -49 l 1217 -250 l 224 -250 l 224 375 l 1217 375 m 1217 1083 l 1217 451 l 981 451 l 981 1083 l 1217 1083 m 875 1083 q 791 712 865 850 q 547 503 717 574 q 76 424 376 433 l 76 660 q 301 673 179 658 q 520 730 424 688 q 625 847 617 772 l 132 847 l 132 1083 l 875 1083 m 1365 635 l 1217 635 l 1217 871 l 1365 871 l 1365 635 z "},"갚":{"ha":1389,"x_min":76,"x_max":1365,"o":"m 201 375 l 1217 375 l 1217 167 l 1075 167 q 1025 -42 1057 51 l 1217 -42 l 1217 -250 l 201 -250 l 201 -42 l 372 -42 q 340 94 340 60 l 556 136 q 560 52 556 110 q 572 -42 565 -6 l 821 -42 q 874 167 842 28 l 201 167 l 201 375 m 1217 1083 l 1217 451 l 981 451 l 981 1083 l 1217 1083 m 875 1083 q 791 712 865 850 q 547 503 717 574 q 76 424 376 433 l 76 660 q 301 673 179 658 q 520 730 424 688 q 625 847 617 772 l 132 847 l 132 1083 l 875 1083 m 1365 649 l 1217 649 l 1217 885 l 1365 885 l 1365 649 z "},"갛":{"ha":1389,"x_min":76,"x_max":1365,"o":"m 1217 104 l 1114 104 q 1128 11 1128 63 q 1024 -206 1128 -124 q 689 -289 919 -289 q 349 -206 454 -289 q 244 11 244 -124 q 258 104 244 61 l 156 104 l 156 299 l 557 299 l 568 300 l 568 389 l 804 389 l 804 300 l 819 299 l 1217 299 l 1217 104 m 689 -81 q 869 -57 819 -81 q 919 11 919 -33 q 869 76 919 54 q 689 99 819 99 q 503 76 554 99 q 453 11 453 54 q 503 -57 453 -33 q 689 -81 554 -81 m 1217 1083 l 1217 382 l 981 382 l 981 1083 l 1217 1083 m 875 1083 q 791 712 865 850 q 547 503 717 574 q 76 424 376 433 l 76 660 q 301 673 179 658 q 520 730 424 688 q 625 847 617 772 l 132 847 l 132 1083 l 875 1083 m 1365 635 l 1217 635 l 1217 871 l 1365 871 l 1365 635 z "},"개":{"ha":1389,"x_min":76,"x_max":1272,"o":"m 1272 1083 l 1272 -229 l 1050 -229 l 1050 564 l 967 564 l 967 104 l 744 104 l 744 1083 l 967 1083 l 967 786 l 1050 786 l 1050 1083 l 1272 1083 m 694 1069 q 526 550 681 749 q 76 326 371 351 l 76 563 q 305 635 207 572 q 444 833 403 699 l 132 833 l 132 1069 l 694 1069 z "},"객":{"ha":1389,"x_min":76,"x_max":1272,"o":"m 1272 -250 l 1036 -250 l 1036 -7 l 210 -7 l 210 229 l 1272 229 l 1272 -250 m 1272 1083 l 1272 299 l 1050 299 l 1050 564 l 967 564 l 967 299 l 744 299 l 744 1083 l 967 1083 l 967 786 l 1050 786 l 1050 1083 l 1272 1083 m 694 1069 q 526 550 681 749 q 76 326 371 351 l 76 563 q 305 635 207 572 q 444 833 403 699 l 132 833 l 132 1069 l 694 1069 z "},"갠":{"ha":1389,"x_min":76,"x_max":1342,"o":"m 265 271 l 501 271 l 501 -14 l 1342 -14 l 1342 -250 l 265 -250 l 265 271 m 1272 1083 l 1272 161 l 1050 161 l 1050 564 l 967 564 l 967 161 l 744 161 l 744 1083 l 967 1083 l 967 786 l 1050 786 l 1050 1083 l 1272 1083 m 694 1069 q 526 550 681 749 q 76 326 371 351 l 76 563 q 305 635 207 572 q 444 833 403 699 l 132 833 l 132 1069 l 694 1069 z "},"갣":{"ha":1389,"x_min":76,"x_max":1272,"o":"m 1272 243 l 1272 35 l 446 35 l 446 -42 l 1272 -42 l 1272 -250 l 210 -250 l 210 243 l 1272 243 m 1272 1083 l 1272 299 l 1050 299 l 1050 564 l 967 564 l 967 299 l 744 299 l 744 1083 l 967 1083 l 967 786 l 1050 786 l 1050 1083 l 1272 1083 m 694 1069 q 526 550 681 749 q 76 326 371 351 l 76 563 q 305 635 207 572 q 444 833 403 699 l 132 833 l 132 1069 l 694 1069 z "},"갤":{"ha":1389,"x_min":76,"x_max":1314,"o":"m 1036 153 l 1036 188 l 210 188 l 210 403 l 1272 403 l 1272 0 l 446 0 l 446 -35 l 1314 -35 l 1314 -250 l 210 -250 l 210 153 l 1036 153 m 1272 1083 l 1272 447 l 1050 447 l 1050 633 l 967 633 l 967 447 l 744 447 l 744 1083 l 967 1083 l 967 856 l 1050 856 l 1050 1083 l 1272 1083 m 694 1069 q 617 706 686 844 q 417 498 549 568 q 76 410 285 428 l 76 646 q 313 694 221 656 q 444 833 404 732 l 132 833 l 132 1069 l 694 1069 z "},"갬":{"ha":1389,"x_min":76,"x_max":1272,"o":"m 1272 243 l 1272 -250 l 210 -250 l 210 243 l 1272 243 m 1036 -42 l 1036 35 l 446 35 l 446 -42 l 1036 -42 m 1272 1083 l 1272 299 l 1050 299 l 1050 564 l 967 564 l 967 299 l 744 299 l 744 1083 l 967 1083 l 967 786 l 1050 786 l 1050 1083 l 1272 1083 m 694 1069 q 526 550 681 749 q 76 326 371 351 l 76 563 q 305 635 207 572 q 444 833 403 699 l 132 833 l 132 1069 l 694 1069 z "},"갭":{"ha":1389,"x_min":76,"x_max":1272,"o":"m 1272 257 l 1272 -250 l 210 -250 l 210 271 l 446 271 l 446 188 l 1036 188 l 1036 257 l 1272 257 m 1036 -42 l 1036 7 l 446 7 l 446 -42 l 1036 -42 m 1272 1083 l 1272 299 l 1050 299 l 1050 564 l 967 564 l 967 299 l 744 299 l 744 1083 l 967 1083 l 967 786 l 1050 786 l 1050 1083 l 1272 1083 m 694 1069 q 526 550 681 749 q 76 326 371 351 l 76 563 q 305 635 207 572 q 444 833 403 699 l 132 833 l 132 1069 l 694 1069 z "},"갯":{"ha":1389,"x_min":76,"x_max":1272,"o":"m 263 -14 q 435 2 346 -14 q 574 49 524 18 q 635 133 610 71 q 660 247 660 194 l 896 247 q 853 42 896 149 l 1272 -25 l 1272 -264 l 836 -194 l 836 6 q 699 -151 782 -100 q 493 -226 615 -203 q 263 -250 371 -250 l 214 -250 l 214 -14 l 263 -14 m 1272 1083 l 1272 160 l 1050 160 l 1050 564 l 967 564 l 967 299 l 744 299 l 744 1083 l 967 1083 l 967 786 l 1050 786 l 1050 1083 l 1272 1083 m 694 1069 q 526 550 681 749 q 76 326 371 351 l 76 563 q 305 635 207 572 q 444 833 403 699 l 132 833 l 132 1069 l 694 1069 z "},"갰":{"ha":1389,"x_min":76,"x_max":1342,"o":"m 1342 -269 l 1114 -200 l 1114 -83 q 989 -211 1071 -160 q 800 -262 907 -262 q 536 -183 671 -262 q 405 -235 479 -221 q 235 -250 331 -250 l 186 -250 l 186 -14 l 235 -14 q 361 -4 317 -14 q 421 33 406 6 q 435 76 432 51 q 438 150 438 100 l 438 264 l 674 264 l 674 157 q 664 15 674 65 q 799 -25 739 -25 q 865 -9 838 -25 q 907 33 893 7 q 921 76 918 51 q 924 150 924 100 l 924 264 l 1160 264 l 1160 168 q 1153 35 1160 85 l 1342 -22 l 1342 -269 m 1272 1083 l 1272 299 l 1050 299 l 1050 564 l 967 564 l 967 299 l 744 299 l 744 1083 l 967 1083 l 967 786 l 1050 786 l 1050 1083 l 1272 1083 m 694 1069 q 526 550 681 749 q 76 326 371 351 l 76 563 q 305 635 207 572 q 444 833 403 699 l 132 833 l 132 1069 l 694 1069 z "},"갱":{"ha":1389,"x_min":76,"x_max":1272,"o":"m 767 -56 q 949 -53 900 -56 q 1017 -38 999 -50 q 1036 4 1036 -26 q 1019 47 1036 35 q 956 63 1001 60 q 796 65 911 65 l 714 65 q 566 62 608 65 q 508 47 524 58 q 492 4 492 35 q 511 -38 492 -26 q 581 -53 531 -50 q 767 -56 631 -56 m 767 -278 q 444 -239 557 -278 q 294 -139 332 -200 q 256 4 256 -78 q 294 149 256 88 q 444 249 332 210 q 767 288 557 288 q 1087 248 975 288 q 1235 147 1199 208 q 1272 4 1272 86 q 1235 -137 1272 -76 q 1087 -238 1199 -199 q 767 -278 975 -278 m 694 1069 q 526 550 681 749 q 76 326 371 351 l 76 563 q 305 635 207 572 q 444 833 403 699 l 132 833 l 132 1069 l 694 1069 m 1272 1083 l 1272 299 l 1050 299 l 1050 564 l 967 564 l 967 354 l 744 354 l 744 1083 l 967 1083 l 967 786 l 1050 786 l 1050 1083 l 1272 1083 z "},"갸":{"ha":1389,"x_min":76,"x_max":1217,"o":"m 875 1069 q 676 544 860 738 q 76 326 493 351 l 76 563 q 444 633 275 576 q 625 833 614 690 l 132 833 l 132 1069 l 875 1069 m 1217 1083 l 1217 -228 l 981 -228 l 981 1083 l 1217 1083 z "},"갹":{"ha":1389,"x_min":76,"x_max":1365,"o":"m 1217 -250 l 981 -250 l 981 -7 l 154 -7 l 154 229 l 1217 229 l 1217 -250 m 1217 1083 l 1217 299 l 981 299 l 981 1083 l 1217 1083 m 875 1069 q 676 544 860 738 q 76 326 493 351 l 76 563 q 444 633 275 576 q 625 833 614 690 l 132 833 l 132 1069 l 875 1069 z "},"갼":{"ha":1389,"x_min":76,"x_max":1365,"o":"m 210 271 l 446 271 l 446 -14 l 1286 -14 l 1286 -250 l 210 -250 l 210 271 m 1217 1083 l 1217 76 l 981 76 l 981 1083 l 1217 1083 m 875 1069 q 676 544 860 738 q 76 326 493 351 l 76 563 q 444 633 275 576 q 625 833 614 690 l 132 833 l 132 1069 l 875 1069 z "},"걀":{"ha":1389,"x_min":76,"x_max":1365,"o":"m 981 153 l 981 188 l 154 188 l 154 403 l 1217 403 l 1217 0 l 390 0 l 390 -35 l 1258 -35 l 1258 -250 l 154 -250 l 154 153 l 981 153 m 1217 1083 l 1217 451 l 981 451 l 981 1083 l 1217 1083 m 875 1083 q 791 712 865 850 q 547 503 717 574 q 76 424 376 433 l 76 660 q 301 673 179 658 q 520 730 424 688 q 625 847 617 772 l 132 847 l 132 1083 l 875 1083 m 1365 790 l 1217 790 l 1217 954 l 1365 954 l 1365 790 m 1365 569 l 1217 569 l 1217 733 l 1365 733 l 1365 569 z "},"걋":{"ha":1389,"x_min":76,"x_max":1365,"o":"m 1217 1082 l 1217 146 l 981 146 l 981 1082 l 1217 1082 m 207 -14 q 379 2 290 -14 q 518 49 468 18 q 579 133 554 71 q 604 247 604 194 l 840 247 q 797 42 840 149 l 1217 -25 l 1217 -264 l 781 -194 l 781 6 q 643 -151 726 -100 q 438 -226 560 -203 q 207 -250 315 -250 l 158 -250 l 158 -14 l 207 -14 m 875 1069 q 676 544 860 738 q 76 326 493 351 l 76 563 q 444 633 275 576 q 625 833 614 690 l 132 833 l 132 1069 l 875 1069 z "},"걍":{"ha":1389,"x_min":76,"x_max":1365,"o":"m 711 -56 q 894 -53 844 -56 q 962 -38 943 -50 q 981 4 981 -26 q 963 47 981 35 q 901 63 946 60 q 740 65 856 65 l 658 65 q 510 62 553 65 q 452 47 468 58 q 436 4 436 35 q 456 -38 436 -26 q 525 -53 475 -50 q 711 -56 575 -56 m 711 -278 q 389 -239 501 -278 q 238 -139 276 -200 q 200 4 200 -78 q 238 149 200 88 q 389 249 276 210 q 711 288 501 288 q 1031 248 919 288 q 1180 147 1143 208 q 1217 4 1217 86 q 1180 -137 1217 -76 q 1031 -238 1143 -199 q 711 -278 919 -278 m 1217 1083 l 1217 299 l 981 299 l 981 1083 l 1217 1083 m 875 1069 q 676 544 860 738 q 76 326 493 351 l 76 563 q 444 633 275 576 q 625 833 614 690 l 132 833 l 132 1069 l 875 1069 z "},"걔":{"ha":1389,"x_min":76,"x_max":1272,"o":"m 694 1069 q 526 550 681 749 q 76 326 371 351 l 76 563 q 305 635 207 572 q 444 833 403 699 l 132 833 l 132 1069 l 694 1069 m 1272 1083 l 1272 -229 l 1050 -229 l 1050 383 l 967 383 l 967 104 l 744 104 l 744 1083 l 967 1083 l 967 897 l 1050 897 l 1050 1083 l 1272 1083 m 1050 606 l 1050 675 l 967 675 l 967 606 l 1050 606 z "},"걘":{"ha":1389,"x_min":76,"x_max":1342,"o":"m 265 271 l 501 271 l 501 -14 l 1342 -14 l 1342 -250 l 265 -250 l 265 271 m 1272 1083 l 1272 161 l 1050 161 l 1050 383 l 967 383 l 967 161 l 744 161 l 744 1083 l 967 1083 l 967 897 l 1050 897 l 1050 1083 l 1272 1083 m 694 1069 q 526 550 681 749 q 76 326 371 351 l 76 563 q 305 635 207 572 q 444 833 403 699 l 132 833 l 132 1069 l 694 1069 m 1050 606 l 1050 675 l 967 675 l 967 606 l 1050 606 z "},"걜":{"ha":1389,"x_min":76,"x_max":1314,"o":"m 1036 153 l 1036 188 l 210 188 l 210 403 l 1272 403 l 1272 0 l 446 0 l 446 -35 l 1314 -35 l 1314 -250 l 210 -250 l 210 153 l 1036 153 m 1272 1083 l 1272 447 l 1050 447 l 1050 546 l 967 546 l 967 447 l 744 447 l 744 1083 l 967 1083 l 967 994 l 1050 994 l 1050 1083 l 1272 1083 m 694 1069 q 617 706 686 844 q 417 498 549 568 q 76 410 285 428 l 76 646 q 313 694 221 656 q 444 833 404 732 l 132 833 l 132 1069 l 694 1069 m 1050 740 l 1050 800 l 967 800 l 967 740 l 1050 740 z "},"걥":{"ha":1389,"x_min":76,"x_max":1272,"o":"m 1272 257 l 1272 -250 l 210 -250 l 210 271 l 446 271 l 446 188 l 1036 188 l 1036 257 l 1272 257 m 1036 -42 l 1036 7 l 446 7 l 446 -42 l 1036 -42 m 1272 1083 l 1272 299 l 1050 299 l 1050 425 l 967 425 l 967 299 l 744 299 l 744 1083 l 967 1083 l 967 939 l 1050 939 l 1050 1083 l 1272 1083 m 694 1069 q 526 550 681 749 q 76 326 371 351 l 76 563 q 305 635 207 572 q 444 833 403 699 l 132 833 l 132 1069 l 694 1069 m 1050 647 l 1050 717 l 967 717 l 967 647 l 1050 647 z "},"거":{"ha":1389,"x_min":76,"x_max":1217,"o":"m 875 1069 q 842 842 868 939 l 981 842 l 981 1083 l 1217 1083 l 1217 -228 l 981 -228 l 981 619 l 740 619 q 76 326 550 354 l 76 563 q 444 633 275 576 q 625 833 614 690 l 132 833 l 132 1069 l 875 1069 z "},"걱":{"ha":1389,"x_min":76,"x_max":1217,"o":"m 1217 -250 l 981 -250 l 981 -7 l 154 -7 l 154 229 l 1217 229 l 1217 -250 m 1217 1083 l 1217 299 l 981 299 l 981 619 l 740 619 q 76 326 550 354 l 76 563 q 444 633 275 576 q 625 833 614 690 l 132 833 l 132 1069 l 875 1069 q 842 842 868 939 l 981 842 l 981 1083 l 1217 1083 z "},"건":{"ha":1389,"x_min":76,"x_max":1286,"o":"m 210 271 l 446 271 l 446 -14 l 1286 -14 l 1286 -250 l 210 -250 l 210 271 m 1217 1083 l 1217 76 l 981 76 l 981 619 l 740 619 q 76 326 550 354 l 76 563 q 444 633 275 576 q 625 833 614 690 l 132 833 l 132 1069 l 875 1069 q 842 842 868 939 l 981 842 l 981 1083 l 1217 1083 z "},"걷":{"ha":1389,"x_min":76,"x_max":1217,"o":"m 1217 243 l 1217 35 l 390 35 l 390 -42 l 1217 -42 l 1217 -250 l 154 -250 l 154 243 l 1217 243 m 1217 1083 l 1217 299 l 981 299 l 981 619 l 740 619 q 76 326 550 354 l 76 563 q 444 633 275 576 q 625 833 614 690 l 132 833 l 132 1069 l 875 1069 q 842 842 868 939 l 981 842 l 981 1083 l 1217 1083 z "},"걸":{"ha":1389,"x_min":76,"x_max":1258,"o":"m 981 153 l 981 188 l 154 188 l 154 403 l 1217 403 l 1217 0 l 390 0 l 390 -35 l 1258 -35 l 1258 -250 l 154 -250 l 154 153 l 981 153 m 1217 1083 l 1217 451 l 981 451 l 981 619 l 724 619 q 478 479 635 526 q 76 424 321 432 l 76 660 q 301 673 179 658 q 520 730 424 688 q 625 847 617 772 l 132 847 l 132 1083 l 875 1083 q 842 842 868 939 l 981 842 l 981 1083 l 1217 1083 z "},"걺":{"ha":1389,"x_min":76,"x_max":1244,"o":"m 154 139 l 411 139 l 411 174 l 154 174 l 154 375 l 647 375 l 647 -14 l 390 -14 l 390 -49 l 696 -49 l 696 375 l 1217 375 l 1217 -28 l 1244 -28 l 1244 -250 l 154 -250 l 154 139 m 994 -28 l 994 153 l 918 153 l 918 -28 l 994 -28 m 1217 1083 l 1217 451 l 981 451 l 981 619 l 724 619 q 478 479 635 526 q 76 424 321 432 l 76 660 q 301 673 179 658 q 520 730 424 688 q 625 847 617 772 l 132 847 l 132 1083 l 875 1083 q 842 842 868 939 l 981 842 l 981 1083 l 1217 1083 z "},"검":{"ha":1389,"x_min":76,"x_max":1217,"o":"m 1217 243 l 1217 -250 l 154 -250 l 154 243 l 1217 243 m 981 -42 l 981 35 l 390 35 l 390 -42 l 981 -42 m 1217 1083 l 1217 299 l 981 299 l 981 619 l 740 619 q 76 326 550 354 l 76 563 q 444 633 275 576 q 625 833 614 690 l 132 833 l 132 1069 l 875 1069 q 842 842 868 939 l 981 842 l 981 1083 l 1217 1083 z "},"겁":{"ha":1389,"x_min":76,"x_max":1217,"o":"m 1217 257 l 1217 -250 l 154 -250 l 154 271 l 390 271 l 390 188 l 981 188 l 981 257 l 1217 257 m 981 -42 l 981 7 l 390 7 l 390 -42 l 981 -42 m 1217 1083 l 1217 299 l 981 299 l 981 619 l 740 619 q 76 326 550 354 l 76 563 q 444 633 275 576 q 625 833 614 690 l 132 833 l 132 1069 l 875 1069 q 842 842 868 939 l 981 842 l 981 1083 l 1217 1083 z "},"겂":{"ha":1389,"x_min":76,"x_max":1286,"o":"m 688 263 l 688 -14 l 693 -14 q 819 -4 775 -14 q 879 33 864 6 q 893 76 890 51 q 896 150 896 100 l 896 264 l 1132 264 l 1132 172 q 1124 28 1132 79 l 1286 -22 l 1286 -269 l 1058 -200 l 1058 -125 q 910 -224 1000 -197 q 693 -250 819 -250 l 688 -250 l 644 -250 l 140 -250 l 140 263 l 363 263 l 363 188 l 465 188 l 465 263 l 688 263 m 465 -56 l 465 21 l 363 21 l 363 -56 l 465 -56 m 1217 1083 l 1217 299 l 981 299 l 981 619 l 740 619 q 76 326 550 354 l 76 563 q 444 633 275 576 q 625 833 614 690 l 132 833 l 132 1069 l 875 1069 q 842 842 868 939 l 981 842 l 981 1083 l 1217 1083 z "},"것":{"ha":1389,"x_min":76,"x_max":1217,"o":"m 1217 1082 l 1217 146 l 981 146 l 981 619 l 740 619 q 76 326 550 354 l 76 563 q 444 633 275 576 q 625 833 614 690 l 132 833 l 132 1069 l 875 1069 q 842 842 868 939 l 981 842 l 981 1082 l 1217 1082 m 207 -14 q 379 2 290 -14 q 518 49 468 18 q 579 133 554 71 q 604 247 604 194 l 840 247 q 797 42 840 149 l 1217 -25 l 1217 -264 l 781 -194 l 781 6 q 643 -151 726 -100 q 438 -226 560 -203 q 207 -250 315 -250 l 158 -250 l 158 -14 l 207 -14 z "},"겄":{"ha":1389,"x_min":76,"x_max":1286,"o":"m 1286 -269 l 1058 -200 l 1058 -83 q 933 -211 1015 -160 q 744 -262 851 -262 q 481 -183 615 -262 q 349 -235 424 -221 q 179 -250 275 -250 l 131 -250 l 131 -14 l 179 -14 q 306 -4 261 -14 q 365 33 350 6 q 379 76 376 51 q 382 150 382 100 l 382 264 l 618 264 l 618 157 q 608 15 618 65 q 743 -25 683 -25 q 810 -9 782 -25 q 851 33 838 7 q 865 76 863 51 q 868 150 868 100 l 868 264 l 1104 264 l 1104 168 q 1097 35 1104 85 l 1286 -22 l 1286 -269 m 1217 1083 l 1217 299 l 981 299 l 981 619 l 740 619 q 76 326 550 354 l 76 563 q 444 633 275 576 q 625 833 614 690 l 132 833 l 132 1069 l 875 1069 q 842 842 868 939 l 981 842 l 981 1083 l 1217 1083 z "},"겅":{"ha":1389,"x_min":76,"x_max":1217,"o":"m 711 -56 q 894 -53 844 -56 q 962 -38 943 -50 q 981 4 981 -26 q 963 47 981 35 q 901 63 946 60 q 740 65 856 65 l 658 65 q 510 62 553 65 q 452 47 468 58 q 436 4 436 35 q 456 -38 436 -26 q 525 -53 475 -50 q 711 -56 575 -56 m 711 -278 q 389 -239 501 -278 q 238 -139 276 -200 q 200 4 200 -78 q 238 149 200 88 q 389 249 276 210 q 711 288 501 288 q 1031 248 919 288 q 1180 147 1143 208 q 1217 4 1217 86 q 1180 -137 1217 -76 q 1031 -238 1143 -199 q 711 -278 919 -278 m 1217 1083 l 1217 299 l 981 299 l 981 619 l 740 619 q 76 326 550 354 l 76 563 q 444 633 275 576 q 625 833 614 690 l 132 833 l 132 1069 l 875 1069 q 842 842 868 939 l 981 842 l 981 1083 l 1217 1083 z "},"겆":{"ha":1389,"x_min":76,"x_max":1217,"o":"m 249 -14 q 395 1 325 -14 q 518 49 465 17 q 539 67 531 56 l 200 67 l 200 254 l 1217 254 l 1217 67 l 807 67 l 788 22 l 1217 -65 l 1217 -279 l 739 -182 l 739 -61 q 643 -151 699 -117 q 456 -227 558 -204 q 249 -250 353 -250 l 144 -250 l 144 -14 l 249 -14 m 1217 1083 l 1217 299 l 981 299 l 981 619 l 740 619 q 76 326 550 354 l 76 563 q 444 633 275 576 q 625 833 614 690 l 132 833 l 132 1069 l 875 1069 q 842 842 868 939 l 981 842 l 981 1083 l 1217 1083 z "},"겉":{"ha":1389,"x_min":76,"x_max":1217,"o":"m 1217 375 l 1217 174 l 460 174 l 460 139 l 1175 139 l 1175 -14 l 460 -14 l 460 -49 l 1217 -49 l 1217 -250 l 224 -250 l 224 375 l 1217 375 m 1217 1083 l 1217 451 l 981 451 l 981 619 l 724 619 q 478 479 635 526 q 76 424 321 432 l 76 660 q 301 673 179 658 q 520 730 424 688 q 625 847 617 772 l 132 847 l 132 1083 l 875 1083 q 842 842 868 939 l 981 842 l 981 1083 l 1217 1083 z "},"겊":{"ha":1389,"x_min":76,"x_max":1217,"o":"m 201 375 l 1217 375 l 1217 167 l 1075 167 q 1025 -42 1057 51 l 1217 -42 l 1217 -250 l 201 -250 l 201 -42 l 372 -42 q 340 94 340 60 l 556 136 q 560 52 556 110 q 572 -42 565 -6 l 821 -42 q 874 167 842 28 l 201 167 l 201 375 m 1217 1083 l 1217 451 l 981 451 l 981 619 l 724 619 q 478 479 635 526 q 76 424 321 432 l 76 660 q 301 673 179 658 q 520 730 424 688 q 625 847 617 772 l 132 847 l 132 1083 l 875 1083 q 842 842 868 939 l 981 842 l 981 1083 l 1217 1083 z "},"겋":{"ha":1389,"x_min":76,"x_max":1217,"o":"m 1217 104 l 1114 104 q 1128 11 1128 63 q 1024 -206 1128 -124 q 689 -289 919 -289 q 349 -206 454 -289 q 244 11 244 -124 q 258 104 244 61 l 156 104 l 156 299 l 557 299 l 568 300 l 568 389 l 804 389 l 804 300 l 819 299 l 1217 299 l 1217 104 m 689 -81 q 869 -57 819 -81 q 919 11 919 -33 q 869 76 919 54 q 689 99 819 99 q 503 76 554 99 q 453 11 453 54 q 503 -57 453 -33 q 689 -81 554 -81 m 1217 1083 l 1217 382 l 981 382 l 981 619 l 724 619 q 478 479 635 526 q 76 424 321 432 l 76 660 q 301 673 179 658 q 520 730 424 688 q 625 847 617 772 l 132 847 l 132 1083 l 875 1083 q 842 842 868 939 l 981 842 l 981 1083 l 1217 1083 z "},"게":{"ha":1389,"x_min":76,"x_max":1272,"o":"m 694 1069 q 667 856 690 958 l 744 856 l 744 1083 l 967 1083 l 967 104 l 744 104 l 744 633 l 582 633 q 379 421 506 500 q 76 326 253 342 l 76 563 q 305 635 207 572 q 444 833 403 699 l 132 833 l 132 1069 l 694 1069 m 1272 1083 l 1272 -229 l 1050 -229 l 1050 1083 l 1272 1083 z "},"겍":{"ha":1389,"x_min":76,"x_max":1272,"o":"m 1272 -250 l 1036 -250 l 1036 -7 l 210 -7 l 210 229 l 1272 229 l 1272 -250 m 1272 1083 l 1272 299 l 1050 299 l 1050 1083 l 1272 1083 m 967 1083 l 967 299 l 744 299 l 744 633 l 582 633 q 379 421 506 500 q 76 326 253 342 l 76 563 q 305 635 207 572 q 444 833 403 699 l 132 833 l 132 1069 l 694 1069 q 667 856 690 958 l 744 856 l 744 1083 l 967 1083 z "},"겐":{"ha":1389,"x_min":76,"x_max":1342,"o":"m 265 271 l 501 271 l 501 -14 l 1342 -14 l 1342 -250 l 265 -250 l 265 271 m 1272 1083 l 1272 161 l 1050 161 l 1050 1083 l 1272 1083 m 967 1083 l 967 161 l 744 161 l 744 633 l 582 633 q 379 421 506 500 q 76 326 253 342 l 76 563 q 305 635 207 572 q 444 833 403 699 l 132 833 l 132 1069 l 694 1069 q 667 856 690 958 l 744 856 l 744 1083 l 967 1083 z "},"겔":{"ha":1389,"x_min":76,"x_max":1314,"o":"m 1036 153 l 1036 188 l 210 188 l 210 403 l 1272 403 l 1272 0 l 446 0 l 446 -35 l 1314 -35 l 1314 -250 l 210 -250 l 210 153 l 1036 153 m 1272 1083 l 1272 447 l 1050 447 l 1050 1083 l 1272 1083 m 967 1083 l 967 447 l 744 447 l 744 633 l 574 633 q 378 478 500 532 q 76 410 256 425 l 76 646 q 313 694 221 656 q 444 833 404 732 l 132 833 l 132 1069 l 694 1069 q 668 856 690 957 l 744 856 l 744 1083 l 967 1083 z "},"겜":{"ha":1389,"x_min":76,"x_max":1272,"o":"m 1272 243 l 1272 -250 l 210 -250 l 210 243 l 1272 243 m 1036 -42 l 1036 35 l 446 35 l 446 -42 l 1036 -42 m 1272 1083 l 1272 299 l 1050 299 l 1050 1083 l 1272 1083 m 967 1083 l 967 299 l 744 299 l 744 633 l 582 633 q 379 421 506 500 q 76 326 253 342 l 76 563 q 305 635 207 572 q 444 833 403 699 l 132 833 l 132 1069 l 694 1069 q 667 856 690 958 l 744 856 l 744 1083 l 967 1083 z "},"겝":{"ha":1389,"x_min":76,"x_max":1272,"o":"m 1272 257 l 1272 -250 l 210 -250 l 210 271 l 446 271 l 446 188 l 1036 188 l 1036 257 l 1272 257 m 1036 -42 l 1036 7 l 446 7 l 446 -42 l 1036 -42 m 1272 1083 l 1272 299 l 1050 299 l 1050 1083 l 1272 1083 m 967 1083 l 967 299 l 744 299 l 744 633 l 582 633 q 379 421 506 500 q 76 326 253 342 l 76 563 q 305 635 207 572 q 444 833 403 699 l 132 833 l 132 1069 l 694 1069 q 667 856 690 958 l 744 856 l 744 1083 l 967 1083 z "},"겟":{"ha":1389,"x_min":76,"x_max":1272,"o":"m 263 -14 q 435 2 346 -14 q 574 49 524 18 q 635 133 610 71 q 660 247 660 194 l 896 247 q 853 42 896 149 l 1272 -25 l 1272 -264 l 836 -194 l 836 6 q 699 -151 782 -100 q 493 -226 615 -203 q 263 -250 371 -250 l 214 -250 l 214 -14 l 263 -14 m 1272 1083 l 1272 160 l 1050 160 l 1050 1083 l 1272 1083 m 967 1083 l 967 299 l 744 299 l 744 633 l 582 633 q 379 421 506 500 q 76 326 253 342 l 76 563 q 305 635 207 572 q 444 833 403 699 l 132 833 l 132 1069 l 694 1069 q 667 856 690 958 l 744 856 l 744 1083 l 967 1083 z "},"겠":{"ha":1389,"x_min":76,"x_max":1342,"o":"m 1342 -269 l 1114 -200 l 1114 -83 q 989 -211 1071 -160 q 800 -262 907 -262 q 536 -183 671 -262 q 405 -235 479 -221 q 235 -250 331 -250 l 186 -250 l 186 -14 l 235 -14 q 361 -4 317 -14 q 421 33 406 6 q 435 76 432 51 q 438 150 438 100 l 438 264 l 674 264 l 674 157 q 664 15 674 65 q 799 -25 739 -25 q 865 -9 838 -25 q 907 33 893 7 q 921 76 918 51 q 924 150 924 100 l 924 264 l 1160 264 l 1160 168 q 1153 35 1160 85 l 1342 -22 l 1342 -269 m 1272 1083 l 1272 299 l 1050 299 l 1050 1083 l 1272 1083 m 967 1083 l 967 299 l 744 299 l 744 633 l 582 633 q 379 421 506 500 q 76 326 253 342 l 76 563 q 305 635 207 572 q 444 833 403 699 l 132 833 l 132 1069 l 694 1069 q 667 856 690 958 l 744 856 l 744 1083 l 967 1083 z "},"겡":{"ha":1389,"x_min":76,"x_max":1272,"o":"m 767 -56 q 949 -53 900 -56 q 1017 -38 999 -50 q 1036 4 1036 -26 q 1019 47 1036 35 q 956 63 1001 60 q 796 65 911 65 l 714 65 q 566 62 608 65 q 508 47 524 58 q 492 4 492 35 q 511 -38 492 -26 q 581 -53 531 -50 q 767 -56 631 -56 m 767 -278 q 444 -239 557 -278 q 294 -139 332 -200 q 256 4 256 -78 q 294 149 256 88 q 444 249 332 210 q 767 288 557 288 q 1087 248 975 288 q 1235 147 1199 208 q 1272 4 1272 86 q 1235 -137 1272 -76 q 1087 -238 1199 -199 q 767 -278 975 -278 m 694 1069 q 667 856 690 958 l 744 856 l 744 1083 l 967 1083 l 967 354 l 744 354 l 744 633 l 582 633 q 379 421 506 500 q 76 326 253 342 l 76 563 q 305 635 207 572 q 444 833 403 699 l 132 833 l 132 1069 l 694 1069 m 1272 1083 l 1272 299 l 1050 299 l 1050 1083 l 1272 1083 z "},"겨":{"ha":1389,"x_min":76,"x_max":1217,"o":"m 875 1069 q 863 939 872 1001 l 981 939 l 981 1083 l 1217 1083 l 1217 -228 l 981 -228 l 981 451 l 701 451 l 701 571 q 76 326 504 351 l 76 563 q 444 633 275 576 q 625 833 614 690 l 132 833 l 132 1069 l 875 1069 m 981 654 l 981 738 l 807 738 q 764 654 786 690 l 981 654 z "},"격":{"ha":1389,"x_min":76,"x_max":1217,"o":"m 1217 -250 l 981 -250 l 981 -7 l 154 -7 l 154 229 l 1217 229 l 1217 -250 m 1217 1083 l 1217 299 l 981 299 l 981 451 l 701 451 l 701 571 q 76 326 504 351 l 76 563 q 444 633 275 576 q 625 833 614 690 l 132 833 l 132 1069 l 875 1069 q 863 939 872 1001 l 981 939 l 981 1083 l 1217 1083 m 981 654 l 981 738 l 807 738 q 764 654 786 690 l 981 654 z "},"겪":{"ha":1389,"x_min":76,"x_max":1217,"o":"m 536 -250 l 300 -250 l 300 -4 l 154 -4 l 154 229 l 536 229 l 536 -250 m 1217 -250 l 981 -250 l 981 -4 l 585 -4 l 585 229 l 1217 229 l 1217 -250 m 1217 1083 l 1217 299 l 981 299 l 981 451 l 701 451 l 701 571 q 76 326 504 351 l 76 563 q 444 633 275 576 q 625 833 614 690 l 132 833 l 132 1069 l 875 1069 q 863 939 872 1001 l 981 939 l 981 1083 l 1217 1083 m 981 654 l 981 738 l 807 738 q 764 654 786 690 l 981 654 z "},"견":{"ha":1389,"x_min":76,"x_max":1286,"o":"m 210 271 l 446 271 l 446 -14 l 1286 -14 l 1286 -250 l 210 -250 l 210 271 m 1217 1083 l 1217 76 l 981 76 l 981 451 l 701 451 l 701 571 q 76 326 504 351 l 76 563 q 444 633 275 576 q 625 833 614 690 l 132 833 l 132 1069 l 875 1069 q 863 939 872 1001 l 981 939 l 981 1083 l 1217 1083 m 981 654 l 981 738 l 807 738 q 764 654 786 690 l 981 654 z "},"겯":{"ha":1389,"x_min":76,"x_max":1217,"o":"m 1217 243 l 1217 35 l 390 35 l 390 -42 l 1217 -42 l 1217 -250 l 154 -250 l 154 243 l 1217 243 m 1217 1083 l 1217 299 l 981 299 l 981 451 l 701 451 l 701 571 q 76 326 504 351 l 76 563 q 444 633 275 576 q 625 833 614 690 l 132 833 l 132 1069 l 875 1069 q 863 939 872 1001 l 981 939 l 981 1083 l 1217 1083 m 981 654 l 981 738 l 807 738 q 764 654 786 690 l 981 654 z "},"결":{"ha":1389,"x_min":76,"x_max":1258,"o":"m 981 153 l 981 188 l 154 188 l 154 403 l 1217 403 l 1217 0 l 390 0 l 390 -35 l 1258 -35 l 1258 -250 l 154 -250 l 154 153 l 981 153 m 1217 1083 l 1217 451 l 981 451 l 981 535 l 701 535 l 701 599 q 459 474 610 515 q 76 424 308 432 l 76 660 q 301 673 179 658 q 520 730 424 688 q 625 847 617 772 l 132 847 l 132 1083 l 875 1083 l 871 1022 l 981 1022 l 981 1083 l 1217 1083 m 981 738 l 981 821 l 836 821 q 804 738 825 781 l 981 738 z "},"겷":{"ha":1389,"x_min":76,"x_max":1253,"o":"m 244 139 l 244 174 l 113 174 l 113 375 l 481 375 l 481 -14 l 335 -14 l 335 -49 l 564 -49 l 564 -250 l 113 -250 l 113 139 l 244 139 m 1253 160 l 1165 160 q 1196 18 1196 94 q 1158 -139 1196 -71 q 1051 -244 1121 -207 q 886 -282 981 -282 q 711 -240 782 -282 q 607 -131 640 -199 q 574 18 574 -62 q 606 160 574 97 l 515 160 l 515 354 l 767 354 l 767 417 l 1003 417 l 1003 354 l 1253 354 l 1253 160 m 886 -60 q 955 -42 936 -60 q 974 18 974 -25 q 955 75 974 58 q 886 92 936 92 q 815 76 835 92 q 796 18 796 60 q 815 -42 796 -25 q 886 -60 835 -60 m 1217 1083 l 1217 451 l 981 451 l 981 1083 l 1217 1083 m 875 1083 q 791 712 865 850 q 547 503 717 574 q 76 424 376 433 l 76 660 q 301 673 179 658 q 520 730 424 688 q 625 847 617 772 l 132 847 l 132 1083 l 875 1083 z "},"겸":{"ha":1389,"x_min":76,"x_max":1217,"o":"m 1217 243 l 1217 -250 l 154 -250 l 154 243 l 1217 243 m 981 -42 l 981 35 l 390 35 l 390 -42 l 981 -42 m 1217 1083 l 1217 299 l 981 299 l 981 451 l 701 451 l 701 571 q 76 326 504 351 l 76 563 q 444 633 275 576 q 625 833 614 690 l 132 833 l 132 1069 l 875 1069 q 863 939 872 1001 l 981 939 l 981 1083 l 1217 1083 m 981 654 l 981 738 l 807 738 q 764 654 786 690 l 981 654 z "},"겹":{"ha":1389,"x_min":76,"x_max":1217,"o":"m 1217 257 l 1217 -250 l 154 -250 l 154 271 l 390 271 l 390 188 l 981 188 l 981 257 l 1217 257 m 981 -42 l 981 7 l 390 7 l 390 -42 l 981 -42 m 1217 1083 l 1217 299 l 981 299 l 981 451 l 701 451 l 701 571 q 76 326 504 351 l 76 563 q 444 633 275 576 q 625 833 614 690 l 132 833 l 132 1069 l 875 1069 q 863 939 872 1001 l 981 939 l 981 1083 l 1217 1083 m 981 654 l 981 738 l 807 738 q 764 654 786 690 l 981 654 z "},"겻":{"ha":1389,"x_min":76,"x_max":1217,"o":"m 1217 1082 l 1217 146 l 981 146 l 981 451 l 701 451 l 701 571 q 76 326 504 351 l 76 563 q 444 633 275 576 q 625 833 614 690 l 132 833 l 132 1069 l 875 1069 q 863 939 872 1001 l 981 939 l 981 1082 l 1217 1082 m 207 -14 q 379 2 290 -14 q 518 49 468 18 q 579 133 554 71 q 604 247 604 194 l 840 247 q 797 42 840 149 l 1217 -25 l 1217 -264 l 781 -194 l 781 6 q 643 -151 726 -100 q 438 -226 560 -203 q 207 -250 315 -250 l 158 -250 l 158 -14 l 207 -14 m 981 654 l 981 738 l 807 738 q 764 654 786 690 l 981 654 z "},"겼":{"ha":1389,"x_min":76,"x_max":1286,"o":"m 1286 -269 l 1058 -200 l 1058 -83 q 933 -211 1015 -160 q 744 -262 851 -262 q 481 -183 615 -262 q 349 -235 424 -221 q 179 -250 275 -250 l 131 -250 l 131 -14 l 179 -14 q 306 -4 261 -14 q 365 33 350 6 q 379 76 376 51 q 382 150 382 100 l 382 264 l 618 264 l 618 157 q 608 15 618 65 q 743 -25 683 -25 q 810 -9 782 -25 q 851 33 838 7 q 865 76 863 51 q 868 150 868 100 l 868 264 l 1104 264 l 1104 168 q 1097 35 1104 85 l 1286 -22 l 1286 -269 m 1217 1083 l 1217 299 l 981 299 l 981 451 l 701 451 l 701 571 q 76 326 504 351 l 76 563 q 444 633 275 576 q 625 833 614 690 l 132 833 l 132 1069 l 875 1069 q 863 939 872 1001 l 981 939 l 981 1083 l 1217 1083 m 981 654 l 981 738 l 807 738 q 764 654 786 690 l 981 654 z "},"경":{"ha":1389,"x_min":76,"x_max":1217,"o":"m 711 -56 q 894 -53 844 -56 q 962 -38 943 -50 q 981 4 981 -26 q 963 47 981 35 q 901 63 946 60 q 740 65 856 65 l 658 65 q 510 62 553 65 q 452 47 468 58 q 436 4 436 35 q 456 -38 436 -26 q 525 -53 475 -50 q 711 -56 575 -56 m 711 -278 q 389 -239 501 -278 q 238 -139 276 -200 q 200 4 200 -78 q 238 149 200 88 q 389 249 276 210 q 711 288 501 288 q 1031 248 919 288 q 1180 147 1143 208 q 1217 4 1217 86 q 1180 -137 1217 -76 q 1031 -238 1143 -199 q 711 -278 919 -278 m 1217 1083 l 1217 299 l 981 299 l 981 451 l 701 451 l 701 571 q 76 326 504 351 l 76 563 q 444 633 275 576 q 625 833 614 690 l 132 833 l 132 1069 l 875 1069 q 863 939 872 1001 l 981 939 l 981 1083 l 1217 1083 m 981 654 l 981 738 l 807 738 q 764 654 786 690 l 981 654 z "},"겿":{"ha":1389,"x_min":76,"x_max":1217,"o":"m 249 -35 l 304 -35 q 434 -28 383 -35 q 522 1 485 -21 q 551 39 535 8 l 200 39 l 200 226 l 606 226 q 611 296 611 279 l 833 296 q 829 226 833 264 l 1217 226 l 1217 39 l 790 39 l 785 22 l 1217 -65 l 1217 -279 l 739 -182 l 739 -76 q 639 -187 697 -151 q 491 -244 569 -231 q 317 -257 413 -257 l 249 -257 l 158 -257 l 158 -35 l 249 -35 m 1217 1083 l 1217 299 l 981 299 l 981 451 l 701 451 l 701 571 q 76 326 504 351 l 76 563 q 444 633 275 576 q 625 833 614 690 l 132 833 l 132 1069 l 875 1069 q 863 939 872 1001 l 981 939 l 981 1083 l 1217 1083 m 981 654 l 981 738 l 807 738 q 764 654 786 690 l 981 654 z "},"곁":{"ha":1389,"x_min":76,"x_max":1217,"o":"m 1217 375 l 1217 174 l 460 174 l 460 139 l 1175 139 l 1175 -14 l 460 -14 l 460 -49 l 1217 -49 l 1217 -250 l 224 -250 l 224 375 l 1217 375 m 1217 1083 l 1217 451 l 981 451 l 981 535 l 701 535 l 701 599 q 459 474 610 515 q 76 424 308 432 l 76 660 q 301 673 179 658 q 520 730 424 688 q 625 847 617 772 l 132 847 l 132 1083 l 875 1083 l 871 1022 l 981 1022 l 981 1083 l 1217 1083 m 981 738 l 981 821 l 836 821 q 804 738 825 781 l 981 738 z "},"계":{"ha":1389,"x_min":76,"x_max":1272,"o":"m 694 1069 q 675 897 690 983 l 744 897 l 744 1083 l 967 1083 l 967 104 l 744 104 l 744 500 l 594 500 l 594 656 q 390 426 519 511 q 76 326 260 342 l 76 563 q 305 635 207 572 q 444 833 403 699 l 132 833 l 132 1069 l 694 1069 m 1272 1083 l 1272 -229 l 1050 -229 l 1050 1083 l 1272 1083 m 744 661 l 744 736 l 631 736 q 597 661 617 697 l 744 661 z "},"곈":{"ha":1389,"x_min":76,"x_max":1342,"o":"m 265 271 l 501 271 l 501 -14 l 1342 -14 l 1342 -250 l 265 -250 l 265 271 m 1272 1083 l 1272 161 l 1050 161 l 1050 1083 l 1272 1083 m 967 1083 l 967 161 l 744 161 l 744 500 l 594 500 l 594 656 q 390 426 519 511 q 76 326 260 342 l 76 563 q 305 635 207 572 q 444 833 403 699 l 132 833 l 132 1069 l 694 1069 q 675 897 690 983 l 744 897 l 744 1083 l 967 1083 m 744 661 l 744 736 l 631 736 q 597 661 617 697 l 744 661 z "},"곌":{"ha":1389,"x_min":76,"x_max":1314,"o":"m 1036 153 l 1036 188 l 210 188 l 210 403 l 1272 403 l 1272 0 l 446 0 l 446 -35 l 1314 -35 l 1314 -250 l 210 -250 l 210 153 l 1036 153 m 1272 1083 l 1272 447 l 1050 447 l 1050 1083 l 1272 1083 m 967 1083 l 967 447 l 744 447 l 744 569 l 594 569 l 594 665 q 397 486 524 547 q 76 410 269 425 l 76 646 q 313 694 221 656 q 444 833 404 732 l 132 833 l 132 1069 l 694 1069 q 686 967 692 1014 l 744 967 l 744 1083 l 967 1083 m 744 731 l 744 806 l 656 806 q 628 731 640 757 l 744 731 z "},"곕":{"ha":1389,"x_min":76,"x_max":1272,"o":"m 1272 257 l 1272 -250 l 210 -250 l 210 271 l 446 271 l 446 188 l 1036 188 l 1036 257 l 1272 257 m 1036 -42 l 1036 7 l 446 7 l 446 -42 l 1036 -42 m 1272 1083 l 1272 299 l 1050 299 l 1050 1083 l 1272 1083 m 967 1083 l 967 299 l 744 299 l 744 500 l 594 500 l 594 656 q 390 426 519 511 q 76 326 260 342 l 76 563 q 305 635 207 572 q 444 833 403 699 l 132 833 l 132 1069 l 694 1069 q 675 897 690 983 l 744 897 l 744 1083 l 967 1083 m 744 661 l 744 736 l 631 736 q 597 661 617 697 l 744 661 z "},"곗":{"ha":1389,"x_min":76,"x_max":1272,"o":"m 263 -14 q 435 2 346 -14 q 574 49 524 18 q 635 133 610 71 q 660 247 660 194 l 896 247 q 853 42 896 149 l 1272 -25 l 1272 -264 l 836 -194 l 836 6 q 699 -151 782 -100 q 493 -226 615 -203 q 263 -250 371 -250 l 214 -250 l 214 -14 l 263 -14 m 1272 1083 l 1272 160 l 1050 160 l 1050 1083 l 1272 1083 m 967 1083 l 967 299 l 744 299 l 744 500 l 594 500 l 594 656 q 390 426 519 511 q 76 326 260 342 l 76 563 q 305 635 207 572 q 444 833 403 699 l 132 833 l 132 1069 l 694 1069 q 675 897 690 983 l 744 897 l 744 1083 l 967 1083 m 744 661 l 744 736 l 631 736 q 597 661 617 697 l 744 661 z "},"곘":{"ha":1389,"x_min":76,"x_max":1342,"o":"m 1342 -269 l 1114 -200 l 1114 -83 q 989 -211 1071 -160 q 800 -262 907 -262 q 536 -183 671 -262 q 405 -235 479 -221 q 235 -250 331 -250 l 186 -250 l 186 -14 l 235 -14 q 361 -4 317 -14 q 421 33 406 6 q 435 76 432 51 q 438 150 438 100 l 438 264 l 674 264 l 674 157 q 664 15 674 65 q 799 -25 739 -25 q 865 -9 838 -25 q 907 33 893 7 q 921 76 918 51 q 924 150 924 100 l 924 264 l 1160 264 l 1160 168 q 1153 35 1160 85 l 1342 -22 l 1342 -269 m 1272 1083 l 1272 299 l 1050 299 l 1050 1083 l 1272 1083 m 967 1083 l 967 299 l 744 299 l 744 500 l 594 500 l 594 656 q 390 426 519 511 q 76 326 260 342 l 76 563 q 305 635 207 572 q 444 833 403 699 l 132 833 l 132 1069 l 694 1069 q 675 897 690 983 l 744 897 l 744 1083 l 967 1083 m 744 661 l 744 736 l 631 736 q 597 661 617 697 l 744 661 z "},"고":{"ha":1389,"x_min":63,"x_max":1326,"o":"m 1217 590 l 981 590 l 981 833 l 154 833 l 154 1069 l 1217 1069 l 1217 590 m 1326 118 l 63 118 l 63 340 l 500 340 l 500 596 l 722 596 l 722 340 l 1326 340 l 1326 118 z "},"곡":{"ha":1389,"x_min":63,"x_max":1326,"o":"m 1326 299 l 63 299 l 63 521 l 514 521 l 514 710 l 736 710 l 736 521 l 1326 521 l 1326 299 m 1217 -250 l 981 -250 l 981 -7 l 154 -7 l 154 229 l 1217 229 l 1217 -250 m 1217 590 l 981 590 l 981 833 l 154 833 l 154 1069 l 1217 1069 l 1217 590 z "},"곤":{"ha":1389,"x_min":63,"x_max":1326,"o":"m 154 213 l 390 213 l 390 -14 l 1217 -14 l 1217 -250 l 154 -250 l 154 213 m 1217 590 l 981 590 l 981 833 l 154 833 l 154 1069 l 1217 1069 l 1217 590 m 1326 299 l 63 299 l 63 521 l 514 521 l 514 710 l 736 710 l 736 521 l 1326 521 l 1326 299 z "},"곧":{"ha":1389,"x_min":63,"x_max":1326,"o":"m 1217 243 l 1217 35 l 390 35 l 390 -42 l 1217 -42 l 1217 -250 l 154 -250 l 154 243 l 1217 243 m 1217 590 l 981 590 l 981 833 l 154 833 l 154 1069 l 1217 1069 l 1217 590 m 1326 313 l 63 313 l 63 535 l 514 535 l 514 710 l 736 710 l 736 535 l 1326 535 l 1326 313 z "},"골":{"ha":1389,"x_min":63,"x_max":1326,"o":"m 981 153 l 981 188 l 154 188 l 154 403 l 1217 403 l 1217 0 l 390 0 l 390 -35 l 1258 -35 l 1258 -250 l 154 -250 l 154 153 l 981 153 m 1217 674 l 1326 674 l 1326 451 l 63 451 l 63 674 l 514 674 l 514 765 l 736 765 l 736 674 l 981 674 l 981 833 l 154 833 l 154 1069 l 1217 1069 l 1217 674 z "},"곪":{"ha":1389,"x_min":63,"x_max":1326,"o":"m 154 133 l 411 133 l 411 167 l 154 167 l 154 365 l 647 365 l 647 -18 l 390 -18 l 390 -53 l 696 -53 l 696 365 l 1217 365 l 1217 -31 l 1244 -31 l 1244 -250 l 154 -250 l 154 133 m 994 -31 l 994 146 l 918 146 l 918 -31 l 994 -31 m 1217 674 l 1326 674 l 1326 451 l 63 451 l 63 674 l 514 674 l 514 765 l 736 765 l 736 674 l 981 674 l 981 833 l 154 833 l 154 1069 l 1217 1069 l 1217 674 z "},"곬":{"ha":1389,"x_min":63,"x_max":1326,"o":"m 453 139 l 453 174 l 126 174 l 126 375 l 689 375 l 689 -14 l 363 -14 l 363 -49 l 578 -49 l 638 -49 q 900 75 819 -49 q 981 375 981 199 l 1217 375 q 1129 22 1217 176 l 1272 -21 l 1272 -268 l 1044 -199 l 1044 -90 q 867 -208 969 -167 q 638 -250 764 -250 l 578 -250 l 575 -250 l 126 -250 l 126 139 l 453 139 m 1217 674 l 1326 674 l 1326 451 l 63 451 l 63 674 l 514 674 l 514 765 l 736 765 l 736 674 l 981 674 l 981 833 l 154 833 l 154 1069 l 1217 1069 l 1217 674 z "},"곯":{"ha":1389,"x_min":63,"x_max":1326,"o":"m 286 139 l 286 174 l 154 174 l 154 375 l 522 375 l 522 -14 l 376 -14 l 376 -49 l 606 -49 l 606 -250 l 154 -250 l 154 139 l 286 139 m 1294 160 l 1207 160 q 1238 18 1238 94 q 1200 -139 1238 -71 q 1092 -244 1163 -207 q 928 -282 1022 -282 q 753 -240 824 -282 q 649 -131 682 -199 q 615 18 615 -62 q 647 160 615 97 l 557 160 l 557 354 l 808 354 l 808 417 l 1044 417 l 1044 354 l 1294 354 l 1294 160 m 928 -60 q 997 -42 978 -60 q 1015 18 1015 -25 q 997 75 1015 58 q 928 92 978 92 q 857 76 876 92 q 838 18 838 60 q 857 -42 838 -25 q 928 -60 876 -60 m 1217 674 l 1326 674 l 1326 451 l 63 451 l 63 674 l 514 674 l 514 765 l 736 765 l 736 674 l 981 674 l 981 833 l 154 833 l 154 1069 l 1217 1069 l 1217 674 z "},"곰":{"ha":1389,"x_min":63,"x_max":1326,"o":"m 1217 243 l 1217 -250 l 154 -250 l 154 243 l 1217 243 m 981 -42 l 981 35 l 390 35 l 390 -42 l 981 -42 m 1217 590 l 981 590 l 981 833 l 154 833 l 154 1069 l 1217 1069 l 1217 590 m 1326 299 l 63 299 l 63 521 l 514 521 l 514 710 l 736 710 l 736 521 l 1326 521 l 1326 299 z "},"곱":{"ha":1389,"x_min":63,"x_max":1326,"o":"m 1217 257 l 1217 -250 l 154 -250 l 154 271 l 390 271 l 390 188 l 981 188 l 981 257 l 1217 257 m 981 -42 l 981 7 l 390 7 l 390 -42 l 981 -42 m 1217 590 l 981 590 l 981 833 l 154 833 l 154 1069 l 1217 1069 l 1217 590 m 1326 326 l 63 326 l 63 549 l 514 549 l 514 710 l 736 710 l 736 549 l 1326 549 l 1326 326 z "},"곳":{"ha":1389,"x_min":63,"x_max":1326,"o":"m 207 -14 q 379 2 290 -14 q 518 49 468 18 q 579 133 554 71 q 604 247 604 194 l 840 247 q 797 42 840 149 l 1258 -25 l 1258 -264 l 781 -194 l 781 6 q 643 -151 726 -100 q 438 -226 560 -203 q 207 -250 315 -250 l 117 -250 l 117 -14 l 207 -14 m 1217 590 l 981 590 l 981 833 l 154 833 l 154 1069 l 1217 1069 l 1217 590 m 1326 299 l 63 299 l 63 521 l 514 521 l 514 710 l 736 710 l 736 521 l 1326 521 l 1326 299 z "},"공":{"ha":1389,"x_min":63,"x_max":1326,"o":"m 697 -56 q 892 -52 833 -56 q 974 -37 951 -49 q 997 0 997 -26 q 974 40 997 28 q 894 55 951 51 q 697 58 836 58 q 497 55 556 58 q 415 40 439 51 q 392 0 392 28 q 415 -37 392 -26 q 499 -52 439 -49 q 697 -56 558 -56 m 697 -278 q 354 -240 474 -278 q 195 -141 235 -201 q 156 0 156 -81 q 195 144 156 83 q 354 242 235 204 q 697 281 474 281 q 1036 242 918 281 q 1194 144 1154 204 q 1233 0 1233 83 q 1194 -141 1233 -81 q 1036 -240 1154 -201 q 697 -278 918 -278 m 1217 590 l 981 590 l 981 833 l 154 833 l 154 1069 l 1217 1069 l 1217 590 m 1326 326 l 63 326 l 63 549 l 514 549 l 514 738 l 736 738 l 736 549 l 1326 549 l 1326 326 z "},"곶":{"ha":1389,"x_min":63,"x_max":1326,"o":"m 249 -14 q 395 1 325 -14 q 518 49 465 17 l 524 53 l 200 53 l 200 261 l 1217 261 l 1217 53 l 801 53 l 782 8 l 1244 -81 l 1244 -292 l 739 -194 l 739 -61 q 643 -151 699 -117 q 456 -227 558 -204 q 249 -250 353 -250 l 117 -250 l 117 -14 l 249 -14 m 1217 590 l 981 590 l 981 833 l 154 833 l 154 1069 l 1217 1069 l 1217 590 m 1326 299 l 63 299 l 63 521 l 514 521 l 514 710 l 736 710 l 736 521 l 1326 521 l 1326 299 z "},"곹":{"ha":1389,"x_min":63,"x_max":1326,"o":"m 1217 375 l 1217 174 l 390 174 l 390 139 l 1175 139 l 1175 -14 l 390 -14 l 390 -49 l 1217 -49 l 1217 -250 l 154 -250 l 154 375 l 1217 375 m 1217 674 l 1326 674 l 1326 451 l 63 451 l 63 674 l 514 674 l 514 765 l 736 765 l 736 674 l 981 674 l 981 833 l 154 833 l 154 1069 l 1217 1069 l 1217 674 z "},"과":{"ha":1389,"x_min":25,"x_max":1365,"o":"m 592 506 q 611 645 604 579 q 621 760 618 711 q 625 833 624 808 l 132 833 l 132 1069 l 875 1069 q 808 492 867 876 l 592 506 m 1217 1083 l 1217 801 l 1365 801 l 1365 565 l 1217 565 l 1217 -228 l 981 -228 l 981 1083 l 1217 1083 m 25 119 l 25 356 l 282 372 l 282 657 l 518 657 l 518 386 l 915 411 l 915 175 l 25 119 z "},"곽":{"ha":1389,"x_min":25,"x_max":1365,"o":"m 1217 -250 l 981 -250 l 981 -7 l 154 -7 l 154 229 l 1217 229 l 1217 -250 m 1217 1083 l 1217 801 l 1365 801 l 1365 565 l 1217 565 l 1217 299 l 981 299 l 981 1083 l 1217 1083 m 25 272 l 25 508 l 282 525 l 282 731 l 518 731 l 518 539 l 915 564 l 915 328 l 25 272 m 592 631 q 613 746 604 688 q 625 833 622 804 l 132 833 l 132 1069 l 875 1069 q 808 617 864 840 l 592 631 z "},"관":{"ha":1389,"x_min":25,"x_max":1365,"o":"m 210 215 l 446 215 l 446 -14 l 1286 -14 l 1286 -250 l 210 -250 l 210 215 m 1217 1083 l 1217 801 l 1365 801 l 1365 565 l 1217 565 l 1217 76 l 981 76 l 981 1083 l 1217 1083 m 25 272 l 25 508 l 282 525 l 282 731 l 518 731 l 518 539 l 915 564 l 915 328 l 25 272 m 592 631 q 613 746 604 688 q 625 833 622 804 l 132 833 l 132 1069 l 875 1069 q 808 617 864 840 l 592 631 z "},"괄":{"ha":1389,"x_min":25,"x_max":1365,"o":"m 981 125 l 981 160 l 154 160 l 154 347 l 1217 347 l 1217 -28 l 390 -28 l 390 -62 l 1258 -62 l 1258 -250 l 154 -250 l 154 125 l 981 125 m 1217 1083 l 1217 801 l 1365 801 l 1365 565 l 1217 565 l 1217 404 l 981 404 l 981 1083 l 1217 1083 m 25 369 l 25 578 l 268 593 l 268 744 l 504 744 l 504 608 l 915 633 l 915 425 l 25 369 m 608 689 q 625 833 619 747 l 132 833 l 132 1069 l 875 1069 q 859 878 871 986 q 828 674 847 769 l 608 689 z "},"괆":{"ha":1389,"x_min":25,"x_max":1365,"o":"m 154 125 l 411 125 l 411 160 l 154 160 l 154 347 l 647 347 l 647 -28 l 390 -28 l 390 -62 l 696 -62 l 696 347 l 1217 347 l 1217 -42 l 1244 -42 l 1244 -250 l 154 -250 l 154 125 m 994 -42 l 994 139 l 918 139 l 918 -42 l 994 -42 m 1217 1083 l 1217 801 l 1365 801 l 1365 565 l 1217 565 l 1217 404 l 981 404 l 981 1083 l 1217 1083 m 25 369 l 25 578 l 268 593 l 268 744 l 504 744 l 504 608 l 915 633 l 915 425 l 25 369 m 608 689 q 625 833 619 747 l 132 833 l 132 1069 l 875 1069 q 859 878 871 986 q 828 674 847 769 l 608 689 z "},"괌":{"ha":1389,"x_min":25,"x_max":1365,"o":"m 1217 211 l 1217 -250 l 154 -250 l 154 211 l 1217 211 m 981 -50 l 981 11 l 390 11 l 390 -50 l 981 -50 m 1217 1083 l 1217 801 l 1365 801 l 1365 565 l 1217 565 l 1217 299 l 981 299 l 981 1083 l 1217 1083 m 25 272 l 25 508 l 282 525 l 282 731 l 518 731 l 518 539 l 915 564 l 915 328 l 25 272 m 592 631 q 613 746 604 688 q 625 833 622 804 l 132 833 l 132 1069 l 875 1069 q 808 617 864 840 l 592 631 z "},"괍":{"ha":1389,"x_min":25,"x_max":1365,"o":"m 1217 236 l 1217 -250 l 154 -250 l 154 250 l 390 250 l 390 167 l 981 167 l 981 236 l 1217 236 m 981 -56 l 981 -7 l 390 -7 l 390 -56 l 981 -56 m 1217 1083 l 1217 801 l 1365 801 l 1365 565 l 1217 565 l 1217 299 l 981 299 l 981 1083 l 1217 1083 m 25 272 l 25 508 l 282 525 l 282 731 l 518 731 l 518 539 l 915 564 l 915 328 l 25 272 m 592 631 q 613 746 604 688 q 625 833 622 804 l 132 833 l 132 1069 l 875 1069 q 808 617 864 840 l 592 631 z "},"괏":{"ha":1389,"x_min":25,"x_max":1365,"o":"m 207 -15 q 383 -1 292 -15 q 524 42 474 14 q 581 105 558 61 q 604 188 604 149 l 840 188 q 808 32 840 110 l 1217 -25 l 1217 -264 l 781 -203 l 781 -25 q 638 -167 725 -118 q 435 -231 554 -211 q 207 -251 315 -251 l 158 -251 l 158 -15 l 207 -15 m 1217 1082 l 1217 801 l 1365 801 l 1365 565 l 1217 565 l 1217 146 l 981 146 l 981 1082 l 1217 1082 m 25 272 l 25 508 l 282 525 l 282 731 l 518 731 l 518 539 l 915 564 l 915 328 l 25 272 m 592 631 q 613 746 604 688 q 625 833 622 804 l 132 833 l 132 1069 l 875 1069 q 808 617 864 840 l 592 631 z "},"괐":{"ha":1389,"x_min":25,"x_max":1365,"o":"m 1286 -269 l 1058 -200 l 1058 -97 q 938 -219 1017 -171 q 756 -267 858 -267 q 490 -189 628 -267 q 361 -240 433 -229 q 179 -250 289 -250 l 131 -250 l 131 -14 l 179 -14 q 315 -8 276 -14 q 365 19 353 -3 q 378 47 375 36 q 381 96 381 58 q 382 194 382 133 l 618 194 l 618 107 q 613 13 618 40 q 754 -31 689 -31 q 815 -17 790 -31 q 851 19 840 -3 q 864 47 861 36 q 867 96 867 58 q 868 194 868 133 l 1104 194 l 1104 118 q 1101 33 1104 58 l 1286 -22 l 1286 -269 m 1217 1083 l 1217 801 l 1365 801 l 1365 565 l 1217 565 l 1217 299 l 981 299 l 981 1083 l 1217 1083 m 25 272 l 25 508 l 282 525 l 282 731 l 518 731 l 518 539 l 915 564 l 915 328 l 25 272 m 592 631 q 613 746 604 688 q 625 833 622 804 l 132 833 l 132 1069 l 875 1069 q 808 617 864 840 l 592 631 z "},"광":{"ha":1389,"x_min":25,"x_max":1365,"o":"m 711 -42 q 891 -40 825 -42 q 969 -35 957 -39 q 981 -17 981 -31 q 969 1 981 -3 q 891 7 957 6 q 711 8 825 8 q 528 7 596 8 q 449 1 461 6 q 436 -17 436 -3 q 449 -35 436 -31 q 528 -40 461 -39 q 711 -42 596 -42 m 711 -264 q 388 -232 500 -264 q 238 -147 275 -200 q 200 -17 200 -94 q 238 115 200 61 q 388 199 275 168 q 711 231 500 231 q 1032 199 921 231 q 1180 114 1143 167 q 1217 -17 1217 61 q 1180 -147 1217 -93 q 1032 -232 1143 -200 q 711 -264 921 -264 m 1217 1083 l 1217 801 l 1365 801 l 1365 565 l 1217 565 l 1217 299 l 981 299 l 981 1083 l 1217 1083 m 25 272 l 25 508 l 282 525 l 282 731 l 518 731 l 518 539 l 915 564 l 915 328 l 25 272 m 592 631 q 613 746 604 688 q 625 833 622 804 l 132 833 l 132 1069 l 875 1069 q 808 617 864 840 l 592 631 z "},"괒":{"ha":1389,"x_min":25,"x_max":1365,"o":"m 249 -14 q 395 1 325 -14 q 518 49 465 17 q 539 67 531 56 l 200 67 l 200 254 l 1217 254 l 1217 67 l 807 67 l 788 22 l 1217 -65 l 1217 -279 l 739 -182 l 739 -61 q 643 -151 699 -117 q 456 -227 558 -204 q 249 -250 353 -250 l 144 -250 l 144 -14 l 249 -14 m 1217 1083 l 1217 801 l 1365 801 l 1365 565 l 1217 565 l 1217 299 l 981 299 l 981 1083 l 1217 1083 m 25 272 l 25 508 l 282 525 l 282 731 l 518 731 l 518 539 l 915 564 l 915 328 l 25 272 m 592 631 q 613 746 604 688 q 625 833 622 804 l 132 833 l 132 1069 l 875 1069 q 808 617 864 840 l 592 631 z "},"괘":{"ha":1389,"x_min":25,"x_max":1272,"o":"m 411 644 q 444 833 440 774 l 132 833 l 132 1069 l 694 1069 q 628 631 685 858 l 411 644 m 1272 1083 l 1272 -229 l 1050 -229 l 1050 564 l 967 564 l 967 104 l 744 104 l 744 218 l 25 151 l 25 388 l 226 407 l 226 596 l 463 596 l 463 428 l 744 454 l 744 1083 l 967 1083 l 967 786 l 1050 786 l 1050 1083 l 1272 1083 z "},"괜":{"ha":1389,"x_min":25,"x_max":1342,"o":"m 265 160 l 501 160 l 501 -14 l 1342 -14 l 1342 -250 l 265 -250 l 265 160 m 418 679 q 444 833 440 783 l 132 833 l 132 1069 l 694 1069 q 628 631 685 858 l 463 642 l 463 511 l 744 538 l 744 1083 l 967 1083 l 967 786 l 1050 786 l 1050 1083 l 1272 1083 l 1272 161 l 1050 161 l 1050 564 l 967 564 l 967 161 l 744 161 l 744 301 l 25 235 l 25 471 l 226 490 l 226 679 l 418 679 z "},"괠":{"ha":1389,"x_min":25,"x_max":1314,"o":"m 1036 125 l 1036 160 l 210 160 l 210 347 l 1272 347 l 1272 -28 l 446 -28 l 446 -62 l 1314 -62 l 1314 -250 l 210 -250 l 210 125 l 1036 125 m 424 731 q 444 851 439 801 l 132 851 l 132 1069 l 694 1069 q 628 664 685 875 l 463 675 l 463 601 l 744 617 l 744 1083 l 967 1083 l 967 842 l 1050 842 l 1050 1083 l 1272 1083 l 1272 389 l 1050 389 l 1050 619 l 967 619 l 967 389 l 744 389 l 744 422 l 25 383 l 25 578 l 226 589 l 226 731 l 424 731 z "},"괢":{"ha":1389,"x_min":25,"x_max":1300,"o":"m 210 125 l 467 125 l 467 160 l 210 160 l 210 347 l 703 347 l 703 -28 l 446 -28 l 446 -62 l 751 -62 l 751 347 l 1272 347 l 1272 -42 l 1300 -42 l 1300 -250 l 210 -250 l 210 125 m 1050 -42 l 1050 139 l 974 139 l 974 -42 l 1050 -42 m 424 758 q 444 868 443 839 l 132 868 l 132 1069 l 694 1069 q 628 694 685 888 l 463 703 l 463 633 l 744 650 l 744 1083 l 967 1083 l 967 842 l 1050 842 l 1050 1083 l 1272 1083 l 1272 389 l 1050 389 l 1050 619 l 967 619 l 967 389 l 744 389 l 744 428 l 25 383 l 25 606 l 226 618 l 226 758 l 424 758 z "},"괩":{"ha":1389,"x_min":25,"x_max":1272,"o":"m 1272 206 l 1272 -250 l 210 -250 l 210 218 l 446 218 l 446 140 l 1036 140 l 1036 206 l 1272 206 m 1036 -68 l 1036 -22 l 446 -22 l 446 -68 l 1036 -68 m 418 675 q 444 833 440 785 l 132 833 l 132 1069 l 694 1069 q 628 631 685 858 l 463 642 l 463 553 l 744 579 l 744 1083 l 967 1083 l 967 786 l 1050 786 l 1050 1083 l 1272 1083 l 1272 256 l 1050 256 l 1050 564 l 967 564 l 967 256 l 744 256 l 744 343 l 25 276 l 25 513 l 226 532 l 226 675 l 418 675 z "},"괬":{"ha":1389,"x_min":25,"x_max":1314,"o":"m 1314 -269 l 1086 -200 l 1086 -97 q 965 -219 1044 -171 q 783 -267 886 -267 q 518 -189 656 -267 q 389 -240 461 -229 q 207 -250 317 -250 l 158 -250 l 158 -14 l 207 -14 q 342 -8 304 -14 q 393 19 381 -3 q 406 47 403 36 q 409 96 408 58 q 410 194 410 133 l 646 194 l 646 107 q 640 13 646 40 q 782 -31 717 -31 q 843 -17 818 -31 q 879 19 868 -3 q 892 47 889 36 q 895 96 894 58 q 896 194 896 133 l 1132 194 l 1132 118 q 1129 33 1132 58 l 1314 -22 l 1314 -269 m 418 675 q 444 833 440 785 l 132 833 l 132 1069 l 694 1069 q 628 631 685 858 l 463 642 l 463 535 l 744 561 l 744 1083 l 967 1083 l 967 786 l 1050 786 l 1050 1083 l 1272 1083 l 1272 256 l 1050 256 l 1050 564 l 967 564 l 967 256 l 744 256 l 744 325 l 25 258 l 25 494 l 226 514 l 226 675 l 418 675 z "},"괭":{"ha":1389,"x_min":25,"x_max":1272,"o":"m 767 -42 q 947 -40 881 -42 q 1024 -35 1013 -39 q 1036 -17 1036 -31 q 1024 1 1036 -3 q 947 7 1013 6 q 767 8 881 8 q 584 7 651 8 q 504 1 517 6 q 492 -17 492 -3 q 504 -35 492 -31 q 584 -40 517 -39 q 767 -42 651 -42 m 767 -264 q 443 -232 556 -264 q 293 -147 331 -200 q 256 -17 256 -94 q 293 115 256 61 q 443 199 331 168 q 767 231 556 231 q 1088 199 976 231 q 1235 114 1199 167 q 1272 -17 1272 61 q 1235 -147 1272 -93 q 1088 -232 1199 -200 q 767 -264 976 -264 m 418 675 q 444 833 440 785 l 132 833 l 132 1069 l 694 1069 q 628 631 685 858 l 463 642 l 463 558 l 744 585 l 744 1083 l 967 1083 l 967 786 l 1050 786 l 1050 1083 l 1272 1083 l 1272 249 l 1050 249 l 1050 564 l 967 564 l 967 279 l 744 279 l 744 349 l 25 282 l 25 518 l 226 538 l 226 675 l 418 675 z "},"괴":{"ha":1389,"x_min":25,"x_max":1217,"o":"m 592 506 q 611 645 604 579 q 621 760 618 711 q 625 833 624 808 l 132 833 l 132 1069 l 875 1069 q 808 492 867 876 l 592 506 m 1217 1083 l 1217 -228 l 981 -228 l 981 1083 l 1217 1083 m 25 119 l 25 356 l 282 372 l 282 657 l 518 657 l 518 386 l 915 411 l 915 175 l 25 119 z "},"괵":{"ha":1389,"x_min":25,"x_max":1217,"o":"m 1217 -250 l 981 -250 l 981 -7 l 154 -7 l 154 229 l 1217 229 l 1217 -250 m 25 272 l 25 508 l 282 525 l 282 731 l 518 731 l 518 539 l 915 564 l 915 328 l 25 272 m 1217 1083 l 1217 299 l 981 299 l 981 1083 l 1217 1083 m 592 631 q 613 746 604 688 q 625 833 622 804 l 132 833 l 132 1069 l 875 1069 q 808 617 864 840 l 592 631 z "},"괸":{"ha":1389,"x_min":25,"x_max":1286,"o":"m 210 215 l 446 215 l 446 -14 l 1286 -14 l 1286 -250 l 210 -250 l 210 215 m 1217 1083 l 1217 76 l 981 76 l 981 1083 l 1217 1083 m 25 272 l 25 508 l 282 525 l 282 731 l 518 731 l 518 539 l 915 564 l 915 328 l 25 272 m 592 631 q 613 746 604 688 q 625 833 622 804 l 132 833 l 132 1069 l 875 1069 q 808 617 864 840 l 592 631 z "},"괼":{"ha":1389,"x_min":25,"x_max":1258,"o":"m 981 125 l 981 160 l 154 160 l 154 347 l 1217 347 l 1217 -28 l 390 -28 l 390 -62 l 1258 -62 l 1258 -250 l 154 -250 l 154 125 l 981 125 m 1217 1083 l 1217 404 l 981 404 l 981 1083 l 1217 1083 m 25 369 l 25 578 l 268 593 l 268 744 l 504 744 l 504 608 l 915 633 l 915 425 l 25 369 m 608 689 q 625 833 619 747 l 132 833 l 132 1069 l 875 1069 q 859 878 871 986 q 828 674 847 769 l 608 689 z "},"굄":{"ha":1389,"x_min":25,"x_max":1217,"o":"m 1217 211 l 1217 -250 l 154 -250 l 154 211 l 1217 211 m 981 -50 l 981 11 l 390 11 l 390 -50 l 981 -50 m 1217 1083 l 1217 299 l 981 299 l 981 1083 l 1217 1083 m 25 272 l 25 508 l 282 525 l 282 731 l 518 731 l 518 539 l 915 564 l 915 328 l 25 272 m 592 631 q 613 746 604 688 q 625 833 622 804 l 132 833 l 132 1069 l 875 1069 q 808 617 864 840 l 592 631 z "},"굅":{"ha":1389,"x_min":25,"x_max":1217,"o":"m 1217 236 l 1217 -250 l 154 -250 l 154 250 l 390 250 l 390 167 l 981 167 l 981 236 l 1217 236 m 981 -56 l 981 -7 l 390 -7 l 390 -56 l 981 -56 m 1217 1083 l 1217 299 l 981 299 l 981 1083 l 1217 1083 m 25 272 l 25 508 l 282 525 l 282 731 l 518 731 l 518 539 l 915 564 l 915 328 l 25 272 m 592 631 q 613 746 604 688 q 625 833 622 804 l 132 833 l 132 1069 l 875 1069 q 808 617 864 840 l 592 631 z "},"굇":{"ha":1389,"x_min":25,"x_max":1217,"o":"m 207 -15 q 383 -1 292 -15 q 524 42 474 14 q 581 105 558 61 q 604 188 604 149 l 840 188 q 808 32 840 110 l 1217 -25 l 1217 -264 l 781 -203 l 781 -25 q 638 -167 725 -118 q 435 -231 554 -211 q 207 -251 315 -251 l 158 -251 l 158 -15 l 207 -15 m 1217 1082 l 1217 146 l 981 146 l 981 1082 l 1217 1082 m 25 272 l 25 508 l 282 525 l 282 731 l 518 731 l 518 539 l 915 564 l 915 328 l 25 272 m 592 631 q 613 746 604 688 q 625 833 622 804 l 132 833 l 132 1069 l 875 1069 q 808 617 864 840 l 592 631 z "},"굉":{"ha":1389,"x_min":25,"x_max":1217,"o":"m 711 -42 q 891 -40 825 -42 q 969 -35 957 -39 q 981 -17 981 -31 q 969 1 981 -3 q 891 7 957 6 q 711 8 825 8 q 528 7 596 8 q 449 1 461 6 q 436 -17 436 -3 q 449 -35 436 -31 q 528 -40 461 -39 q 711 -42 596 -42 m 711 -264 q 388 -232 500 -264 q 238 -147 275 -200 q 200 -17 200 -94 q 238 115 200 61 q 388 199 275 168 q 711 231 500 231 q 1032 199 921 231 q 1180 114 1143 167 q 1217 -17 1217 61 q 1180 -147 1217 -93 q 1032 -232 1143 -200 q 711 -264 921 -264 m 1217 1083 l 1217 299 l 981 299 l 981 1083 l 1217 1083 m 25 272 l 25 508 l 282 525 l 282 731 l 518 731 l 518 539 l 915 564 l 915 328 l 25 272 m 592 631 q 613 746 604 688 q 625 833 622 804 l 132 833 l 132 1069 l 875 1069 q 808 617 864 840 l 592 631 z "},"교":{"ha":1389,"x_min":63,"x_max":1326,"o":"m 1217 590 l 981 590 l 981 833 l 154 833 l 154 1069 l 1217 1069 l 1217 590 m 1326 118 l 63 118 l 63 340 l 292 340 l 292 585 l 514 585 l 514 340 l 708 340 l 708 585 l 931 585 l 931 340 l 1326 340 l 1326 118 z "},"굔":{"ha":1389,"x_min":63,"x_max":1326,"o":"m 154 213 l 390 213 l 390 -14 l 1217 -14 l 1217 -250 l 154 -250 l 154 213 m 1217 590 l 981 590 l 981 833 l 154 833 l 154 1069 l 1217 1069 l 1217 590 m 1326 299 l 63 299 l 63 521 l 292 521 l 292 696 l 514 696 l 514 521 l 708 521 l 708 696 l 931 696 l 931 521 l 1326 521 l 1326 299 z "},"굘":{"ha":1389,"x_min":63,"x_max":1326,"o":"m 981 153 l 981 188 l 154 188 l 154 403 l 1217 403 l 1217 0 l 390 0 l 390 -35 l 1258 -35 l 1258 -250 l 154 -250 l 154 153 l 981 153 m 1217 674 l 1326 674 l 1326 451 l 63 451 l 63 674 l 292 674 l 292 765 l 514 765 l 514 674 l 708 674 l 708 765 l 931 765 l 931 674 l 981 674 l 981 833 l 154 833 l 154 1069 l 1217 1069 l 1217 674 z "},"굠":{"ha":1389,"x_min":63,"x_max":1326,"o":"m 1217 243 l 1217 -250 l 154 -250 l 154 243 l 1217 243 m 981 -42 l 981 35 l 390 35 l 390 -42 l 981 -42 m 1217 590 l 981 590 l 981 833 l 154 833 l 154 1069 l 1217 1069 l 1217 590 m 1326 299 l 63 299 l 63 521 l 292 521 l 292 696 l 514 696 l 514 521 l 708 521 l 708 696 l 931 696 l 931 521 l 1326 521 l 1326 299 z "},"굡":{"ha":1389,"x_min":63,"x_max":1326,"o":"m 1217 257 l 1217 -250 l 154 -250 l 154 271 l 390 271 l 390 188 l 981 188 l 981 257 l 1217 257 m 981 -42 l 981 7 l 390 7 l 390 -42 l 981 -42 m 1217 590 l 981 590 l 981 833 l 154 833 l 154 1069 l 1217 1069 l 1217 590 m 1326 326 l 63 326 l 63 549 l 292 549 l 292 696 l 514 696 l 514 549 l 708 549 l 708 696 l 931 696 l 931 549 l 1326 549 l 1326 326 z "},"굣":{"ha":1389,"x_min":63,"x_max":1326,"o":"m 207 -14 q 379 2 290 -14 q 518 49 468 18 q 579 133 554 71 q 604 247 604 194 l 840 247 q 797 42 840 149 l 1258 -25 l 1258 -264 l 781 -194 l 781 6 q 643 -151 726 -100 q 438 -226 560 -203 q 207 -250 315 -250 l 117 -250 l 117 -14 l 207 -14 m 1217 590 l 981 590 l 981 833 l 154 833 l 154 1069 l 1217 1069 l 1217 590 m 1326 299 l 63 299 l 63 521 l 292 521 l 292 696 l 514 696 l 514 521 l 708 521 l 708 696 l 931 696 l 931 521 l 1326 521 l 1326 299 z "},"굥":{"ha":1389,"x_min":63,"x_max":1326,"o":"m 697 -56 q 892 -52 833 -56 q 974 -37 951 -49 q 997 0 997 -26 q 974 40 997 28 q 894 55 951 51 q 697 58 836 58 q 497 55 556 58 q 415 40 439 51 q 392 0 392 28 q 415 -37 392 -26 q 499 -52 439 -49 q 697 -56 558 -56 m 697 -278 q 354 -240 474 -278 q 195 -141 235 -201 q 156 0 156 -81 q 195 144 156 83 q 354 242 235 204 q 697 281 474 281 q 1036 242 918 281 q 1194 144 1154 204 q 1233 0 1233 83 q 1194 -141 1233 -81 q 1036 -240 1154 -201 q 697 -278 918 -278 m 1217 590 l 981 590 l 981 833 l 154 833 l 154 1069 l 1217 1069 l 1217 590 m 1326 326 l 63 326 l 63 549 l 292 549 l 292 696 l 514 696 l 514 549 l 708 549 l 708 696 l 931 696 l 931 549 l 1326 549 l 1326 326 z "},"구":{"ha":1389,"x_min":63,"x_max":1326,"o":"m 1217 590 l 981 590 l 981 833 l 154 833 l 154 1069 l 1217 1069 l 1217 590 m 1326 261 l 806 261 l 806 -110 l 583 -110 l 583 261 l 63 261 l 63 483 l 1326 483 l 1326 261 z "},"국":{"ha":1389,"x_min":63,"x_max":1326,"o":"m 1217 -250 l 981 -250 l 981 -7 l 154 -7 l 154 229 l 583 229 l 583 368 l 63 368 l 63 590 l 981 590 l 981 833 l 154 833 l 154 1069 l 1217 1069 l 1217 590 l 1326 590 l 1326 368 l 806 368 l 806 229 l 1217 229 l 1217 -250 z "},"군":{"ha":1389,"x_min":63,"x_max":1326,"o":"m 154 213 l 390 213 l 390 -14 l 1217 -14 l 1217 -250 l 154 -250 l 154 213 m 1217 590 l 981 590 l 981 833 l 154 833 l 154 1069 l 1217 1069 l 1217 590 m 1326 299 l 847 299 l 847 119 l 625 119 l 625 299 l 63 299 l 63 521 l 1326 521 l 1326 299 z "},"굳":{"ha":1389,"x_min":63,"x_max":1326,"o":"m 583 243 l 583 313 l 63 313 l 63 535 l 1326 535 l 1326 313 l 806 313 l 806 243 l 1217 243 l 1217 35 l 390 35 l 390 -42 l 1217 -42 l 1217 -250 l 154 -250 l 154 243 l 583 243 m 1217 590 l 981 590 l 981 833 l 154 833 l 154 1069 l 1217 1069 l 1217 590 z "},"굴":{"ha":1389,"x_min":63,"x_max":1326,"o":"m 981 153 l 981 188 l 154 188 l 154 403 l 583 403 l 583 451 l 63 451 l 63 674 l 981 674 l 981 833 l 154 833 l 154 1069 l 1217 1069 l 1217 674 l 1326 674 l 1326 451 l 806 451 l 806 403 l 1217 403 l 1217 0 l 390 0 l 390 -35 l 1258 -35 l 1258 -250 l 154 -250 l 154 153 l 981 153 z "},"굵":{"ha":1389,"x_min":63,"x_max":1326,"o":"m 369 139 l 369 174 l 154 174 l 154 375 l 583 375 l 583 451 l 63 451 l 63 674 l 981 674 l 981 833 l 154 833 l 154 1069 l 1217 1069 l 1217 674 l 1326 674 l 1326 451 l 806 451 l 806 375 l 1217 375 l 1217 -250 l 981 -250 l 981 139 l 682 139 l 682 304 l 606 304 l 606 -14 l 390 -14 l 390 -49 l 883 -49 l 883 -250 l 154 -250 l 154 139 l 369 139 z "},"굶":{"ha":1389,"x_min":63,"x_max":1326,"o":"m 154 133 l 411 133 l 411 167 l 154 167 l 154 365 l 583 365 l 583 424 l 63 424 l 63 646 l 981 646 l 981 833 l 154 833 l 154 1069 l 1217 1069 l 1217 646 l 1326 646 l 1326 424 l 806 424 l 806 365 l 1217 365 l 1217 -31 l 1244 -31 l 1244 -250 l 154 -250 l 154 133 m 994 -31 l 994 146 l 918 146 l 918 -31 l 994 -31 m 696 -53 l 696 236 l 647 236 l 647 -18 l 390 -18 l 390 -53 l 696 -53 z "},"굻":{"ha":1389,"x_min":63,"x_max":1326,"o":"m 286 139 l 286 174 l 154 174 l 154 375 l 522 375 l 522 -14 l 376 -14 l 376 -49 l 606 -49 l 606 -250 l 154 -250 l 154 139 l 286 139 m 1294 160 l 1207 160 q 1238 18 1238 94 q 1200 -139 1238 -71 q 1092 -244 1163 -207 q 928 -282 1022 -282 q 753 -240 824 -282 q 649 -131 682 -199 q 615 18 615 -62 q 647 160 615 97 l 557 160 l 557 354 l 808 354 l 808 417 l 1044 417 l 1044 354 l 1294 354 l 1294 160 m 928 -60 q 997 -42 978 -60 q 1015 18 1015 -25 q 997 75 1015 58 q 928 92 978 92 q 857 76 876 92 q 838 18 838 60 q 857 -42 838 -25 q 928 -60 876 -60 m 1217 688 l 1326 688 l 1326 465 l 750 465 l 750 392 l 528 392 l 528 465 l 63 465 l 63 688 l 981 688 l 981 833 l 154 833 l 154 1069 l 1217 1069 l 1217 688 z "},"굼":{"ha":1389,"x_min":63,"x_max":1326,"o":"m 583 243 l 583 299 l 63 299 l 63 521 l 1326 521 l 1326 299 l 806 299 l 806 243 l 1217 243 l 1217 -250 l 154 -250 l 154 243 l 583 243 m 981 -42 l 981 35 l 390 35 l 390 -42 l 981 -42 m 1217 590 l 981 590 l 981 833 l 154 833 l 154 1069 l 1217 1069 l 1217 590 z "},"굽":{"ha":1389,"x_min":63,"x_max":1326,"o":"m 1217 257 l 1217 -250 l 154 -250 l 154 271 l 390 271 l 390 188 l 981 188 l 981 257 l 1217 257 m 981 -42 l 981 7 l 390 7 l 390 -42 l 981 -42 m 1217 590 l 981 590 l 981 833 l 154 833 l 154 1069 l 1217 1069 l 1217 590 m 1326 326 l 806 326 l 806 226 l 583 226 l 583 326 l 63 326 l 63 549 l 1326 549 l 1326 326 z "},"굿":{"ha":1389,"x_min":63,"x_max":1326,"o":"m 1217 590 l 981 590 l 981 833 l 154 833 l 154 1069 l 1217 1069 l 1217 590 m 1326 299 l 806 299 l 806 199 l 583 199 l 583 299 l 63 299 l 63 521 l 1326 521 l 1326 299 m 207 -17 q 386 -4 294 -17 q 531 33 478 8 q 583 85 563 47 q 604 153 604 122 l 840 153 q 815 24 840 89 l 1258 -25 l 1258 -264 l 781 -211 l 781 -44 q 631 -181 722 -137 q 432 -235 550 -218 q 207 -253 314 -253 l 117 -253 l 117 -17 l 207 -17 z "},"궁":{"ha":1389,"x_min":63,"x_max":1326,"o":"m 697 -56 q 892 -52 833 -56 q 974 -37 951 -49 q 997 0 997 -26 q 974 40 997 28 q 894 55 951 51 q 697 58 836 58 q 497 55 556 58 q 415 40 439 51 q 392 0 392 28 q 415 -37 392 -26 q 499 -52 439 -49 q 697 -56 558 -56 m 697 -278 q 354 -240 474 -278 q 195 -141 235 -201 q 156 0 156 -81 q 188 132 156 75 q 313 228 219 189 q 583 278 407 268 l 583 326 l 63 326 l 63 549 l 1326 549 l 1326 326 l 806 326 l 806 278 q 1075 228 981 268 q 1201 133 1169 189 q 1233 0 1233 76 q 1194 -141 1233 -81 q 1036 -240 1154 -201 q 697 -278 918 -278 m 1217 590 l 981 590 l 981 833 l 154 833 l 154 1069 l 1217 1069 l 1217 590 z "},"궂":{"ha":1389,"x_min":63,"x_max":1326,"o":"m 249 -14 q 395 1 325 -14 q 518 49 465 17 l 524 53 l 200 53 l 200 261 l 1217 261 l 1217 53 l 801 53 l 782 8 l 1244 -81 l 1244 -292 l 739 -194 l 739 -61 q 643 -151 699 -117 q 456 -227 558 -204 q 249 -250 353 -250 l 117 -250 l 117 -14 l 249 -14 m 1217 646 l 1326 646 l 1326 424 l 806 424 l 806 296 l 583 296 l 583 424 l 63 424 l 63 646 l 981 646 l 981 833 l 154 833 l 154 1069 l 1217 1069 l 1217 646 z "},"궃":{"ha":1389,"x_min":63,"x_max":1326,"o":"m 249 -35 l 304 -35 q 434 -28 383 -35 q 522 1 485 -21 q 543 25 532 7 l 158 25 l 158 233 l 606 233 q 611 296 611 265 l 833 296 q 831 233 833 278 l 1217 233 l 1217 25 l 785 25 l 775 -3 l 1217 -93 l 1217 -307 l 739 -210 l 739 -76 q 639 -187 697 -151 q 491 -244 569 -231 q 317 -257 413 -257 l 249 -257 l 117 -257 l 117 -35 l 249 -35 m 1217 660 l 1326 660 l 1326 438 l 806 438 l 806 328 l 583 328 l 583 438 l 63 438 l 63 660 l 981 660 l 981 833 l 154 833 l 154 1069 l 1217 1069 l 1217 660 z "},"궈":{"ha":1389,"x_min":25,"x_max":1217,"o":"m 592 617 q 613 736 604 672 q 625 833 622 800 l 132 833 l 132 1069 l 875 1069 q 854 842 871 967 q 808 603 838 718 l 592 617 m 1217 1083 l 1217 -228 l 981 -228 l 981 224 l 863 224 l 863 460 l 981 460 l 981 1083 l 1217 1083 m 554 -60 l 554 215 l 25 175 l 25 411 l 790 467 l 790 -60 l 554 -60 z "},"궉":{"ha":1389,"x_min":25,"x_max":1217,"o":"m 1217 -250 l 981 -250 l 981 -62 l 154 -62 l 154 174 l 1217 174 l 1217 -250 m 1217 1083 l 1217 238 l 981 238 l 981 335 l 863 335 l 863 571 l 981 571 l 981 1083 l 1217 1083 m 592 631 q 613 746 604 688 q 625 833 622 804 l 132 833 l 132 1069 l 875 1069 q 808 617 864 840 l 592 631 m 554 246 l 554 326 l 25 286 l 25 522 l 790 578 l 790 246 l 554 246 z "},"권":{"ha":1389,"x_min":25,"x_max":1286,"o":"m 210 160 l 446 160 l 446 -14 l 1286 -14 l 1286 -250 l 210 -250 l 210 160 m 1217 1083 l 1217 76 l 981 76 l 981 293 l 863 293 l 863 529 l 981 529 l 981 1083 l 1217 1083 m 592 631 q 613 746 604 688 q 625 833 622 804 l 132 833 l 132 1069 l 875 1069 q 808 617 864 840 l 592 631 m 554 135 l 554 285 l 25 244 l 25 481 l 790 536 l 790 135 l 554 135 z "},"궐":{"ha":1389,"x_min":25,"x_max":1258,"o":"m 981 125 l 981 160 l 154 160 l 154 347 l 1217 347 l 1217 -28 l 390 -28 l 390 -62 l 1258 -62 l 1258 -250 l 154 -250 l 154 125 l 981 125 m 1217 1083 l 1217 404 l 981 404 l 981 474 l 863 474 l 863 710 l 981 710 l 981 1083 l 1217 1083 m 554 394 l 554 464 l 25 429 l 25 632 l 790 681 l 790 394 l 554 394 m 596 728 q 625 833 617 774 l 132 833 l 132 1069 l 875 1069 q 860 934 871 994 q 818 750 849 874 q 808 714 814 739 l 596 728 z "},"궜":{"ha":1389,"x_min":25,"x_max":1286,"o":"m 1286 -269 l 1058 -200 l 1058 -97 q 938 -219 1017 -171 q 756 -267 858 -267 q 490 -189 628 -267 q 361 -240 433 -229 q 179 -250 289 -250 l 131 -250 l 131 -14 l 179 -14 q 315 -8 276 -14 q 365 19 353 -3 q 378 47 375 36 q 381 96 381 58 q 382 194 382 133 l 618 194 l 618 107 q 613 13 618 40 q 754 -31 689 -31 q 815 -17 790 -31 q 851 19 840 -3 q 864 47 861 36 q 867 96 867 58 q 868 194 868 133 l 1104 194 l 1104 118 q 1101 33 1104 58 l 1286 -22 l 1286 -269 m 1217 1083 l 1217 269 l 981 269 l 981 335 l 863 335 l 863 571 l 981 571 l 981 1083 l 1217 1083 m 592 631 q 613 746 604 688 q 625 833 622 804 l 132 833 l 132 1069 l 875 1069 q 808 617 864 840 l 592 631 m 554 246 l 554 326 l 25 286 l 25 522 l 790 578 l 790 246 l 554 246 z "},"궝":{"ha":1389,"x_min":25,"x_max":1217,"o":"m 711 -42 q 891 -40 825 -42 q 969 -35 957 -39 q 981 -17 981 -31 q 969 1 981 -3 q 891 7 957 6 q 711 8 825 8 q 528 7 596 8 q 449 1 461 6 q 436 -17 436 -3 q 449 -35 436 -31 q 528 -40 461 -39 q 711 -42 596 -42 m 711 -264 q 388 -232 500 -264 q 238 -147 275 -200 q 200 -17 200 -94 q 238 115 200 61 q 388 199 275 168 q 711 231 500 231 q 1032 199 921 231 q 1180 114 1143 167 q 1217 -17 1217 61 q 1180 -147 1217 -93 q 1032 -232 1143 -200 q 711 -264 921 -264 m 1217 1083 l 1217 269 l 981 269 l 981 335 l 863 335 l 863 571 l 981 571 l 981 1083 l 1217 1083 m 592 654 q 613 763 604 708 q 625 846 622 818 l 132 846 l 132 1069 l 875 1069 q 854 863 871 975 q 808 642 838 751 l 592 654 m 554 290 l 554 367 l 25 329 l 25 553 l 790 604 l 790 290 l 554 290 z "},"궤":{"ha":1389,"x_min":25,"x_max":1272,"o":"m 411 644 q 444 833 440 774 l 132 833 l 132 1069 l 694 1069 q 628 631 685 858 l 411 644 m 360 163 l 360 308 l 25 272 l 25 508 l 596 564 l 596 163 l 360 163 m 1272 1083 l 1272 -229 l 1050 -229 l 1050 1083 l 1272 1083 m 967 1083 l 967 35 l 744 35 l 744 304 l 654 304 l 654 540 l 744 540 l 744 1083 l 967 1083 z "},"궷":{"ha":1389,"x_min":25,"x_max":1272,"o":"m 263 -15 q 438 -1 347 -15 q 579 42 529 14 q 637 105 614 61 q 660 188 660 149 l 896 188 q 864 32 896 110 l 1272 -25 l 1272 -264 l 836 -203 l 836 -25 q 693 -167 781 -118 q 490 -231 610 -211 q 263 -251 371 -251 l 214 -251 l 214 -15 l 263 -15 m 1272 1083 l 1272 146 l 1050 146 l 1050 1083 l 1272 1083 m 967 1083 l 967 229 l 744 229 l 744 304 l 654 304 l 654 540 l 744 540 l 744 1083 l 967 1083 m 360 176 l 360 322 l 25 286 l 25 522 l 596 578 l 596 176 l 360 176 m 383 644 q 417 833 413 774 l 104 833 l 104 1069 l 667 1069 q 600 631 657 858 l 383 644 z "},"궸":{"ha":1389,"x_min":25,"x_max":1314,"o":"m 1314 -269 l 1086 -200 l 1086 -97 q 965 -219 1044 -171 q 783 -267 886 -267 q 518 -189 656 -267 q 389 -240 461 -229 q 207 -250 317 -250 l 158 -250 l 158 -14 l 207 -14 q 342 -8 304 -14 q 393 19 381 -3 q 406 47 403 36 q 409 96 408 58 q 410 194 410 133 l 646 194 l 646 107 q 640 13 646 40 q 782 -31 717 -31 q 843 -17 818 -31 q 879 19 868 -3 q 892 47 889 36 q 895 96 894 58 q 896 194 896 133 l 1132 194 l 1132 118 q 1129 33 1132 58 l 1314 -22 l 1314 -269 m 1272 1083 l 1272 256 l 1050 256 l 1050 1083 l 1272 1083 m 967 1083 l 967 256 l 744 256 l 744 304 l 654 304 l 654 540 l 744 540 l 744 1083 l 967 1083 m 360 246 l 360 322 l 25 286 l 25 522 l 596 578 l 596 246 l 360 246 m 383 644 q 417 833 413 774 l 104 833 l 104 1069 l 667 1069 q 600 631 657 858 l 383 644 z "},"귀":{"ha":1389,"x_min":25,"x_max":1217,"o":"m 592 617 q 613 736 604 672 q 625 833 622 800 l 132 833 l 132 1069 l 875 1069 q 854 842 871 967 q 808 603 838 718 l 592 617 m 1217 1083 l 1217 -228 l 981 -228 l 981 1083 l 1217 1083 m 624 -60 l 624 215 l 25 175 l 25 411 l 860 467 l 860 -60 l 624 -60 z "},"귁":{"ha":1389,"x_min":25,"x_max":1217,"o":"m 1217 -250 l 981 -250 l 981 -62 l 154 -62 l 154 174 l 1217 174 l 1217 -250 m 1217 1083 l 1217 238 l 981 238 l 981 1083 l 1217 1083 m 592 631 q 613 746 604 688 q 625 833 622 804 l 132 833 l 132 1069 l 875 1069 q 808 617 864 840 l 592 631 m 624 246 l 624 326 l 25 286 l 25 522 l 860 578 l 860 246 l 624 246 z "},"귄":{"ha":1389,"x_min":25,"x_max":1286,"o":"m 210 160 l 446 160 l 446 -14 l 1286 -14 l 1286 -250 l 210 -250 l 210 160 m 592 631 q 613 746 604 688 q 625 833 622 804 l 132 833 l 132 1069 l 875 1069 q 808 617 864 840 l 592 631 m 624 135 l 624 285 l 25 244 l 25 481 l 860 536 l 860 135 l 624 135 z "},"귈":{"ha":1389,"x_min":25,"x_max":1258,"o":"m 981 125 l 981 160 l 154 160 l 154 347 l 1217 347 l 1217 -28 l 390 -28 l 390 -62 l 1258 -62 l 1258 -250 l 154 -250 l 154 125 l 981 125 m 624 401 l 624 471 l 25 436 l 25 639 l 860 688 l 860 401 l 624 401 m 596 728 q 625 833 617 774 l 132 833 l 132 1069 l 875 1069 q 860 934 871 994 q 818 750 849 874 q 808 714 814 739 l 596 728 z "},"귐":{"ha":1389,"x_min":25,"x_max":1217,"o":"m 1217 211 l 1217 -250 l 154 -250 l 154 211 l 1217 211 m 981 -50 l 981 11 l 390 11 l 390 -50 l 981 -50 m 1217 1083 l 1217 269 l 981 269 l 981 1083 l 1217 1083 m 592 631 q 613 746 604 688 q 625 833 622 804 l 132 833 l 132 1069 l 875 1069 q 808 617 864 840 l 592 631 m 624 246 l 624 326 l 25 286 l 25 522 l 860 578 l 860 246 l 624 246 z "},"귑":{"ha":1389,"x_min":25,"x_max":1217,"o":"m 1217 236 l 1217 -250 l 154 -250 l 154 250 l 390 250 l 390 167 l 981 167 l 981 236 l 1217 236 m 981 -56 l 981 -7 l 390 -7 l 390 -56 l 981 -56 m 1217 1083 l 1217 269 l 981 269 l 981 1083 l 1217 1083 m 592 631 q 613 746 604 688 q 625 833 622 804 l 132 833 l 132 1069 l 875 1069 q 808 617 864 840 l 592 631 m 624 246 l 624 326 l 25 286 l 25 522 l 860 578 l 860 246 l 624 246 z "},"귓":{"ha":1389,"x_min":25,"x_max":1217,"o":"m 207 -15 q 383 -1 292 -15 q 524 42 474 14 q 581 105 558 61 q 604 188 604 149 l 840 188 q 808 32 840 110 l 1217 -25 l 1217 -264 l 781 -203 l 781 -25 q 638 -167 725 -118 q 435 -231 554 -211 q 207 -251 315 -251 l 158 -251 l 158 -15 l 207 -15 m 1217 1083 l 1217 238 l 981 238 l 981 1083 l 1217 1083 m 592 631 q 613 746 604 688 q 625 833 622 804 l 132 833 l 132 1069 l 875 1069 q 808 617 864 840 l 592 631 m 624 246 l 624 326 l 25 286 l 25 522 l 860 578 l 860 246 l 624 246 z "},"귕":{"ha":1389,"x_min":25,"x_max":1217,"o":"m 711 -42 q 891 -40 825 -42 q 969 -35 957 -39 q 981 -17 981 -31 q 969 1 981 -3 q 891 7 957 6 q 711 8 825 8 q 528 7 596 8 q 449 1 461 6 q 436 -17 436 -3 q 449 -35 436 -31 q 528 -40 461 -39 q 711 -42 596 -42 m 711 -264 q 388 -232 500 -264 q 238 -147 275 -200 q 200 -17 200 -94 q 238 115 200 61 q 388 199 275 168 q 711 231 500 231 q 1032 199 921 231 q 1180 114 1143 167 q 1217 -17 1217 61 q 1180 -147 1217 -93 q 1032 -232 1143 -200 q 711 -264 921 -264 m 1217 1083 l 1217 269 l 981 269 l 981 1083 l 1217 1083 m 592 651 q 613 762 604 707 q 625 844 622 817 l 132 844 l 132 1069 l 875 1069 q 808 639 864 851 l 592 651 m 624 285 l 624 361 l 25 324 l 25 547 l 860 600 l 860 285 l 624 285 z "},"규":{"ha":1389,"x_min":63,"x_max":1326,"o":"m 1217 590 l 981 590 l 981 833 l 154 833 l 154 1069 l 1217 1069 l 1217 590 m 1326 261 l 1042 261 l 1042 -110 l 819 -110 l 819 261 l 569 261 l 569 -110 l 347 -110 l 347 261 l 63 261 l 63 483 l 1326 483 l 1326 261 z "},"균":{"ha":1389,"x_min":63,"x_max":1326,"o":"m 154 213 l 390 213 l 390 -14 l 1217 -14 l 1217 -250 l 154 -250 l 154 213 m 1217 590 l 981 590 l 981 833 l 154 833 l 154 1069 l 1217 1069 l 1217 590 m 1326 299 l 1057 299 l 1057 119 l 835 119 l 835 299 l 682 299 l 682 119 l 460 119 l 460 299 l 63 299 l 63 521 l 1326 521 l 1326 299 z "},"귤":{"ha":1389,"x_min":63,"x_max":1326,"o":"m 981 153 l 981 188 l 154 188 l 154 403 l 367 403 l 367 451 l 63 451 l 63 674 l 981 674 l 981 833 l 154 833 l 154 1069 l 1217 1069 l 1217 674 l 1326 674 l 1326 451 l 1019 451 l 1019 403 l 1217 403 l 1217 0 l 390 0 l 390 -35 l 1258 -35 l 1258 -250 l 154 -250 l 154 153 l 981 153 m 797 403 l 797 451 l 589 451 l 589 403 l 797 403 z "},"귬":{"ha":1389,"x_min":63,"x_max":1326,"o":"m 367 243 l 367 299 l 63 299 l 63 521 l 1326 521 l 1326 299 l 1019 299 l 1019 243 l 1217 243 l 1217 -250 l 154 -250 l 154 243 l 367 243 m 981 -42 l 981 35 l 390 35 l 390 -42 l 981 -42 m 1217 590 l 981 590 l 981 833 l 154 833 l 154 1069 l 1217 1069 l 1217 590 m 797 243 l 797 299 l 589 299 l 589 243 l 797 243 z "},"귭":{"ha":1389,"x_min":63,"x_max":1326,"o":"m 1217 257 l 1217 -250 l 154 -250 l 154 271 l 390 271 l 390 188 l 981 188 l 981 257 l 1217 257 m 981 -42 l 981 7 l 390 7 l 390 -42 l 981 -42 m 1217 632 l 1326 632 l 1326 410 l 1019 410 l 1019 297 l 797 297 l 797 410 l 589 410 l 589 297 l 367 297 l 367 410 l 63 410 l 63 632 l 981 632 l 981 833 l 154 833 l 154 1069 l 1217 1069 l 1217 632 z "},"그":{"ha":1389,"x_min":63,"x_max":1326,"o":"m 1217 590 l 981 590 l 981 833 l 154 833 l 154 1069 l 1217 1069 l 1217 590 z "},"극":{"ha":1389,"x_min":63,"x_max":1326,"o":"m 1217 -250 l 981 -250 l 981 -7 l 154 -7 l 154 229 l 1217 229 l 1217 -250 m 1326 299 l 63 299 l 63 521 l 1326 521 l 1326 299 m 1217 590 l 981 590 l 981 833 l 154 833 l 154 1069 l 1217 1069 l 1217 590 z "},"근":{"ha":1389,"x_min":63,"x_max":1326,"o":"m 154 213 l 390 213 l 390 -14 l 1217 -14 l 1217 -250 l 154 -250 l 154 213 m 1217 590 l 981 590 l 981 833 l 154 833 l 154 1069 l 1217 1069 l 1217 590 m 1326 299 l 63 299 l 63 521 l 1326 521 l 1326 299 z "},"귿":{"ha":1389,"x_min":63,"x_max":1326,"o":"m 1217 243 l 1217 35 l 390 35 l 390 -42 l 1217 -42 l 1217 -250 l 154 -250 l 154 243 l 1217 243 m 1217 590 l 981 590 l 981 833 l 154 833 l 154 1069 l 1217 1069 l 1217 590 m 1326 313 l 63 313 l 63 535 l 1326 535 l 1326 313 z "},"글":{"ha":1389,"x_min":63,"x_max":1326,"o":"m 981 153 l 981 188 l 154 188 l 154 403 l 1217 403 l 1217 0 l 390 0 l 390 -35 l 1258 -35 l 1258 -250 l 154 -250 l 154 153 l 981 153 m 1217 674 l 1326 674 l 1326 451 l 63 451 l 63 674 l 981 674 l 981 833 l 154 833 l 154 1069 l 1217 1069 l 1217 674 z "},"긁":{"ha":1389,"x_min":63,"x_max":1326,"o":"m 369 139 l 369 174 l 154 174 l 154 375 l 606 375 l 606 -14 l 390 -14 l 390 -49 l 883 -49 l 883 -250 l 154 -250 l 154 139 l 369 139 m 1217 -250 l 981 -250 l 981 139 l 682 139 l 682 375 l 1217 375 l 1217 -250 m 1217 674 l 1326 674 l 1326 451 l 63 451 l 63 674 l 981 674 l 981 833 l 154 833 l 154 1069 l 1217 1069 l 1217 674 z "},"긂":{"ha":1389,"x_min":63,"x_max":1326,"o":"m 154 133 l 411 133 l 411 167 l 154 167 l 154 365 l 647 365 l 647 -18 l 390 -18 l 390 -53 l 696 -53 l 696 365 l 1217 365 l 1217 -31 l 1244 -31 l 1244 -250 l 154 -250 l 154 133 m 994 -31 l 994 146 l 918 146 l 918 -31 l 994 -31 m 1217 674 l 1326 674 l 1326 451 l 63 451 l 63 674 l 981 674 l 981 833 l 154 833 l 154 1069 l 1217 1069 l 1217 674 z "},"긇":{"ha":1389,"x_min":63,"x_max":1326,"o":"m 286 139 l 286 174 l 154 174 l 154 375 l 522 375 l 522 -14 l 376 -14 l 376 -49 l 606 -49 l 606 -250 l 154 -250 l 154 139 l 286 139 m 1294 160 l 1207 160 q 1238 18 1238 94 q 1200 -139 1238 -71 q 1092 -244 1163 -207 q 928 -282 1022 -282 q 753 -240 824 -282 q 649 -131 682 -199 q 615 18 615 -62 q 647 160 615 97 l 557 160 l 557 354 l 808 354 l 808 417 l 1044 417 l 1044 354 l 1294 354 l 1294 160 m 928 -60 q 997 -42 978 -60 q 1015 18 1015 -25 q 997 75 1015 58 q 928 92 978 92 q 857 76 876 92 q 838 18 838 60 q 857 -42 838 -25 q 928 -60 876 -60 m 1217 674 l 1326 674 l 1326 451 l 63 451 l 63 674 l 981 674 l 981 833 l 154 833 l 154 1069 l 1217 1069 l 1217 674 z "},"금":{"ha":1389,"x_min":63,"x_max":1326,"o":"m 1217 243 l 1217 -250 l 154 -250 l 154 243 l 1217 243 m 981 -42 l 981 35 l 390 35 l 390 -42 l 981 -42 m 1217 590 l 981 590 l 981 833 l 154 833 l 154 1069 l 1217 1069 l 1217 590 m 1326 299 l 63 299 l 63 521 l 1326 521 l 1326 299 z "},"급":{"ha":1389,"x_min":63,"x_max":1326,"o":"m 1217 257 l 1217 -250 l 154 -250 l 154 271 l 390 271 l 390 188 l 981 188 l 981 257 l 1217 257 m 981 -42 l 981 7 l 390 7 l 390 -42 l 981 -42 m 1217 590 l 981 590 l 981 833 l 154 833 l 154 1069 l 1217 1069 l 1217 590 m 1326 299 l 63 299 l 63 521 l 1326 521 l 1326 299 z "},"긋":{"ha":1389,"x_min":63,"x_max":1326,"o":"m 207 -14 q 379 2 290 -14 q 518 49 468 18 q 579 133 554 71 q 604 247 604 194 l 840 247 q 797 42 840 149 l 1258 -25 l 1258 -264 l 781 -194 l 781 6 q 643 -151 726 -100 q 438 -226 560 -203 q 207 -250 315 -250 l 117 -250 l 117 -14 l 207 -14 m 1217 590 l 981 590 l 981 833 l 154 833 l 154 1069 l 1217 1069 l 1217 590 m 1326 299 l 63 299 l 63 521 l 1326 521 l 1326 299 z "},"긍":{"ha":1389,"x_min":63,"x_max":1326,"o":"m 697 -56 q 892 -52 833 -56 q 974 -37 951 -49 q 997 0 997 -26 q 974 40 997 28 q 894 55 951 51 q 697 58 836 58 q 497 55 556 58 q 415 40 439 51 q 392 0 392 28 q 415 -37 392 -26 q 499 -52 439 -49 q 697 -56 558 -56 m 697 -278 q 354 -240 474 -278 q 195 -141 235 -201 q 156 0 156 -81 q 195 144 156 83 q 354 242 235 204 q 697 281 474 281 q 1036 242 918 281 q 1194 144 1154 204 q 1233 0 1233 83 q 1194 -141 1233 -81 q 1036 -240 1154 -201 q 697 -278 918 -278 m 1217 590 l 981 590 l 981 833 l 154 833 l 154 1069 l 1217 1069 l 1217 590 m 1326 326 l 63 326 l 63 549 l 1326 549 l 1326 326 z "},"긏":{"ha":1389,"x_min":63,"x_max":1326,"o":"m 249 -35 l 304 -35 q 434 -28 383 -35 q 522 1 485 -21 q 543 25 532 7 l 158 25 l 158 233 l 606 233 q 611 296 611 265 l 833 296 q 831 233 833 278 l 1217 233 l 1217 25 l 785 25 l 775 -3 l 1217 -93 l 1217 -307 l 739 -210 l 739 -76 q 639 -187 697 -151 q 491 -244 569 -231 q 317 -257 413 -257 l 249 -257 l 117 -257 l 117 -35 l 249 -35 m 1217 590 l 981 590 l 981 833 l 154 833 l 154 1069 l 1217 1069 l 1217 590 m 1326 368 l 63 368 l 63 590 l 1326 590 l 1326 368 z "},"긑":{"ha":1389,"x_min":63,"x_max":1326,"o":"m 1217 375 l 1217 174 l 390 174 l 390 139 l 1175 139 l 1175 -14 l 390 -14 l 390 -49 l 1217 -49 l 1217 -250 l 154 -250 l 154 375 l 1217 375 m 1217 674 l 1326 674 l 1326 451 l 63 451 l 63 674 l 981 674 l 981 833 l 154 833 l 154 1069 l 1217 1069 l 1217 674 z "},"긓":{"ha":1389,"x_min":63,"x_max":1326,"o":"m 1217 104 l 1114 104 q 1128 11 1128 63 q 1024 -206 1128 -124 q 689 -289 919 -289 q 349 -206 454 -289 q 244 11 244 -124 q 258 104 244 61 l 156 104 l 156 299 l 557 299 l 568 300 l 568 389 l 804 389 l 804 300 l 819 299 l 1217 299 l 1217 104 m 689 -81 q 869 -57 819 -81 q 919 11 919 -33 q 869 76 919 54 q 689 99 819 99 q 503 76 554 99 q 453 11 453 54 q 503 -57 453 -33 q 689 -81 554 -81 m 1217 674 l 1326 674 l 1326 451 l 63 451 l 63 674 l 981 674 l 981 833 l 154 833 l 154 1069 l 1217 1069 l 1217 674 z "},"긔":{"ha":1389,"x_min":25,"x_max":1217,"o":"m 592 506 q 611 645 604 579 q 621 760 618 711 q 625 833 624 808 l 132 833 l 132 1069 l 875 1069 q 808 492 867 876 l 592 506 m 1217 1083 l 1217 -228 l 981 -228 l 981 1083 l 1217 1083 z "},"긘":{"ha":1389,"x_min":25,"x_max":1286,"o":"m 210 215 l 446 215 l 446 -14 l 1286 -14 l 1286 -250 l 210 -250 l 210 215 m 25 272 l 25 508 l 915 564 l 915 328 l 25 272 m 592 631 q 613 746 604 688 q 625 833 622 804 l 132 833 l 132 1069 l 875 1069 q 808 617 864 840 l 592 631 z "},"긩":{"ha":1389,"x_min":25,"x_max":1217,"o":"m 711 -42 q 891 -40 825 -42 q 969 -35 957 -39 q 981 -17 981 -31 q 969 1 981 -3 q 891 7 957 6 q 711 8 825 8 q 528 7 596 8 q 449 1 461 6 q 436 -17 436 -3 q 449 -35 436 -31 q 528 -40 461 -39 q 711 -42 596 -42 m 711 -264 q 388 -232 500 -264 q 238 -147 275 -200 q 200 -17 200 -94 q 238 115 200 61 q 388 199 275 168 q 711 231 500 231 q 1032 199 921 231 q 1180 114 1143 167 q 1217 -17 1217 61 q 1180 -147 1217 -93 q 1032 -232 1143 -200 q 711 -264 921 -264 m 25 272 l 25 508 l 915 564 l 915 328 l 25 272 m 592 631 q 613 746 604 688 q 625 833 622 804 l 132 833 l 132 1069 l 875 1069 q 808 617 864 840 l 592 631 z "},"기":{"ha":1389,"x_min":76,"x_max":1217,"o":"m 875 1069 q 676 544 860 738 q 76 326 493 351 l 76 563 q 444 633 275 576 q 625 833 614 690 l 132 833 l 132 1069 l 875 1069 m 1217 1083 l 1217 -228 l 981 -228 l 981 1083 l 1217 1083 z "},"긱":{"ha":1389,"x_min":76,"x_max":1217,"o":"m 1217 -250 l 981 -250 l 981 -7 l 154 -7 l 154 229 l 1217 229 l 1217 -250 m 1217 1083 l 1217 299 l 981 299 l 981 1083 l 1217 1083 m 875 1069 q 676 544 860 738 q 76 326 493 351 l 76 563 q 444 633 275 576 q 625 833 614 690 l 132 833 l 132 1069 l 875 1069 z "},"긴":{"ha":1389,"x_min":76,"x_max":1286,"o":"m 210 271 l 446 271 l 446 -14 l 1286 -14 l 1286 -250 l 210 -250 l 210 271 m 1217 1083 l 1217 76 l 981 76 l 981 1083 l 1217 1083 m 875 1069 q 676 544 860 738 q 76 326 493 351 l 76 563 q 444 633 275 576 q 625 833 614 690 l 132 833 l 132 1069 l 875 1069 z "},"긷":{"ha":1389,"x_min":76,"x_max":1217,"o":"m 1217 243 l 1217 35 l 390 35 l 390 -42 l 1217 -42 l 1217 -250 l 154 -250 l 154 243 l 1217 243 m 1217 1083 l 1217 299 l 981 299 l 981 1083 l 1217 1083 m 875 1069 q 676 544 860 738 q 76 326 493 351 l 76 563 q 444 633 275 576 q 625 833 614 690 l 132 833 l 132 1069 l 875 1069 z "},"길":{"ha":1389,"x_min":76,"x_max":1258,"o":"m 981 153 l 981 188 l 154 188 l 154 403 l 1217 403 l 1217 0 l 390 0 l 390 -35 l 1258 -35 l 1258 -250 l 154 -250 l 154 153 l 981 153 m 1217 1083 l 1217 451 l 981 451 l 981 1083 l 1217 1083 m 875 1083 q 791 712 865 850 q 547 503 717 574 q 76 424 376 433 l 76 660 q 301 673 179 658 q 520 730 424 688 q 625 847 617 772 l 132 847 l 132 1083 l 875 1083 z "},"긺":{"ha":1389,"x_min":76,"x_max":1244,"o":"m 154 139 l 411 139 l 411 174 l 154 174 l 154 375 l 647 375 l 647 -14 l 390 -14 l 390 -49 l 696 -49 l 696 375 l 1217 375 l 1217 -28 l 1244 -28 l 1244 -250 l 154 -250 l 154 139 m 994 -28 l 994 153 l 918 153 l 918 -28 l 994 -28 m 1217 1083 l 1217 451 l 981 451 l 981 1083 l 1217 1083 m 875 1083 q 791 712 865 850 q 547 503 717 574 q 76 424 376 433 l 76 660 q 301 673 179 658 q 520 730 424 688 q 625 847 617 772 l 132 847 l 132 1083 l 875 1083 z "},"김":{"ha":1389,"x_min":76,"x_max":1217,"o":"m 1217 243 l 1217 -250 l 154 -250 l 154 243 l 1217 243 m 981 -42 l 981 35 l 390 35 l 390 -42 l 981 -42 m 1217 1083 l 1217 299 l 981 299 l 981 1083 l 1217 1083 m 875 1069 q 676 544 860 738 q 76 326 493 351 l 76 563 q 444 633 275 576 q 625 833 614 690 l 132 833 l 132 1069 l 875 1069 z "},"깁":{"ha":1389,"x_min":76,"x_max":1217,"o":"m 1217 257 l 1217 -250 l 154 -250 l 154 271 l 390 271 l 390 188 l 981 188 l 981 257 l 1217 257 m 981 -42 l 981 7 l 390 7 l 390 -42 l 981 -42 m 1217 1083 l 1217 299 l 981 299 l 981 1083 l 1217 1083 m 875 1069 q 676 544 860 738 q 76 326 493 351 l 76 563 q 444 633 275 576 q 625 833 614 690 l 132 833 l 132 1069 l 875 1069 z "},"깃":{"ha":1389,"x_min":76,"x_max":1217,"o":"m 1217 1082 l 1217 146 l 981 146 l 981 1082 l 1217 1082 m 207 -14 q 379 2 290 -14 q 518 49 468 18 q 579 133 554 71 q 604 247 604 194 l 840 247 q 797 42 840 149 l 1217 -25 l 1217 -264 l 781 -194 l 781 6 q 643 -151 726 -100 q 438 -226 560 -203 q 207 -250 315 -250 l 158 -250 l 158 -14 l 207 -14 m 875 1069 q 676 544 860 738 q 76 326 493 351 l 76 563 q 444 633 275 576 q 625 833 614 690 l 132 833 l 132 1069 l 875 1069 z "},"깄":{"ha":1389,"x_min":76,"x_max":1286,"o":"m 1286 -269 l 1058 -200 l 1058 -83 q 933 -211 1015 -160 q 744 -262 851 -262 q 481 -183 615 -262 q 349 -235 424 -221 q 179 -250 275 -250 l 131 -250 l 131 -14 l 179 -14 q 306 -4 261 -14 q 365 33 350 6 q 379 76 376 51 q 382 150 382 100 l 382 264 l 618 264 l 618 157 q 608 15 618 65 q 743 -25 683 -25 q 810 -9 782 -25 q 851 33 838 7 q 865 76 863 51 q 868 150 868 100 l 868 264 l 1104 264 l 1104 168 q 1097 35 1104 85 l 1286 -22 l 1286 -269 m 1217 1083 l 1217 299 l 981 299 l 981 1083 l 1217 1083 m 875 1069 q 676 544 860 738 q 76 326 493 351 l 76 563 q 444 633 275 576 q 625 833 614 690 l 132 833 l 132 1069 l 875 1069 z "},"깅":{"ha":1389,"x_min":76,"x_max":1217,"o":"m 711 -56 q 894 -53 844 -56 q 962 -38 943 -50 q 981 4 981 -26 q 963 47 981 35 q 901 63 946 60 q 740 65 856 65 l 658 65 q 510 62 553 65 q 452 47 468 58 q 436 4 436 35 q 456 -38 436 -26 q 525 -53 475 -50 q 711 -56 575 -56 m 711 -278 q 389 -239 501 -278 q 238 -139 276 -200 q 200 4 200 -78 q 238 149 200 88 q 389 249 276 210 q 711 288 501 288 q 1031 248 919 288 q 1180 147 1143 208 q 1217 4 1217 86 q 1180 -137 1217 -76 q 1031 -238 1143 -199 q 711 -278 919 -278 m 1217 1083 l 1217 299 l 981 299 l 981 1083 l 1217 1083 m 875 1069 q 676 544 860 738 q 76 326 493 351 l 76 563 q 444 633 275 576 q 625 833 614 690 l 132 833 l 132 1069 l 875 1069 z "},"깆":{"ha":1389,"x_min":76,"x_max":1217,"o":"m 249 -14 q 395 1 325 -14 q 518 49 465 17 q 539 67 531 56 l 200 67 l 200 254 l 1217 254 l 1217 67 l 807 67 l 788 22 l 1217 -65 l 1217 -279 l 739 -182 l 739 -61 q 643 -151 699 -117 q 456 -227 558 -204 q 249 -250 353 -250 l 144 -250 l 144 -14 l 249 -14 m 1217 1083 l 1217 299 l 981 299 l 981 1083 l 1217 1083 m 875 1069 q 676 544 860 738 q 76 326 493 351 l 76 563 q 444 633 275 576 q 625 833 614 690 l 132 833 l 132 1069 l 875 1069 z "},"깊":{"ha":1389,"x_min":76,"x_max":1217,"o":"m 201 375 l 1217 375 l 1217 167 l 1075 167 q 1025 -42 1057 51 l 1217 -42 l 1217 -250 l 201 -250 l 201 -42 l 372 -42 q 340 94 340 60 l 556 136 q 560 52 556 110 q 572 -42 565 -6 l 821 -42 q 874 167 842 28 l 201 167 l 201 375 m 1217 1083 l 1217 451 l 981 451 l 981 1083 l 1217 1083 m 875 1083 q 791 712 865 850 q 547 503 717 574 q 76 424 376 433 l 76 660 q 301 673 179 658 q 520 730 424 688 q 625 847 617 772 l 132 847 l 132 1083 l 875 1083 z "},"까":{"ha":1389,"x_min":76,"x_max":1365,"o":"m 500 1069 q 456 741 492 863 q 338 554 419 619 q 544 619 476 571 q 625 706 611 668 q 660 833 639 743 l 539 833 l 539 1069 l 910 1069 q 859 664 899 811 q 680 419 819 517 q 250 313 540 322 l 250 506 q 76 465 181 476 l 76 701 q 206 747 167 708 q 250 833 246 785 l 132 833 l 132 1069 l 500 1069 m 1217 1083 l 1217 -228 l 981 -228 l 981 1083 l 1217 1083 m 1365 565 l 1217 565 l 1217 801 l 1365 801 l 1365 565 z "},"깍":{"ha":1389,"x_min":76,"x_max":1365,"o":"m 1217 -250 l 981 -250 l 981 -7 l 154 -7 l 154 229 l 1217 229 l 1217 -250 m 1217 1083 l 1217 299 l 981 299 l 981 1083 l 1217 1083 m 500 1069 q 456 741 492 863 q 338 554 419 619 q 544 619 476 571 q 625 706 611 668 q 660 833 639 743 l 539 833 l 539 1069 l 910 1069 q 859 664 899 811 q 680 419 819 517 q 250 313 540 322 l 250 506 q 76 465 181 476 l 76 701 q 206 747 167 708 q 250 833 246 785 l 132 833 l 132 1069 l 500 1069 m 1365 565 l 1217 565 l 1217 801 l 1365 801 l 1365 565 z "},"깎":{"ha":1389,"x_min":76,"x_max":1365,"o":"m 536 -250 l 300 -250 l 300 -4 l 154 -4 l 154 229 l 536 229 l 536 -250 m 1217 -250 l 981 -250 l 981 -4 l 585 -4 l 585 229 l 1217 229 l 1217 -250 m 1217 1083 l 1217 299 l 981 299 l 981 1083 l 1217 1083 m 500 1069 q 456 741 492 863 q 338 554 419 619 q 544 619 476 571 q 625 706 611 668 q 660 833 639 743 l 539 833 l 539 1069 l 910 1069 q 859 664 899 811 q 680 419 819 517 q 250 313 540 322 l 250 506 q 76 465 181 476 l 76 701 q 206 747 167 708 q 250 833 246 785 l 132 833 l 132 1069 l 500 1069 m 1365 565 l 1217 565 l 1217 801 l 1365 801 l 1365 565 z "},"깐":{"ha":1389,"x_min":76,"x_max":1365,"o":"m 210 271 l 446 271 l 446 -14 l 1286 -14 l 1286 -250 l 210 -250 l 210 271 m 1217 1083 l 1217 76 l 981 76 l 981 1083 l 1217 1083 m 500 1069 q 456 741 492 863 q 338 554 419 619 q 544 619 476 571 q 625 706 611 668 q 660 833 639 743 l 539 833 l 539 1069 l 910 1069 q 859 664 899 811 q 680 419 819 517 q 250 313 540 322 l 250 506 q 76 465 181 476 l 76 701 q 206 747 167 708 q 250 833 246 785 l 132 833 l 132 1069 l 500 1069 m 1365 565 l 1217 565 l 1217 801 l 1365 801 l 1365 565 z "},"깔":{"ha":1389,"x_min":76,"x_max":1365,"o":"m 981 153 l 981 188 l 154 188 l 154 403 l 1217 403 l 1217 0 l 390 0 l 390 -35 l 1258 -35 l 1258 -250 l 154 -250 l 154 153 l 981 153 m 1217 1083 l 1217 451 l 981 451 l 981 1083 l 1217 1083 m 500 1069 q 469 848 492 938 q 399 699 446 758 q 565 739 511 713 q 633 790 619 765 q 660 863 646 814 l 539 863 l 539 1069 l 910 1069 q 859 748 899 865 q 680 553 819 631 q 250 468 540 476 l 250 596 q 76 561 179 569 l 76 783 q 209 809 171 789 q 250 863 247 829 l 132 863 l 132 1069 l 500 1069 m 1365 649 l 1217 649 l 1217 885 l 1365 885 l 1365 649 z "},"깖":{"ha":1389,"x_min":76,"x_max":1365,"o":"m 154 139 l 411 139 l 411 174 l 154 174 l 154 375 l 647 375 l 647 -14 l 390 -14 l 390 -49 l 696 -49 l 696 375 l 1217 375 l 1217 -28 l 1244 -28 l 1244 -250 l 154 -250 l 154 139 m 994 -28 l 994 153 l 918 153 l 918 -28 l 994 -28 m 1217 1083 l 1217 451 l 981 451 l 981 1083 l 1217 1083 m 500 1069 q 469 848 492 938 q 399 699 446 758 q 565 739 511 713 q 633 790 619 765 q 660 863 646 814 l 539 863 l 539 1069 l 910 1069 q 859 748 899 865 q 680 553 819 631 q 250 468 540 476 l 250 596 q 76 561 179 569 l 76 783 q 209 809 171 789 q 250 863 247 829 l 132 863 l 132 1069 l 500 1069 m 1365 649 l 1217 649 l 1217 885 l 1365 885 l 1365 649 z "},"깜":{"ha":1389,"x_min":76,"x_max":1365,"o":"m 1217 243 l 1217 -250 l 154 -250 l 154 243 l 1217 243 m 981 -42 l 981 35 l 390 35 l 390 -42 l 981 -42 m 1217 1083 l 1217 299 l 981 299 l 981 1083 l 1217 1083 m 500 1069 q 456 741 492 863 q 338 554 419 619 q 544 619 476 571 q 625 706 611 668 q 660 833 639 743 l 539 833 l 539 1069 l 910 1069 q 859 664 899 811 q 680 419 819 517 q 250 313 540 322 l 250 506 q 76 465 181 476 l 76 701 q 206 747 167 708 q 250 833 246 785 l 132 833 l 132 1069 l 500 1069 m 1365 565 l 1217 565 l 1217 801 l 1365 801 l 1365 565 z "},"깝":{"ha":1389,"x_min":76,"x_max":1365,"o":"m 1217 257 l 1217 -250 l 154 -250 l 154 271 l 390 271 l 390 188 l 981 188 l 981 257 l 1217 257 m 981 -42 l 981 7 l 390 7 l 390 -42 l 981 -42 m 1217 1083 l 1217 299 l 981 299 l 981 1083 l 1217 1083 m 500 1069 q 456 741 492 863 q 338 554 419 619 q 544 619 476 571 q 625 706 611 668 q 660 833 639 743 l 539 833 l 539 1069 l 910 1069 q 859 664 899 811 q 680 419 819 517 q 250 313 540 322 l 250 506 q 76 465 181 476 l 76 701 q 206 747 167 708 q 250 833 246 785 l 132 833 l 132 1069 l 500 1069 m 1365 565 l 1217 565 l 1217 801 l 1365 801 l 1365 565 z "},"깟":{"ha":1389,"x_min":76,"x_max":1365,"o":"m 1217 1082 l 1217 146 l 981 146 l 981 1082 l 1217 1082 m 207 -14 q 379 2 290 -14 q 518 49 468 18 q 579 133 554 71 q 604 247 604 194 l 840 247 q 797 42 840 149 l 1217 -25 l 1217 -264 l 781 -194 l 781 6 q 643 -151 726 -100 q 438 -226 560 -203 q 207 -250 315 -250 l 158 -250 l 158 -14 l 207 -14 m 500 1069 q 456 741 492 863 q 338 554 419 619 q 544 619 476 571 q 625 706 611 668 q 660 833 639 743 l 539 833 l 539 1069 l 910 1069 q 859 664 899 811 q 680 419 819 517 q 250 313 540 322 l 250 506 q 76 465 181 476 l 76 701 q 206 747 167 708 q 250 833 246 785 l 132 833 l 132 1069 l 500 1069 m 1365 565 l 1217 565 l 1217 801 l 1365 801 l 1365 565 z "},"깠":{"ha":1389,"x_min":76,"x_max":1365,"o":"m 1286 -269 l 1058 -200 l 1058 -83 q 933 -211 1015 -160 q 744 -262 851 -262 q 481 -183 615 -262 q 349 -235 424 -221 q 179 -250 275 -250 l 131 -250 l 131 -14 l 179 -14 q 306 -4 261 -14 q 365 33 350 6 q 379 76 376 51 q 382 150 382 100 l 382 264 l 618 264 l 618 157 q 608 15 618 65 q 743 -25 683 -25 q 810 -9 782 -25 q 851 33 838 7 q 865 76 863 51 q 868 150 868 100 l 868 264 l 1104 264 l 1104 168 q 1097 35 1104 85 l 1286 -22 l 1286 -269 m 1217 1083 l 1217 299 l 981 299 l 981 1083 l 1217 1083 m 500 1069 q 456 741 492 863 q 338 554 419 619 q 544 619 476 571 q 625 706 611 668 q 660 833 639 743 l 539 833 l 539 1069 l 910 1069 q 859 664 899 811 q 680 419 819 517 q 250 313 540 322 l 250 506 q 76 465 181 476 l 76 701 q 206 747 167 708 q 250 833 246 785 l 132 833 l 132 1069 l 500 1069 m 1365 565 l 1217 565 l 1217 801 l 1365 801 l 1365 565 z "},"깡":{"ha":1389,"x_min":76,"x_max":1365,"o":"m 711 -56 q 894 -53 844 -56 q 962 -38 943 -50 q 981 4 981 -26 q 963 47 981 35 q 901 63 946 60 q 740 65 856 65 l 658 65 q 510 62 553 65 q 452 47 468 58 q 436 4 436 35 q 456 -38 436 -26 q 525 -53 475 -50 q 711 -56 575 -56 m 711 -278 q 389 -239 501 -278 q 238 -139 276 -200 q 200 4 200 -78 q 238 149 200 88 q 389 249 276 210 q 711 288 501 288 q 1031 248 919 288 q 1180 147 1143 208 q 1217 4 1217 86 q 1180 -137 1217 -76 q 1031 -238 1143 -199 q 711 -278 919 -278 m 1217 1083 l 1217 299 l 981 299 l 981 1083 l 1217 1083 m 500 1069 q 456 741 492 863 q 338 554 419 619 q 544 619 476 571 q 625 706 611 668 q 660 833 639 743 l 539 833 l 539 1069 l 910 1069 q 859 664 899 811 q 680 419 819 517 q 250 313 540 322 l 250 506 q 76 465 181 476 l 76 701 q 206 747 167 708 q 250 833 246 785 l 132 833 l 132 1069 l 500 1069 m 1365 565 l 1217 565 l 1217 801 l 1365 801 l 1365 565 z "},"깥":{"ha":1389,"x_min":76,"x_max":1365,"o":"m 1217 375 l 1217 174 l 460 174 l 460 139 l 1175 139 l 1175 -14 l 460 -14 l 460 -49 l 1217 -49 l 1217 -250 l 224 -250 l 224 375 l 1217 375 m 1217 1083 l 1217 451 l 981 451 l 981 1083 l 1217 1083 m 500 1069 q 469 848 492 938 q 399 699 446 758 q 565 739 511 713 q 633 790 619 765 q 660 863 646 814 l 539 863 l 539 1069 l 910 1069 q 859 748 899 865 q 680 553 819 631 q 250 468 540 476 l 250 596 q 76 561 179 569 l 76 783 q 209 809 171 789 q 250 863 247 829 l 132 863 l 132 1069 l 500 1069 m 1365 635 l 1217 635 l 1217 871 l 1365 871 l 1365 635 z "},"깨":{"ha":1389,"x_min":76,"x_max":1272,"o":"m 399 1069 q 365 741 392 863 q 275 554 338 619 q 411 608 365 568 q 470 692 457 647 q 489 796 483 736 l 493 833 l 429 833 l 429 1069 l 711 1069 q 673 664 703 811 q 536 419 643 517 q 208 313 429 322 l 208 504 q 76 465 156 476 l 76 701 q 146 727 124 707 q 174 771 168 747 q 181 833 179 794 l 118 833 l 118 1069 l 399 1069 m 1272 1083 l 1272 -229 l 1050 -229 l 1050 564 l 967 564 l 967 104 l 744 104 l 744 1083 l 967 1083 l 967 786 l 1050 786 l 1050 1083 l 1272 1083 z "},"깩":{"ha":1389,"x_min":76,"x_max":1272,"o":"m 1272 -250 l 1036 -250 l 1036 -7 l 210 -7 l 210 229 l 1272 229 l 1272 -250 m 1272 1083 l 1272 299 l 1050 299 l 1050 564 l 967 564 l 967 299 l 744 299 l 744 1083 l 967 1083 l 967 786 l 1050 786 l 1050 1083 l 1272 1083 m 399 1069 q 365 741 392 863 q 275 554 338 619 q 411 608 365 568 q 470 692 457 647 q 489 796 483 736 l 493 833 l 429 833 l 429 1069 l 711 1069 q 673 664 703 811 q 536 419 643 517 q 208 313 429 322 l 208 504 q 76 465 156 476 l 76 701 q 146 727 124 707 q 174 771 168 747 q 181 833 179 794 l 118 833 l 118 1069 l 399 1069 z "},"깬":{"ha":1389,"x_min":76,"x_max":1342,"o":"m 265 271 l 501 271 l 501 -14 l 1342 -14 l 1342 -250 l 265 -250 l 265 271 m 1272 1083 l 1272 161 l 1050 161 l 1050 564 l 967 564 l 967 161 l 744 161 l 744 1083 l 967 1083 l 967 786 l 1050 786 l 1050 1083 l 1272 1083 m 399 1069 q 365 741 392 863 q 275 554 338 619 q 411 608 365 568 q 470 692 457 647 q 489 796 483 736 l 493 833 l 429 833 l 429 1069 l 711 1069 q 673 664 703 811 q 536 419 643 517 q 208 313 429 322 l 208 504 q 76 465 156 476 l 76 701 q 146 727 124 707 q 174 771 168 747 q 181 833 179 794 l 118 833 l 118 1069 l 399 1069 z "},"깯":{"ha":1389,"x_min":76,"x_max":1272,"o":"m 1272 243 l 1272 35 l 446 35 l 446 -42 l 1272 -42 l 1272 -250 l 210 -250 l 210 243 l 1272 243 m 1272 1083 l 1272 299 l 1050 299 l 1050 564 l 967 564 l 967 299 l 744 299 l 744 1083 l 967 1083 l 967 786 l 1050 786 l 1050 1083 l 1272 1083 m 399 1069 q 365 741 392 863 q 275 554 338 619 q 411 608 365 568 q 470 692 457 647 q 489 796 483 736 l 493 833 l 429 833 l 429 1069 l 711 1069 q 673 664 703 811 q 536 419 643 517 q 208 313 429 322 l 208 504 q 76 465 156 476 l 76 701 q 146 727 124 707 q 174 771 168 747 q 181 833 179 794 l 118 833 l 118 1069 l 399 1069 z "},"깰":{"ha":1389,"x_min":76,"x_max":1314,"o":"m 1036 153 l 1036 188 l 210 188 l 210 403 l 1272 403 l 1272 0 l 446 0 l 446 -35 l 1314 -35 l 1314 -250 l 210 -250 l 210 153 l 1036 153 m 1272 1083 l 1272 447 l 1050 447 l 1050 633 l 967 633 l 967 447 l 744 447 l 744 1083 l 967 1083 l 967 856 l 1050 856 l 1050 1083 l 1272 1083 m 399 1069 q 383 850 394 938 q 349 704 372 763 q 454 753 426 722 q 493 833 482 783 l 429 833 l 429 1069 l 711 1069 q 674 716 703 833 q 540 530 644 599 q 208 451 435 461 l 208 554 q 76 521 154 532 l 76 757 q 148 770 128 763 q 174 790 168 778 q 181 833 179 803 l 118 833 l 118 1069 l 399 1069 z "},"깸":{"ha":1389,"x_min":76,"x_max":1272,"o":"m 1272 243 l 1272 -250 l 210 -250 l 210 243 l 1272 243 m 1036 -42 l 1036 35 l 446 35 l 446 -42 l 1036 -42 m 1272 1083 l 1272 299 l 1050 299 l 1050 564 l 967 564 l 967 299 l 744 299 l 744 1083 l 967 1083 l 967 786 l 1050 786 l 1050 1083 l 1272 1083 m 399 1069 q 365 741 392 863 q 275 554 338 619 q 411 608 365 568 q 470 692 457 647 q 489 796 483 736 l 493 833 l 429 833 l 429 1069 l 711 1069 q 673 664 703 811 q 536 419 643 517 q 208 313 429 322 l 208 504 q 76 465 156 476 l 76 701 q 146 727 124 707 q 174 771 168 747 q 181 833 179 794 l 118 833 l 118 1069 l 399 1069 z "},"깹":{"ha":1389,"x_min":76,"x_max":1272,"o":"m 1272 257 l 1272 -250 l 210 -250 l 210 271 l 446 271 l 446 188 l 1036 188 l 1036 257 l 1272 257 m 1036 -42 l 1036 7 l 446 7 l 446 -42 l 1036 -42 m 1272 1083 l 1272 299 l 1050 299 l 1050 564 l 967 564 l 967 299 l 744 299 l 744 1083 l 967 1083 l 967 786 l 1050 786 l 1050 1083 l 1272 1083 m 399 1069 q 365 741 392 863 q 275 554 338 619 q 411 608 365 568 q 470 692 457 647 q 489 796 483 736 l 493 833 l 429 833 l 429 1069 l 711 1069 q 673 664 703 811 q 536 419 643 517 q 208 313 429 322 l 208 504 q 76 465 156 476 l 76 701 q 146 727 124 707 q 174 771 168 747 q 181 833 179 794 l 118 833 l 118 1069 l 399 1069 z "},"깻":{"ha":1389,"x_min":76,"x_max":1272,"o":"m 263 -14 q 435 2 346 -14 q 574 49 524 18 q 635 133 610 71 q 660 247 660 194 l 896 247 q 853 42 896 149 l 1272 -25 l 1272 -264 l 836 -194 l 836 6 q 699 -151 782 -100 q 493 -226 615 -203 q 263 -250 371 -250 l 214 -250 l 214 -14 l 263 -14 m 1272 1083 l 1272 160 l 1050 160 l 1050 564 l 967 564 l 967 299 l 744 299 l 744 1083 l 967 1083 l 967 786 l 1050 786 l 1050 1083 l 1272 1083 m 399 1069 q 365 741 392 863 q 275 554 338 619 q 411 608 365 568 q 470 692 457 647 q 489 796 483 736 l 493 833 l 429 833 l 429 1069 l 711 1069 q 673 664 703 811 q 536 419 643 517 q 208 313 429 322 l 208 504 q 76 465 156 476 l 76 701 q 146 727 124 707 q 174 771 168 747 q 181 833 179 794 l 118 833 l 118 1069 l 399 1069 z "},"깼":{"ha":1389,"x_min":76,"x_max":1342,"o":"m 1342 -269 l 1114 -200 l 1114 -83 q 989 -211 1071 -160 q 800 -262 907 -262 q 536 -183 671 -262 q 405 -235 479 -221 q 235 -250 331 -250 l 186 -250 l 186 -14 l 235 -14 q 361 -4 317 -14 q 421 33 406 6 q 435 76 432 51 q 438 150 438 100 l 438 264 l 674 264 l 674 157 q 664 15 674 65 q 799 -25 739 -25 q 865 -9 838 -25 q 907 33 893 7 q 921 76 918 51 q 924 150 924 100 l 924 264 l 1160 264 l 1160 168 q 1153 35 1160 85 l 1342 -22 l 1342 -269 m 1272 1083 l 1272 299 l 1050 299 l 1050 564 l 967 564 l 967 299 l 744 299 l 744 1083 l 967 1083 l 967 786 l 1050 786 l 1050 1083 l 1272 1083 m 399 1069 q 365 741 392 863 q 275 554 338 619 q 411 608 365 568 q 470 692 457 647 q 489 796 483 736 l 493 833 l 429 833 l 429 1069 l 711 1069 q 673 664 703 811 q 536 419 643 517 q 208 313 429 322 l 208 504 q 76 465 156 476 l 76 701 q 146 727 124 707 q 174 771 168 747 q 181 833 179 794 l 118 833 l 118 1069 l 399 1069 z "},"깽":{"ha":1389,"x_min":76,"x_max":1272,"o":"m 767 -56 q 949 -53 900 -56 q 1017 -38 999 -50 q 1036 4 1036 -26 q 1019 47 1036 35 q 956 63 1001 60 q 796 65 911 65 l 714 65 q 566 62 608 65 q 508 47 524 58 q 492 4 492 35 q 511 -38 492 -26 q 581 -53 531 -50 q 767 -56 631 -56 m 767 -278 q 444 -239 557 -278 q 294 -139 332 -200 q 256 4 256 -78 q 294 149 256 88 q 444 249 332 210 q 767 288 557 288 q 1087 248 975 288 q 1235 147 1199 208 q 1272 4 1272 86 q 1235 -137 1272 -76 q 1087 -238 1199 -199 q 767 -278 975 -278 m 399 1069 q 365 741 392 863 q 275 554 338 619 q 411 608 365 568 q 470 692 457 647 q 489 796 483 736 l 493 833 l 429 833 l 429 1069 l 711 1069 q 673 664 703 811 q 536 419 643 517 q 208 313 429 322 l 208 504 q 76 465 156 476 l 76 701 q 146 727 124 707 q 174 771 168 747 q 181 833 179 794 l 118 833 l 118 1069 l 399 1069 m 1272 1083 l 1272 299 l 1050 299 l 1050 564 l 967 564 l 967 354 l 744 354 l 744 1083 l 967 1083 l 967 786 l 1050 786 l 1050 1083 l 1272 1083 z "},"꺄":{"ha":1389,"x_min":76,"x_max":1365,"o":"m 500 1069 q 456 741 492 863 q 338 554 419 619 q 544 619 476 571 q 625 706 611 668 q 660 833 639 743 l 539 833 l 539 1069 l 910 1069 q 859 664 899 811 q 680 419 819 517 q 250 313 540 322 l 250 506 q 76 465 181 476 l 76 701 q 206 747 167 708 q 250 833 246 785 l 132 833 l 132 1069 l 500 1069 m 1217 1083 l 1217 -228 l 981 -228 l 981 1083 l 1217 1083 z "},"꺅":{"ha":1389,"x_min":76,"x_max":1365,"o":"m 1217 -250 l 981 -250 l 981 -7 l 154 -7 l 154 229 l 1217 229 l 1217 -250 m 1217 1083 l 1217 299 l 981 299 l 981 1083 l 1217 1083 m 500 1069 q 456 741 492 863 q 338 554 419 619 q 544 619 476 571 q 625 706 611 668 q 660 833 639 743 l 539 833 l 539 1069 l 910 1069 q 859 664 899 811 q 680 419 819 517 q 250 313 540 322 l 250 506 q 76 465 181 476 l 76 701 q 206 747 167 708 q 250 833 246 785 l 132 833 l 132 1069 l 500 1069 z "},"꺆":{"ha":1389,"x_min":76,"x_max":1365,"o":"m 536 -250 l 300 -250 l 300 -4 l 154 -4 l 154 229 l 536 229 l 536 -250 m 1217 -250 l 981 -250 l 981 -4 l 585 -4 l 585 229 l 1217 229 l 1217 -250 m 1217 1083 l 1217 299 l 981 299 l 981 1083 l 1217 1083 m 500 1069 q 456 741 492 863 q 338 554 419 619 q 544 619 476 571 q 625 706 611 668 q 660 833 639 743 l 539 833 l 539 1069 l 910 1069 q 859 664 899 811 q 680 419 819 517 q 250 313 540 322 l 250 506 q 76 465 181 476 l 76 701 q 206 747 167 708 q 250 833 246 785 l 132 833 l 132 1069 l 500 1069 z "},"꺌":{"ha":1389,"x_min":76,"x_max":1365,"o":"m 981 153 l 981 188 l 154 188 l 154 403 l 1217 403 l 1217 0 l 390 0 l 390 -35 l 1258 -35 l 1258 -250 l 154 -250 l 154 153 l 981 153 m 1217 1083 l 1217 451 l 981 451 l 981 1083 l 1217 1083 m 500 1069 q 469 848 492 938 q 399 699 446 758 q 565 739 511 713 q 633 790 619 765 q 660 863 646 814 l 539 863 l 539 1069 l 910 1069 q 859 748 899 865 q 680 553 819 631 q 250 468 540 476 l 250 596 q 76 561 179 569 l 76 783 q 209 809 171 789 q 250 863 247 829 l 132 863 l 132 1069 l 500 1069 m 1365 790 l 1217 790 l 1217 954 l 1365 954 l 1365 790 m 1365 569 l 1217 569 l 1217 733 l 1365 733 l 1365 569 z "},"꺍":{"ha":1389,"x_min":76,"x_max":1365,"o":"m 369 139 l 369 174 l 154 174 l 154 375 l 606 375 l 606 -14 l 390 -14 l 390 -49 l 883 -49 l 883 -250 l 154 -250 l 154 139 l 369 139 m 1217 -250 l 981 -250 l 981 139 l 682 139 l 682 375 l 1217 375 l 1217 -250 m 1217 1083 l 1217 451 l 981 451 l 981 1083 l 1217 1083 m 500 1069 q 469 848 492 938 q 399 699 446 758 q 565 739 511 713 q 633 790 619 765 q 660 863 646 814 l 539 863 l 539 1069 l 910 1069 q 859 748 899 865 q 680 553 819 631 q 250 468 540 476 l 250 596 q 76 561 179 569 l 76 783 q 209 809 171 789 q 250 863 247 829 l 132 863 l 132 1069 l 500 1069 m 1365 790 l 1217 790 l 1217 954 l 1365 954 l 1365 790 m 1365 569 l 1217 569 l 1217 733 l 1365 733 l 1365 569 z "},"꺠":{"ha":1389,"x_min":76,"x_max":1272,"o":"m 399 1069 q 365 741 392 863 q 275 554 338 619 q 411 608 365 568 q 470 692 457 647 q 489 796 483 736 l 493 833 l 429 833 l 429 1069 l 711 1069 q 673 664 703 811 q 536 419 643 517 q 208 313 429 322 l 208 504 q 76 465 156 476 l 76 701 q 146 727 124 707 q 174 771 168 747 q 181 833 179 794 l 118 833 l 118 1069 l 399 1069 m 1272 1083 l 1272 -229 l 1050 -229 l 1050 383 l 967 383 l 967 104 l 744 104 l 744 1083 l 967 1083 l 967 897 l 1050 897 l 1050 1083 l 1272 1083 m 1050 606 l 1050 675 l 967 675 l 967 606 l 1050 606 z "},"꺤":{"ha":1389,"x_min":76,"x_max":1342,"o":"m 265 271 l 501 271 l 501 -14 l 1342 -14 l 1342 -250 l 265 -250 l 265 271 m 1272 1083 l 1272 161 l 1050 161 l 1050 383 l 967 383 l 967 161 l 744 161 l 744 1083 l 967 1083 l 967 897 l 1050 897 l 1050 1083 l 1272 1083 m 399 1069 q 365 741 392 863 q 275 554 338 619 q 411 608 365 568 q 470 692 457 647 q 489 796 483 736 l 493 833 l 429 833 l 429 1069 l 711 1069 q 673 664 703 811 q 536 419 643 517 q 208 313 429 322 l 208 504 q 76 465 156 476 l 76 701 q 146 727 124 707 q 174 771 168 747 q 181 833 179 794 l 118 833 l 118 1069 l 399 1069 m 1050 606 l 1050 675 l 967 675 l 967 606 l 1050 606 z "},"꺼":{"ha":1389,"x_min":76,"x_max":1217,"o":"m 500 1069 q 456 741 492 863 q 338 554 419 619 q 544 619 476 571 q 625 706 611 668 q 660 833 639 743 l 539 833 l 539 1069 l 910 1069 l 907 1028 q 894 842 901 904 l 981 842 l 981 1083 l 1217 1083 l 1217 -228 l 981 -228 l 981 619 l 842 619 q 646 399 783 478 q 250 313 508 321 l 250 506 q 76 465 181 476 l 76 701 q 206 747 167 708 q 250 833 246 785 l 132 833 l 132 1069 l 500 1069 z "},"꺽":{"ha":1389,"x_min":76,"x_max":1217,"o":"m 1217 -250 l 981 -250 l 981 -7 l 154 -7 l 154 229 l 1217 229 l 1217 -250 m 1217 1083 l 1217 299 l 981 299 l 981 619 l 842 619 q 646 399 783 478 q 250 313 508 321 l 250 506 q 76 465 181 476 l 76 701 q 206 747 167 708 q 250 833 246 785 l 132 833 l 132 1069 l 500 1069 q 456 741 492 863 q 338 554 419 619 q 544 619 476 571 q 625 706 611 668 q 660 833 639 743 l 539 833 l 539 1069 l 910 1069 l 907 1028 q 894 842 901 904 l 981 842 l 981 1083 l 1217 1083 z "},"꺾":{"ha":1389,"x_min":76,"x_max":1217,"o":"m 536 -250 l 300 -250 l 300 -4 l 154 -4 l 154 229 l 536 229 l 536 -250 m 1217 -250 l 981 -250 l 981 -4 l 585 -4 l 585 229 l 1217 229 l 1217 -250 m 1217 1083 l 1217 299 l 981 299 l 981 619 l 842 619 q 646 399 783 478 q 250 313 508 321 l 250 506 q 76 465 181 476 l 76 701 q 206 747 167 708 q 250 833 246 785 l 132 833 l 132 1069 l 500 1069 q 456 741 492 863 q 338 554 419 619 q 544 619 476 571 q 625 706 611 668 q 660 833 639 743 l 539 833 l 539 1069 l 910 1069 l 907 1028 q 894 842 901 904 l 981 842 l 981 1083 l 1217 1083 z "},"껀":{"ha":1389,"x_min":76,"x_max":1286,"o":"m 210 271 l 446 271 l 446 -14 l 1286 -14 l 1286 -250 l 210 -250 l 210 271 m 1217 1083 l 1217 76 l 981 76 l 981 619 l 842 619 q 646 399 783 478 q 250 313 508 321 l 250 506 q 76 465 181 476 l 76 701 q 206 747 167 708 q 250 833 246 785 l 132 833 l 132 1069 l 500 1069 q 456 741 492 863 q 338 554 419 619 q 544 619 476 571 q 625 706 611 668 q 660 833 639 743 l 539 833 l 539 1069 l 910 1069 l 907 1028 q 894 842 901 904 l 981 842 l 981 1083 l 1217 1083 z "},"껄":{"ha":1389,"x_min":76,"x_max":1258,"o":"m 981 153 l 981 188 l 154 188 l 154 403 l 1217 403 l 1217 0 l 390 0 l 390 -35 l 1258 -35 l 1258 -250 l 154 -250 l 154 153 l 981 153 m 1217 1083 l 1217 451 l 981 451 l 981 619 l 774 619 q 575 512 701 550 q 250 468 449 474 l 250 596 q 76 561 179 569 l 76 783 q 209 809 171 789 q 250 863 247 829 l 132 863 l 132 1069 l 500 1069 q 469 848 492 938 q 399 699 446 758 q 565 739 511 713 q 633 790 619 765 q 660 863 646 814 l 539 863 l 539 1069 l 910 1069 q 886 842 901 921 l 981 842 l 981 1083 l 1217 1083 z "},"껌":{"ha":1389,"x_min":76,"x_max":1217,"o":"m 1217 243 l 1217 -250 l 154 -250 l 154 243 l 1217 243 m 981 -42 l 981 35 l 390 35 l 390 -42 l 981 -42 m 1217 1083 l 1217 299 l 981 299 l 981 619 l 842 619 q 646 399 783 478 q 250 313 508 321 l 250 506 q 76 465 181 476 l 76 701 q 206 747 167 708 q 250 833 246 785 l 132 833 l 132 1069 l 500 1069 q 456 741 492 863 q 338 554 419 619 q 544 619 476 571 q 625 706 611 668 q 660 833 639 743 l 539 833 l 539 1069 l 910 1069 l 907 1028 q 894 842 901 904 l 981 842 l 981 1083 l 1217 1083 z "},"껍":{"ha":1389,"x_min":76,"x_max":1217,"o":"m 1217 257 l 1217 -250 l 154 -250 l 154 271 l 390 271 l 390 188 l 981 188 l 981 257 l 1217 257 m 981 -42 l 981 7 l 390 7 l 390 -42 l 981 -42 m 1217 1083 l 1217 299 l 981 299 l 981 619 l 842 619 q 646 399 783 478 q 250 313 508 321 l 250 506 q 76 465 181 476 l 76 701 q 206 747 167 708 q 250 833 246 785 l 132 833 l 132 1069 l 500 1069 q 456 741 492 863 q 338 554 419 619 q 544 619 476 571 q 625 706 611 668 q 660 833 639 743 l 539 833 l 539 1069 l 910 1069 l 907 1028 q 894 842 901 904 l 981 842 l 981 1083 l 1217 1083 z "},"껏":{"ha":1389,"x_min":76,"x_max":1217,"o":"m 1217 1082 l 1217 146 l 981 146 l 981 619 l 842 619 q 646 399 783 478 q 250 313 508 321 l 250 506 q 76 465 181 476 l 76 701 q 206 747 167 708 q 250 833 246 785 l 132 833 l 132 1069 l 500 1069 q 456 741 492 863 q 338 554 419 619 q 544 619 476 571 q 625 706 611 668 q 660 833 639 743 l 539 833 l 539 1069 l 910 1069 l 907 1028 q 894 842 901 904 l 981 842 l 981 1082 l 1217 1082 m 207 -14 q 379 2 290 -14 q 518 49 468 18 q 579 133 554 71 q 604 247 604 194 l 840 247 q 797 42 840 149 l 1217 -25 l 1217 -264 l 781 -194 l 781 6 q 643 -151 726 -100 q 438 -226 560 -203 q 207 -250 315 -250 l 158 -250 l 158 -14 l 207 -14 z "},"껐":{"ha":1389,"x_min":76,"x_max":1286,"o":"m 1286 -269 l 1058 -200 l 1058 -83 q 933 -211 1015 -160 q 744 -262 851 -262 q 481 -183 615 -262 q 349 -235 424 -221 q 179 -250 275 -250 l 131 -250 l 131 -14 l 179 -14 q 306 -4 261 -14 q 365 33 350 6 q 379 76 376 51 q 382 150 382 100 l 382 264 l 618 264 l 618 157 q 608 15 618 65 q 743 -25 683 -25 q 810 -9 782 -25 q 851 33 838 7 q 865 76 863 51 q 868 150 868 100 l 868 264 l 1104 264 l 1104 168 q 1097 35 1104 85 l 1286 -22 l 1286 -269 m 1217 1083 l 1217 299 l 981 299 l 981 619 l 842 619 q 646 399 783 478 q 250 313 508 321 l 250 506 q 76 465 181 476 l 76 701 q 206 747 167 708 q 250 833 246 785 l 132 833 l 132 1069 l 500 1069 q 456 741 492 863 q 338 554 419 619 q 544 619 476 571 q 625 706 611 668 q 660 833 639 743 l 539 833 l 539 1069 l 910 1069 l 907 1028 q 894 842 901 904 l 981 842 l 981 1083 l 1217 1083 z "},"껑":{"ha":1389,"x_min":76,"x_max":1217,"o":"m 711 -56 q 894 -53 844 -56 q 962 -38 943 -50 q 981 4 981 -26 q 963 47 981 35 q 901 63 946 60 q 740 65 856 65 l 658 65 q 510 62 553 65 q 452 47 468 58 q 436 4 436 35 q 456 -38 436 -26 q 525 -53 475 -50 q 711 -56 575 -56 m 711 -278 q 389 -239 501 -278 q 238 -139 276 -200 q 200 4 200 -78 q 238 149 200 88 q 389 249 276 210 q 711 288 501 288 q 1031 248 919 288 q 1180 147 1143 208 q 1217 4 1217 86 q 1180 -137 1217 -76 q 1031 -238 1143 -199 q 711 -278 919 -278 m 1217 1083 l 1217 299 l 981 299 l 981 619 l 842 619 q 646 399 783 478 q 250 313 508 321 l 250 506 q 76 465 181 476 l 76 701 q 206 747 167 708 q 250 833 246 785 l 132 833 l 132 1069 l 500 1069 q 456 741 492 863 q 338 554 419 619 q 544 619 476 571 q 625 706 611 668 q 660 833 639 743 l 539 833 l 539 1069 l 910 1069 l 907 1028 q 894 842 901 904 l 981 842 l 981 1083 l 1217 1083 z "},"껓":{"ha":1389,"x_min":76,"x_max":1217,"o":"m 249 -35 l 304 -35 q 434 -28 383 -35 q 522 1 485 -21 q 551 39 535 8 l 200 39 l 200 226 l 606 226 q 611 296 611 279 l 833 296 q 829 226 833 264 l 1217 226 l 1217 39 l 790 39 l 785 22 l 1217 -65 l 1217 -279 l 739 -182 l 739 -76 q 639 -187 697 -151 q 491 -244 569 -231 q 317 -257 413 -257 l 249 -257 l 158 -257 l 158 -35 l 249 -35 m 1217 1083 l 1217 299 l 981 299 l 981 619 l 842 619 q 646 399 783 478 q 250 313 508 321 l 250 506 q 76 465 181 476 l 76 701 q 206 747 167 708 q 250 833 246 785 l 132 833 l 132 1069 l 500 1069 q 456 741 492 863 q 338 554 419 619 q 544 619 476 571 q 625 706 611 668 q 660 833 639 743 l 539 833 l 539 1069 l 910 1069 l 907 1028 q 894 842 901 904 l 981 842 l 981 1083 l 1217 1083 z "},"껕":{"ha":1389,"x_min":76,"x_max":1217,"o":"m 1217 375 l 1217 174 l 460 174 l 460 139 l 1175 139 l 1175 -14 l 460 -14 l 460 -49 l 1217 -49 l 1217 -250 l 224 -250 l 224 375 l 1217 375 m 1217 1083 l 1217 451 l 981 451 l 981 619 l 774 619 q 575 512 701 550 q 250 468 449 474 l 250 596 q 76 561 179 569 l 76 783 q 209 809 171 789 q 250 863 247 829 l 132 863 l 132 1069 l 500 1069 q 469 848 492 938 q 399 699 446 758 q 565 739 511 713 q 633 790 619 765 q 660 863 646 814 l 539 863 l 539 1069 l 910 1069 q 886 842 901 921 l 981 842 l 981 1083 l 1217 1083 z "},"께":{"ha":1389,"x_min":76,"x_max":1272,"o":"m 399 1069 q 365 741 392 863 q 275 554 338 619 q 411 608 365 568 q 470 692 457 647 q 489 796 483 736 l 493 833 l 429 833 l 429 1069 l 711 1069 q 700 856 706 926 l 744 856 l 744 1083 l 967 1083 l 967 104 l 744 104 l 744 633 l 664 633 q 515 403 621 485 q 208 313 410 321 l 208 504 q 76 465 156 476 l 76 701 q 146 727 124 707 q 174 771 168 747 q 181 833 179 794 l 118 833 l 118 1069 l 399 1069 m 1272 1083 l 1272 -229 l 1050 -229 l 1050 1083 l 1272 1083 z "},"껙":{"ha":1389,"x_min":76,"x_max":1272,"o":"m 1272 -250 l 1036 -250 l 1036 -7 l 210 -7 l 210 229 l 1272 229 l 1272 -250 m 1272 1083 l 1272 299 l 1050 299 l 1050 1083 l 1272 1083 m 967 1083 l 967 299 l 744 299 l 744 633 l 664 633 q 515 403 621 485 q 208 313 410 321 l 208 504 q 76 465 156 476 l 76 701 q 146 727 124 707 q 174 771 168 747 q 181 833 179 794 l 118 833 l 118 1069 l 399 1069 q 365 741 392 863 q 275 554 338 619 q 411 608 365 568 q 470 692 457 647 q 489 796 483 736 l 493 833 l 429 833 l 429 1069 l 711 1069 q 700 856 706 926 l 744 856 l 744 1083 l 967 1083 z "},"껜":{"ha":1389,"x_min":76,"x_max":1342,"o":"m 265 271 l 501 271 l 501 -14 l 1342 -14 l 1342 -250 l 265 -250 l 265 271 m 1272 1083 l 1272 161 l 1050 161 l 1050 1083 l 1272 1083 m 967 1083 l 967 161 l 744 161 l 744 633 l 664 633 q 515 403 621 485 q 208 313 410 321 l 208 504 q 76 465 156 476 l 76 701 q 146 727 124 707 q 174 771 168 747 q 181 833 179 794 l 118 833 l 118 1069 l 399 1069 q 365 741 392 863 q 275 554 338 619 q 411 608 365 568 q 470 692 457 647 q 489 796 483 736 l 493 833 l 429 833 l 429 1069 l 711 1069 q 700 856 706 926 l 744 856 l 744 1083 l 967 1083 z "},"껨":{"ha":1389,"x_min":76,"x_max":1272,"o":"m 1272 243 l 1272 -250 l 210 -250 l 210 243 l 1272 243 m 1036 -42 l 1036 35 l 446 35 l 446 -42 l 1036 -42 m 1272 1083 l 1272 299 l 1050 299 l 1050 1083 l 1272 1083 m 967 1083 l 967 299 l 744 299 l 744 633 l 664 633 q 515 403 621 485 q 208 313 410 321 l 208 504 q 76 465 156 476 l 76 701 q 146 727 124 707 q 174 771 168 747 q 181 833 179 794 l 118 833 l 118 1069 l 399 1069 q 365 741 392 863 q 275 554 338 619 q 411 608 365 568 q 470 692 457 647 q 489 796 483 736 l 493 833 l 429 833 l 429 1069 l 711 1069 q 700 856 706 926 l 744 856 l 744 1083 l 967 1083 z "},"껫":{"ha":1389,"x_min":76,"x_max":1272,"o":"m 263 -14 q 435 2 346 -14 q 574 49 524 18 q 635 133 610 71 q 660 247 660 194 l 896 247 q 853 42 896 149 l 1272 -25 l 1272 -264 l 836 -194 l 836 6 q 699 -151 782 -100 q 493 -226 615 -203 q 263 -250 371 -250 l 214 -250 l 214 -14 l 263 -14 m 1272 1083 l 1272 160 l 1050 160 l 1050 1083 l 1272 1083 m 967 1083 l 967 299 l 744 299 l 744 633 l 664 633 q 515 403 621 485 q 208 313 410 321 l 208 504 q 76 465 156 476 l 76 701 q 146 727 124 707 q 174 771 168 747 q 181 833 179 794 l 118 833 l 118 1069 l 399 1069 q 365 741 392 863 q 275 554 338 619 q 411 608 365 568 q 470 692 457 647 q 489 796 483 736 l 493 833 l 429 833 l 429 1069 l 711 1069 q 700 856 706 926 l 744 856 l 744 1083 l 967 1083 z "},"껭":{"ha":1389,"x_min":76,"x_max":1272,"o":"m 767 -56 q 949 -53 900 -56 q 1017 -38 999 -50 q 1036 4 1036 -26 q 1019 47 1036 35 q 956 63 1001 60 q 796 65 911 65 l 714 65 q 566 62 608 65 q 508 47 524 58 q 492 4 492 35 q 511 -38 492 -26 q 581 -53 531 -50 q 767 -56 631 -56 m 767 -278 q 444 -239 557 -278 q 294 -139 332 -200 q 256 4 256 -78 q 294 149 256 88 q 444 249 332 210 q 767 288 557 288 q 1087 248 975 288 q 1235 147 1199 208 q 1272 4 1272 86 q 1235 -137 1272 -76 q 1087 -238 1199 -199 q 767 -278 975 -278 m 399 1069 q 365 741 392 863 q 275 554 338 619 q 411 608 365 568 q 470 692 457 647 q 489 796 483 736 l 493 833 l 429 833 l 429 1069 l 711 1069 q 700 856 706 926 l 744 856 l 744 1083 l 967 1083 l 967 354 l 744 354 l 744 633 l 664 633 q 515 403 621 485 q 208 313 410 321 l 208 504 q 76 465 156 476 l 76 701 q 146 727 124 707 q 174 771 168 747 q 181 833 179 794 l 118 833 l 118 1069 l 399 1069 m 1272 1083 l 1272 299 l 1050 299 l 1050 1083 l 1272 1083 z "},"껴":{"ha":1389,"x_min":76,"x_max":1217,"o":"m 500 1069 q 456 741 492 863 q 338 554 419 619 q 544 619 476 571 q 625 706 611 668 q 660 833 639 743 l 539 833 l 539 1069 l 910 1069 l 903 939 l 981 939 l 981 1083 l 1217 1083 l 1217 -228 l 981 -228 l 981 451 l 806 451 l 806 547 q 606 381 739 440 q 250 313 474 321 l 250 506 q 76 465 181 476 l 76 701 q 206 747 167 708 q 250 833 246 785 l 132 833 l 132 1069 l 500 1069 m 981 654 l 981 738 l 878 738 q 856 654 865 685 l 981 654 z "},"껸":{"ha":1389,"x_min":76,"x_max":1286,"o":"m 210 271 l 446 271 l 446 -14 l 1286 -14 l 1286 -250 l 210 -250 l 210 271 m 1217 1083 l 1217 76 l 981 76 l 981 451 l 806 451 l 806 547 q 606 381 739 440 q 250 313 474 321 l 250 506 q 76 465 181 476 l 76 701 q 206 747 167 708 q 250 833 246 785 l 132 833 l 132 1069 l 500 1069 q 456 741 492 863 q 338 554 419 619 q 544 619 476 571 q 625 706 611 668 q 660 833 639 743 l 539 833 l 539 1069 l 910 1069 l 903 939 l 981 939 l 981 1083 l 1217 1083 m 981 654 l 981 738 l 878 738 q 856 654 865 685 l 981 654 z "},"껼":{"ha":1389,"x_min":76,"x_max":1258,"o":"m 981 153 l 981 188 l 154 188 l 154 403 l 1217 403 l 1217 0 l 390 0 l 390 -35 l 1258 -35 l 1258 -250 l 154 -250 l 154 153 l 981 153 m 1217 1083 l 1217 451 l 981 451 l 981 521 l 806 521 l 806 656 q 606 522 739 569 q 250 468 474 474 l 250 596 q 76 561 179 569 l 76 783 q 209 809 171 789 q 250 863 247 829 l 132 863 l 132 1069 l 500 1069 q 469 848 492 938 q 399 699 446 758 q 565 739 511 713 q 633 790 619 765 q 660 863 646 814 l 539 863 l 539 1069 l 910 1069 l 906 1008 l 981 1008 l 981 1083 l 1217 1083 m 981 724 l 981 807 l 878 807 q 847 724 864 760 l 981 724 z "},"꼇":{"ha":1389,"x_min":76,"x_max":1217,"o":"m 1217 1082 l 1217 146 l 981 146 l 981 451 l 806 451 l 806 547 q 606 381 739 440 q 250 313 474 321 l 250 506 q 76 465 181 476 l 76 701 q 206 747 167 708 q 250 833 246 785 l 132 833 l 132 1069 l 500 1069 q 456 741 492 863 q 338 554 419 619 q 544 619 476 571 q 625 706 611 668 q 660 833 639 743 l 539 833 l 539 1069 l 910 1069 l 903 939 l 981 939 l 981 1082 l 1217 1082 m 207 -14 q 379 2 290 -14 q 518 49 468 18 q 579 133 554 71 q 604 247 604 194 l 840 247 q 797 42 840 149 l 1217 -25 l 1217 -264 l 781 -194 l 781 6 q 643 -151 726 -100 q 438 -226 560 -203 q 207 -250 315 -250 l 158 -250 l 158 -14 l 207 -14 m 981 654 l 981 738 l 878 738 q 856 654 865 685 l 981 654 z "},"꼈":{"ha":1389,"x_min":76,"x_max":1286,"o":"m 1286 -269 l 1058 -200 l 1058 -83 q 933 -211 1015 -160 q 744 -262 851 -262 q 481 -183 615 -262 q 349 -235 424 -221 q 179 -250 275 -250 l 131 -250 l 131 -14 l 179 -14 q 306 -4 261 -14 q 365 33 350 6 q 379 76 376 51 q 382 150 382 100 l 382 264 l 618 264 l 618 157 q 608 15 618 65 q 743 -25 683 -25 q 810 -9 782 -25 q 851 33 838 7 q 865 76 863 51 q 868 150 868 100 l 868 264 l 1104 264 l 1104 168 q 1097 35 1104 85 l 1286 -22 l 1286 -269 m 1217 1083 l 1217 299 l 981 299 l 981 451 l 806 451 l 806 547 q 606 381 739 440 q 250 313 474 321 l 250 506 q 76 465 181 476 l 76 701 q 206 747 167 708 q 250 833 246 785 l 132 833 l 132 1069 l 500 1069 q 456 741 492 863 q 338 554 419 619 q 544 619 476 571 q 625 706 611 668 q 660 833 639 743 l 539 833 l 539 1069 l 910 1069 l 903 939 l 981 939 l 981 1083 l 1217 1083 m 981 654 l 981 738 l 878 738 q 856 654 865 685 l 981 654 z "},"꼉":{"ha":1389,"x_min":76,"x_max":1217,"o":"m 711 -56 q 894 -53 844 -56 q 962 -38 943 -50 q 981 4 981 -26 q 963 47 981 35 q 901 63 946 60 q 740 65 856 65 l 658 65 q 510 62 553 65 q 452 47 468 58 q 436 4 436 35 q 456 -38 436 -26 q 525 -53 475 -50 q 711 -56 575 -56 m 711 -278 q 389 -239 501 -278 q 238 -139 276 -200 q 200 4 200 -78 q 238 149 200 88 q 389 249 276 210 q 711 288 501 288 q 1031 248 919 288 q 1180 147 1143 208 q 1217 4 1217 86 q 1180 -137 1217 -76 q 1031 -238 1143 -199 q 711 -278 919 -278 m 1217 1083 l 1217 299 l 981 299 l 981 451 l 806 451 l 806 547 q 606 381 739 440 q 250 313 474 321 l 250 506 q 76 465 181 476 l 76 701 q 206 747 167 708 q 250 833 246 785 l 132 833 l 132 1069 l 500 1069 q 456 741 492 863 q 338 554 419 619 q 544 619 476 571 q 625 706 611 668 q 660 833 639 743 l 539 833 l 539 1069 l 910 1069 l 903 939 l 981 939 l 981 1083 l 1217 1083 m 981 654 l 981 738 l 878 738 q 856 654 865 685 l 981 654 z "},"꼍":{"ha":1389,"x_min":76,"x_max":1217,"o":"m 1217 375 l 1217 174 l 460 174 l 460 139 l 1175 139 l 1175 -14 l 460 -14 l 460 -49 l 1217 -49 l 1217 -250 l 224 -250 l 224 375 l 1217 375 m 1217 1083 l 1217 451 l 981 451 l 981 521 l 806 521 l 806 656 q 606 522 739 569 q 250 468 474 474 l 250 596 q 76 561 179 569 l 76 783 q 209 809 171 789 q 250 863 247 829 l 132 863 l 132 1069 l 500 1069 q 469 848 492 938 q 399 699 446 758 q 565 739 511 713 q 633 790 619 765 q 660 863 646 814 l 539 863 l 539 1069 l 910 1069 l 906 1008 l 981 1008 l 981 1083 l 1217 1083 m 981 724 l 981 807 l 878 807 q 847 724 864 760 l 981 724 z "},"꼐":{"ha":1389,"x_min":76,"x_max":1272,"o":"m 399 1069 q 365 741 392 863 q 275 554 338 619 q 411 608 365 568 q 470 692 457 647 q 489 796 483 736 l 493 833 l 429 833 l 429 1069 l 711 1069 q 703 897 710 981 l 744 897 l 744 1083 l 967 1083 l 967 104 l 744 104 l 744 500 l 606 500 q 454 367 550 414 q 208 313 358 319 l 208 504 q 76 465 156 476 l 76 701 q 146 727 124 707 q 174 771 168 747 q 181 833 179 794 l 118 833 l 118 1069 l 399 1069 m 1272 1083 l 1272 -229 l 1050 -229 l 1050 1083 l 1272 1083 m 744 661 l 744 736 l 686 736 q 671 661 678 686 l 744 661 z "},"꼬":{"ha":1389,"x_min":63,"x_max":1326,"o":"m 536 590 l 300 590 l 300 836 l 154 836 l 154 1069 l 536 1069 l 536 590 m 1217 590 l 981 590 l 981 836 l 585 836 l 585 1069 l 1217 1069 l 1217 590 m 1326 118 l 63 118 l 63 340 l 583 340 l 583 543 l 806 543 l 806 340 l 1326 340 l 1326 118 z "},"꼭":{"ha":1389,"x_min":63,"x_max":1326,"o":"m 1217 -250 l 981 -250 l 981 -7 l 154 -7 l 154 229 l 1217 229 l 1217 -250 m 1326 299 l 63 299 l 63 521 l 583 521 l 583 710 l 806 710 l 806 521 l 1326 521 l 1326 299 m 536 590 l 300 590 l 300 836 l 154 836 l 154 1069 l 536 1069 l 536 590 m 1217 590 l 981 590 l 981 836 l 585 836 l 585 1069 l 1217 1069 l 1217 590 z "},"꼰":{"ha":1389,"x_min":63,"x_max":1326,"o":"m 154 213 l 390 213 l 390 -14 l 1217 -14 l 1217 -250 l 154 -250 l 154 213 m 536 590 l 300 590 l 300 836 l 154 836 l 154 1069 l 536 1069 l 536 590 m 1217 590 l 981 590 l 981 836 l 585 836 l 585 1069 l 1217 1069 l 1217 590 m 1326 299 l 63 299 l 63 521 l 583 521 l 583 710 l 806 710 l 806 521 l 1326 521 l 1326 299 z "},"꼲":{"ha":1389,"x_min":63,"x_max":1326,"o":"m 126 229 l 363 229 l 363 -28 l 628 -28 l 628 -250 l 126 -250 l 126 229 m 1217 35 l 1178 35 q 1186 -43 1186 -1 q 1120 -228 1186 -160 q 928 -296 1054 -296 q 733 -228 800 -296 q 667 -43 667 -160 q 676 35 667 0 l 440 35 l 440 229 l 811 229 l 811 278 l 1047 278 l 1047 229 l 1217 229 l 1217 35 m 928 -115 q 990 -101 975 -115 q 1006 -43 1006 -86 q 990 13 1006 -1 q 928 26 975 26 q 863 13 879 26 q 847 -43 847 -1 q 863 -101 847 -86 q 928 -115 878 -115 m 536 590 l 300 590 l 300 836 l 154 836 l 154 1069 l 536 1069 l 536 590 m 1217 590 l 981 590 l 981 836 l 585 836 l 585 1069 l 1217 1069 l 1217 590 m 1326 326 l 63 326 l 63 549 l 583 549 l 583 710 l 806 710 l 806 549 l 1326 549 l 1326 326 z "},"꼳":{"ha":1389,"x_min":63,"x_max":1326,"o":"m 1217 243 l 1217 35 l 390 35 l 390 -42 l 1217 -42 l 1217 -250 l 154 -250 l 154 243 l 1217 243 m 536 590 l 300 590 l 300 836 l 154 836 l 154 1069 l 536 1069 l 536 590 m 1217 590 l 981 590 l 981 836 l 585 836 l 585 1069 l 1217 1069 l 1217 590 m 1326 299 l 63 299 l 63 521 l 583 521 l 583 710 l 806 710 l 806 521 l 1326 521 l 1326 299 z "},"꼴":{"ha":1389,"x_min":63,"x_max":1326,"o":"m 981 153 l 981 188 l 154 188 l 154 403 l 1217 403 l 1217 0 l 390 0 l 390 -35 l 1258 -35 l 1258 -250 l 154 -250 l 154 153 l 981 153 m 536 674 l 583 674 l 583 765 l 806 765 l 806 674 l 981 674 l 981 836 l 585 836 l 585 1069 l 1217 1069 l 1217 674 l 1326 674 l 1326 451 l 63 451 l 63 674 l 300 674 l 300 836 l 154 836 l 154 1069 l 536 1069 l 536 674 z "},"꼼":{"ha":1389,"x_min":63,"x_max":1326,"o":"m 1217 243 l 1217 -250 l 154 -250 l 154 243 l 1217 243 m 981 -42 l 981 35 l 390 35 l 390 -42 l 981 -42 m 536 590 l 300 590 l 300 836 l 154 836 l 154 1069 l 536 1069 l 536 590 m 1217 590 l 981 590 l 981 836 l 585 836 l 585 1069 l 1217 1069 l 1217 590 m 1326 313 l 63 313 l 63 535 l 583 535 l 583 710 l 806 710 l 806 535 l 1326 535 l 1326 313 z "},"꼽":{"ha":1389,"x_min":63,"x_max":1326,"o":"m 1217 257 l 1217 -250 l 154 -250 l 154 271 l 390 271 l 390 188 l 981 188 l 981 257 l 1217 257 m 981 -42 l 981 7 l 390 7 l 390 -42 l 981 -42 m 536 590 l 300 590 l 300 836 l 154 836 l 154 1069 l 536 1069 l 536 590 m 1217 590 l 981 590 l 981 836 l 585 836 l 585 1069 l 1217 1069 l 1217 590 m 1326 313 l 63 313 l 63 535 l 583 535 l 583 710 l 806 710 l 806 535 l 1326 535 l 1326 313 z "},"꼿":{"ha":1389,"x_min":63,"x_max":1326,"o":"m 207 -14 q 379 2 290 -14 q 518 49 468 18 q 579 133 554 71 q 604 247 604 194 l 840 247 q 797 42 840 149 l 1258 -25 l 1258 -264 l 781 -194 l 781 6 q 643 -151 726 -100 q 438 -226 560 -203 q 207 -250 315 -250 l 117 -250 l 117 -14 l 207 -14 m 536 590 l 300 590 l 300 836 l 154 836 l 154 1069 l 536 1069 l 536 590 m 1217 590 l 981 590 l 981 836 l 585 836 l 585 1069 l 1217 1069 l 1217 590 m 1326 299 l 63 299 l 63 521 l 583 521 l 583 710 l 806 710 l 806 521 l 1326 521 l 1326 299 z "},"꽁":{"ha":1389,"x_min":63,"x_max":1326,"o":"m 697 -56 q 892 -52 833 -56 q 974 -37 951 -49 q 997 0 997 -26 q 974 40 997 28 q 894 55 951 51 q 697 58 836 58 q 497 55 556 58 q 415 40 439 51 q 392 0 392 28 q 415 -37 392 -26 q 499 -52 439 -49 q 697 -56 558 -56 m 697 -278 q 354 -240 474 -278 q 195 -141 235 -201 q 156 0 156 -81 q 195 144 156 83 q 354 242 235 204 q 697 281 474 281 q 1036 242 918 281 q 1194 144 1154 204 q 1233 0 1233 83 q 1194 -141 1233 -81 q 1036 -240 1154 -201 q 697 -278 918 -278 m 536 590 l 300 590 l 300 836 l 154 836 l 154 1069 l 536 1069 l 536 590 m 1217 590 l 981 590 l 981 836 l 585 836 l 585 1069 l 1217 1069 l 1217 590 m 1326 326 l 63 326 l 63 549 l 583 549 l 583 710 l 806 710 l 806 549 l 1326 549 l 1326 326 z "},"꽂":{"ha":1389,"x_min":63,"x_max":1326,"o":"m 249 -14 q 395 1 325 -14 q 518 49 465 17 l 524 53 l 200 53 l 200 261 l 1217 261 l 1217 53 l 801 53 l 782 8 l 1244 -81 l 1244 -292 l 739 -194 l 739 -61 q 643 -151 699 -117 q 456 -227 558 -204 q 249 -250 353 -250 l 117 -250 l 117 -14 l 249 -14 m 536 590 l 300 590 l 300 836 l 154 836 l 154 1069 l 536 1069 l 536 590 m 1217 590 l 981 590 l 981 836 l 585 836 l 585 1069 l 1217 1069 l 1217 590 m 1326 299 l 63 299 l 63 521 l 583 521 l 583 710 l 806 710 l 806 521 l 1326 521 l 1326 299 z "},"꽃":{"ha":1389,"x_min":63,"x_max":1326,"o":"m 249 -35 l 304 -35 q 434 -28 383 -35 q 522 1 485 -21 q 543 25 532 7 l 158 25 l 158 233 l 606 233 q 611 296 611 265 l 833 296 q 831 233 833 278 l 1217 233 l 1217 25 l 785 25 l 775 -3 l 1217 -93 l 1217 -307 l 739 -210 l 739 -76 q 639 -187 697 -151 q 491 -244 569 -231 q 317 -257 413 -257 l 249 -257 l 117 -257 l 117 -35 l 249 -35 m 536 590 l 300 590 l 300 836 l 154 836 l 154 1069 l 536 1069 l 536 590 m 1217 590 l 981 590 l 981 836 l 585 836 l 585 1069 l 1217 1069 l 1217 590 m 1326 326 l 63 326 l 63 549 l 583 549 l 583 710 l 806 710 l 806 549 l 1326 549 l 1326 326 z "},"꽅":{"ha":1389,"x_min":63,"x_max":1326,"o":"m 1217 375 l 1217 174 l 390 174 l 390 139 l 1175 139 l 1175 -14 l 390 -14 l 390 -49 l 1217 -49 l 1217 -250 l 154 -250 l 154 375 l 1217 375 m 536 674 l 583 674 l 583 765 l 806 765 l 806 674 l 981 674 l 981 836 l 585 836 l 585 1069 l 1217 1069 l 1217 674 l 1326 674 l 1326 451 l 63 451 l 63 674 l 300 674 l 300 836 l 154 836 l 154 1069 l 536 1069 l 536 674 z "},"꽈":{"ha":1389,"x_min":25,"x_max":1365,"o":"m 179 501 q 206 785 189 529 l 208 833 l 90 833 l 90 1069 l 458 1069 q 426 592 446 749 l 560 592 l 560 389 l 915 411 l 915 175 l 25 119 l 25 356 l 324 374 l 324 501 l 179 501 m 596 501 q 610 667 604 561 q 618 833 617 772 l 497 833 l 497 1069 l 868 1069 l 865 985 q 853 699 858 811 q 836 501 847 586 l 596 501 m 1217 1083 l 1217 801 l 1365 801 l 1365 565 l 1217 565 l 1217 -228 l 981 -228 l 981 1083 l 1217 1083 z "},"꽉":{"ha":1389,"x_min":25,"x_max":1365,"o":"m 1217 -250 l 981 -250 l 981 -7 l 154 -7 l 154 229 l 1217 229 l 1217 -250 m 1217 1083 l 1217 801 l 1365 801 l 1365 565 l 1217 565 l 1217 299 l 981 299 l 981 1083 l 1217 1083 m 25 272 l 25 508 l 324 526 l 324 661 l 560 661 l 560 542 l 915 564 l 915 328 l 25 272 m 193 696 q 210 765 201 722 q 222 833 219 808 l 104 833 l 104 1069 l 472 1069 q 426 696 464 854 l 193 696 m 617 693 q 632 833 631 793 l 511 833 l 511 1069 l 882 1069 q 870 840 876 935 q 850 640 864 746 l 610 640 l 617 693 z "},"꽌":{"ha":1389,"x_min":25,"x_max":1365,"o":"m 210 215 l 446 215 l 446 -14 l 1286 -14 l 1286 -250 l 210 -250 l 210 215 m 1217 1083 l 1217 801 l 1365 801 l 1365 565 l 1217 565 l 1217 76 l 981 76 l 981 1083 l 1217 1083 m 25 272 l 25 508 l 324 526 l 324 661 l 560 661 l 560 542 l 915 564 l 915 328 l 25 272 m 193 696 q 210 765 201 722 q 222 833 219 808 l 104 833 l 104 1069 l 472 1069 q 426 696 464 854 l 193 696 m 617 693 q 632 833 631 793 l 511 833 l 511 1069 l 882 1069 q 870 840 876 935 q 850 640 864 746 l 610 640 l 617 693 z "},"꽐":{"ha":1389,"x_min":25,"x_max":1365,"o":"m 981 125 l 981 160 l 154 160 l 154 347 l 1217 347 l 1217 -28 l 390 -28 l 390 -62 l 1258 -62 l 1258 -250 l 154 -250 l 154 125 l 981 125 m 1217 1083 l 1217 801 l 1365 801 l 1365 565 l 1217 565 l 1217 404 l 981 404 l 981 1083 l 1217 1083 m 25 369 l 25 578 l 324 596 l 324 689 l 560 689 l 560 611 l 915 633 l 915 425 l 25 369 m 201 724 q 222 833 217 767 l 104 833 l 104 1069 l 472 1069 q 458 890 468 969 q 426 724 447 810 l 201 724 m 610 682 q 632 833 629 782 l 511 833 l 511 1069 l 882 1069 q 872 872 878 951 q 850 682 865 793 l 610 682 z "},"꽜":{"ha":1389,"x_min":25,"x_max":1365,"o":"m 1286 -269 l 1058 -200 l 1058 -97 q 938 -219 1017 -171 q 756 -267 858 -267 q 490 -189 628 -267 q 361 -240 433 -229 q 179 -250 289 -250 l 131 -250 l 131 -14 l 179 -14 q 315 -8 276 -14 q 365 19 353 -3 q 378 47 375 36 q 381 96 381 58 q 382 194 382 133 l 618 194 l 618 107 q 613 13 618 40 q 754 -31 689 -31 q 815 -17 790 -31 q 851 19 840 -3 q 864 47 861 36 q 867 96 867 58 q 868 194 868 133 l 1104 194 l 1104 118 q 1101 33 1104 58 l 1286 -22 l 1286 -269 m 1217 1083 l 1217 801 l 1365 801 l 1365 565 l 1217 565 l 1217 299 l 981 299 l 981 1083 l 1217 1083 m 25 272 l 25 508 l 324 526 l 324 661 l 560 661 l 560 542 l 915 564 l 915 328 l 25 272 m 193 696 q 210 765 201 722 q 222 833 219 808 l 104 833 l 104 1069 l 472 1069 q 426 696 464 854 l 193 696 m 617 693 q 632 833 631 793 l 511 833 l 511 1069 l 882 1069 q 870 840 876 935 q 850 640 864 746 l 610 640 l 617 693 z "},"꽝":{"ha":1389,"x_min":25,"x_max":1365,"o":"m 711 -42 q 891 -40 825 -42 q 969 -35 957 -39 q 981 -17 981 -31 q 969 1 981 -3 q 891 7 957 6 q 711 8 825 8 q 528 7 596 8 q 449 1 461 6 q 436 -17 436 -3 q 449 -35 436 -31 q 528 -40 461 -39 q 711 -42 596 -42 m 711 -264 q 388 -232 500 -264 q 238 -147 275 -200 q 200 -17 200 -94 q 238 115 200 61 q 388 199 275 168 q 711 231 500 231 q 1032 199 921 231 q 1180 114 1143 167 q 1217 -17 1217 61 q 1180 -147 1217 -93 q 1032 -232 1143 -200 q 711 -264 921 -264 m 1217 1083 l 1217 801 l 1365 801 l 1365 565 l 1217 565 l 1217 299 l 981 299 l 981 1083 l 1217 1083 m 25 272 l 25 508 l 324 526 l 324 661 l 560 661 l 560 542 l 915 564 l 915 328 l 25 272 m 193 696 q 210 765 201 722 q 222 833 219 808 l 104 833 l 104 1069 l 472 1069 q 426 696 464 854 l 193 696 m 617 693 q 632 833 631 793 l 511 833 l 511 1069 l 882 1069 q 870 840 876 935 q 850 640 864 746 l 610 640 l 617 693 z "},"꽤":{"ha":1389,"x_min":25,"x_max":1272,"o":"m 149 668 q 163 749 156 693 q 171 833 169 806 l 76 833 l 76 1069 l 372 1069 q 336 668 365 836 l 149 668 m 493 746 q 500 833 500 801 l 404 833 l 404 1069 l 701 1069 q 693 867 699 954 q 675 668 688 781 l 483 668 l 493 746 m 1272 1083 l 1272 -229 l 1050 -229 l 1050 564 l 967 564 l 967 104 l 744 104 l 744 218 l 25 151 l 25 388 l 226 407 l 226 596 l 463 596 l 463 428 l 744 454 l 744 1083 l 967 1083 l 967 786 l 1050 786 l 1050 1083 l 1272 1083 z "},"꽥":{"ha":1389,"x_min":25,"x_max":1272,"o":"m 1272 -250 l 1036 -250 l 1036 -62 l 210 -62 l 210 174 l 1272 174 l 1272 -250 m 532 622 l 532 518 l 771 540 l 771 1083 l 982 1083 l 982 786 l 1061 786 l 1061 1083 l 1272 1083 l 1272 231 l 1061 231 l 1061 564 l 982 564 l 982 231 l 771 231 l 771 304 l 25 235 l 25 471 l 296 496 l 296 622 l 532 622 m 149 668 q 163 749 156 693 q 171 833 169 806 l 76 833 l 76 1069 l 372 1069 q 336 668 365 836 l 149 668 m 493 746 q 500 833 500 801 l 404 833 l 404 1069 l 701 1069 q 693 867 699 954 q 675 668 688 781 l 483 668 l 493 746 z "},"꽨":{"ha":1389,"x_min":25,"x_max":1342,"o":"m 265 160 l 501 160 l 501 -14 l 1342 -14 l 1342 -250 l 265 -250 l 265 160 m 532 633 l 532 518 l 771 540 l 771 1083 l 982 1083 l 982 786 l 1061 786 l 1061 1083 l 1272 1083 l 1272 161 l 1061 161 l 1061 564 l 982 564 l 982 161 l 771 161 l 771 304 l 25 235 l 25 471 l 296 496 l 296 633 l 532 633 m 149 668 q 163 749 156 693 q 171 833 169 806 l 76 833 l 76 1069 l 372 1069 q 336 668 365 836 l 149 668 m 493 746 q 500 833 500 801 l 404 833 l 404 1069 l 701 1069 q 693 867 699 954 q 675 668 688 781 l 483 668 l 493 746 z "},"꽸":{"ha":1389,"x_min":25,"x_max":1314,"o":"m 1314 -269 l 1086 -200 l 1086 -97 q 965 -219 1044 -171 q 783 -267 886 -267 q 518 -189 656 -267 q 389 -240 461 -229 q 207 -250 317 -250 l 158 -250 l 158 -14 l 207 -14 q 342 -8 304 -14 q 393 19 381 -3 q 406 47 403 36 q 409 96 408 58 q 410 194 410 133 l 646 194 l 646 107 q 640 13 646 40 q 782 -31 717 -31 q 843 -17 818 -31 q 879 19 868 -3 q 892 47 889 36 q 895 96 894 58 q 896 194 896 133 l 1132 194 l 1132 118 q 1129 33 1132 58 l 1314 -22 l 1314 -269 m 532 633 l 532 518 l 771 540 l 771 1083 l 982 1083 l 982 786 l 1061 786 l 1061 1083 l 1272 1083 l 1272 256 l 1061 256 l 1061 564 l 982 564 l 982 256 l 771 256 l 771 304 l 25 235 l 25 471 l 296 496 l 296 633 l 532 633 m 149 668 q 163 749 156 693 q 171 833 169 806 l 76 833 l 76 1069 l 372 1069 q 336 668 365 836 l 149 668 m 493 746 q 500 833 500 801 l 404 833 l 404 1069 l 701 1069 q 693 867 699 954 q 675 668 688 781 l 483 668 l 493 746 z "},"꽹":{"ha":1389,"x_min":25,"x_max":1272,"o":"m 767 -42 q 947 -40 881 -42 q 1024 -35 1013 -39 q 1036 -17 1036 -31 q 1024 1 1036 -3 q 947 7 1013 6 q 767 8 881 8 q 584 7 651 8 q 504 1 517 6 q 492 -17 492 -3 q 504 -35 492 -31 q 584 -40 517 -39 q 767 -42 651 -42 m 767 -264 q 443 -232 556 -264 q 293 -147 331 -200 q 256 -17 256 -94 q 293 115 256 61 q 443 199 331 168 q 767 231 556 231 q 1088 199 976 231 q 1235 114 1199 167 q 1272 -17 1272 61 q 1235 -147 1272 -93 q 1088 -232 1199 -200 q 767 -264 976 -264 m 532 636 l 532 560 l 744 579 l 744 1083 l 967 1083 l 967 786 l 1050 786 l 1050 1083 l 1272 1083 l 1272 249 l 1050 249 l 1050 564 l 967 564 l 967 279 l 744 279 l 744 343 l 25 276 l 25 513 l 296 538 l 296 636 l 532 636 m 149 668 q 163 749 156 693 q 171 833 169 806 l 76 833 l 76 1069 l 372 1069 q 336 668 365 836 l 149 668 m 493 746 q 500 833 500 801 l 404 833 l 404 1069 l 701 1069 q 693 867 699 954 q 675 668 688 781 l 483 668 l 493 746 z "},"꾀":{"ha":1389,"x_min":25,"x_max":1217,"o":"m 179 501 q 206 785 189 529 l 208 833 l 90 833 l 90 1069 l 458 1069 q 426 592 446 749 l 560 592 l 560 389 l 915 411 l 915 175 l 25 119 l 25 356 l 324 374 l 324 501 l 179 501 m 596 501 q 610 667 604 561 q 618 833 617 772 l 497 833 l 497 1069 l 868 1069 l 865 985 q 853 699 858 811 q 836 501 847 586 l 596 501 m 1217 1083 l 1217 -228 l 981 -228 l 981 1083 l 1217 1083 z "},"꾄":{"ha":1389,"x_min":25,"x_max":1286,"o":"m 210 215 l 446 215 l 446 -14 l 1286 -14 l 1286 -250 l 210 -250 l 210 215 m 1217 1083 l 1217 76 l 981 76 l 981 1083 l 1217 1083 m 25 272 l 25 508 l 324 526 l 324 661 l 560 661 l 560 542 l 915 564 l 915 328 l 25 272 m 193 696 q 210 765 201 722 q 222 833 219 808 l 104 833 l 104 1069 l 472 1069 q 426 696 464 854 l 193 696 m 617 693 q 632 833 631 793 l 511 833 l 511 1069 l 882 1069 q 870 840 876 935 q 850 640 864 746 l 610 640 l 617 693 z "},"꾈":{"ha":1389,"x_min":25,"x_max":1258,"o":"m 981 125 l 981 160 l 154 160 l 154 347 l 1217 347 l 1217 -28 l 390 -28 l 390 -62 l 1258 -62 l 1258 -250 l 154 -250 l 154 125 l 981 125 m 1217 1083 l 1217 404 l 981 404 l 981 1083 l 1217 1083 m 25 369 l 25 578 l 324 596 l 324 689 l 560 689 l 560 611 l 915 633 l 915 425 l 25 369 m 201 724 q 222 833 217 767 l 104 833 l 104 1069 l 472 1069 q 458 890 468 969 q 426 724 447 810 l 201 724 m 610 682 q 632 833 629 782 l 511 833 l 511 1069 l 882 1069 q 872 872 878 951 q 850 682 865 793 l 610 682 z "},"꾐":{"ha":1389,"x_min":25,"x_max":1217,"o":"m 1217 211 l 1217 -250 l 154 -250 l 154 211 l 1217 211 m 981 -50 l 981 11 l 390 11 l 390 -50 l 981 -50 m 1217 1083 l 1217 299 l 981 299 l 981 1083 l 1217 1083 m 25 272 l 25 508 l 324 526 l 324 661 l 560 661 l 560 542 l 915 564 l 915 328 l 25 272 m 193 696 q 210 765 201 722 q 222 833 219 808 l 104 833 l 104 1069 l 472 1069 q 426 696 464 854 l 193 696 m 617 693 q 632 833 631 793 l 511 833 l 511 1069 l 882 1069 q 870 840 876 935 q 850 640 864 746 l 610 640 l 617 693 z "},"꾑":{"ha":1389,"x_min":25,"x_max":1217,"o":"m 1217 236 l 1217 -250 l 154 -250 l 154 250 l 390 250 l 390 167 l 981 167 l 981 236 l 1217 236 m 981 -56 l 981 -7 l 390 -7 l 390 -56 l 981 -56 m 1217 1083 l 1217 299 l 981 299 l 981 1083 l 1217 1083 m 25 272 l 25 508 l 324 526 l 324 661 l 560 661 l 560 542 l 915 564 l 915 328 l 25 272 m 193 696 q 210 765 201 722 q 222 833 219 808 l 104 833 l 104 1069 l 472 1069 q 426 696 464 854 l 193 696 m 617 693 q 632 833 631 793 l 511 833 l 511 1069 l 882 1069 q 870 840 876 935 q 850 640 864 746 l 610 640 l 617 693 z "},"꾕":{"ha":1389,"x_min":25,"x_max":1217,"o":"m 711 -42 q 891 -40 825 -42 q 969 -35 957 -39 q 981 -17 981 -31 q 969 1 981 -3 q 891 7 957 6 q 711 8 825 8 q 528 7 596 8 q 449 1 461 6 q 436 -17 436 -3 q 449 -35 436 -31 q 528 -40 461 -39 q 711 -42 596 -42 m 711 -264 q 388 -232 500 -264 q 238 -147 275 -200 q 200 -17 200 -94 q 238 115 200 61 q 388 199 275 168 q 711 231 500 231 q 1032 199 921 231 q 1180 114 1143 167 q 1217 -17 1217 61 q 1180 -147 1217 -93 q 1032 -232 1143 -200 q 711 -264 921 -264 m 1217 1083 l 1217 299 l 981 299 l 981 1083 l 1217 1083 m 25 272 l 25 508 l 324 526 l 324 661 l 560 661 l 560 542 l 915 564 l 915 328 l 25 272 m 193 696 q 210 765 201 722 q 222 833 219 808 l 104 833 l 104 1069 l 472 1069 q 426 696 464 854 l 193 696 m 617 693 q 632 833 631 793 l 511 833 l 511 1069 l 882 1069 q 870 840 876 935 q 850 640 864 746 l 610 640 l 617 693 z "},"꾜":{"ha":1389,"x_min":63,"x_max":1326,"o":"m 536 590 l 300 590 l 300 836 l 154 836 l 154 1069 l 536 1069 l 536 590 m 1217 590 l 981 590 l 981 836 l 585 836 l 585 1069 l 1217 1069 l 1217 590 m 1326 118 l 63 118 l 63 340 l 347 340 l 347 543 l 569 543 l 569 340 l 819 340 l 819 543 l 1042 543 l 1042 340 l 1326 340 l 1326 118 z "},"꾸":{"ha":1389,"x_min":63,"x_max":1326,"o":"m 536 590 l 300 590 l 300 836 l 154 836 l 154 1069 l 536 1069 l 536 590 m 1217 590 l 981 590 l 981 836 l 585 836 l 585 1069 l 1217 1069 l 1217 590 m 1326 261 l 806 261 l 806 -110 l 583 -110 l 583 261 l 63 261 l 63 483 l 1326 483 l 1326 261 z "},"꾹":{"ha":1389,"x_min":63,"x_max":1326,"o":"m 1217 -250 l 981 -250 l 981 -7 l 154 -7 l 154 229 l 583 229 l 583 299 l 63 299 l 63 521 l 1326 521 l 1326 299 l 806 299 l 806 229 l 1217 229 l 1217 -250 m 536 590 l 300 590 l 300 836 l 154 836 l 154 1069 l 536 1069 l 536 590 m 1217 590 l 981 590 l 981 836 l 585 836 l 585 1069 l 1217 1069 l 1217 590 z "},"꾼":{"ha":1389,"x_min":63,"x_max":1326,"o":"m 154 213 l 390 213 l 390 -14 l 1217 -14 l 1217 -250 l 154 -250 l 154 213 m 536 590 l 300 590 l 300 836 l 154 836 l 154 1069 l 536 1069 l 536 590 m 1217 590 l 981 590 l 981 836 l 585 836 l 585 1069 l 1217 1069 l 1217 590 m 1326 299 l 847 299 l 847 119 l 625 119 l 625 299 l 63 299 l 63 521 l 1326 521 l 1326 299 z "},"꿀":{"ha":1389,"x_min":63,"x_max":1326,"o":"m 981 153 l 981 188 l 154 188 l 154 403 l 583 403 l 583 451 l 63 451 l 63 674 l 300 674 l 300 836 l 154 836 l 154 1069 l 536 1069 l 536 674 l 981 674 l 981 836 l 585 836 l 585 1069 l 1217 1069 l 1217 674 l 1326 674 l 1326 451 l 806 451 l 806 403 l 1217 403 l 1217 0 l 390 0 l 390 -35 l 1258 -35 l 1258 -250 l 154 -250 l 154 153 l 981 153 z "},"꿇":{"ha":1389,"x_min":63,"x_max":1326,"o":"m 286 139 l 286 174 l 154 174 l 154 375 l 522 375 l 522 -14 l 376 -14 l 376 -49 l 606 -49 l 606 -250 l 154 -250 l 154 139 l 286 139 m 1294 160 l 1207 160 q 1238 18 1238 94 q 1200 -139 1238 -71 q 1092 -244 1163 -207 q 928 -282 1022 -282 q 753 -240 824 -282 q 649 -131 682 -199 q 615 18 615 -62 q 647 160 615 97 l 557 160 l 557 354 l 808 354 l 808 417 l 1044 417 l 1044 354 l 1294 354 l 1294 160 m 928 -60 q 997 -42 978 -60 q 1015 18 1015 -25 q 997 75 1015 58 q 928 92 978 92 q 857 76 876 92 q 838 18 838 60 q 857 -42 838 -25 q 928 -60 876 -60 m 536 688 l 981 688 l 981 836 l 585 836 l 585 1069 l 1217 1069 l 1217 688 l 1326 688 l 1326 465 l 750 465 l 750 392 l 528 392 l 528 465 l 63 465 l 63 688 l 300 688 l 300 836 l 154 836 l 154 1069 l 536 1069 l 536 688 z "},"꿈":{"ha":1389,"x_min":63,"x_max":1326,"o":"m 583 243 l 583 313 l 63 313 l 63 535 l 1326 535 l 1326 313 l 806 313 l 806 243 l 1217 243 l 1217 -250 l 154 -250 l 154 243 l 583 243 m 981 -42 l 981 35 l 390 35 l 390 -42 l 981 -42 m 536 590 l 300 590 l 300 836 l 154 836 l 154 1069 l 536 1069 l 536 590 m 1217 590 l 981 590 l 981 836 l 585 836 l 585 1069 l 1217 1069 l 1217 590 z "},"꿉":{"ha":1389,"x_min":63,"x_max":1326,"o":"m 1217 257 l 1217 -250 l 154 -250 l 154 271 l 390 271 l 390 188 l 981 188 l 981 257 l 1217 257 m 981 -42 l 981 7 l 390 7 l 390 -42 l 981 -42 m 536 590 l 300 590 l 300 836 l 154 836 l 154 1069 l 536 1069 l 536 590 m 1217 590 l 981 590 l 981 836 l 585 836 l 585 1069 l 1217 1069 l 1217 590 m 1326 313 l 806 313 l 806 226 l 583 226 l 583 313 l 63 313 l 63 535 l 1326 535 l 1326 313 z "},"꿋":{"ha":1389,"x_min":63,"x_max":1326,"o":"m 536 590 l 300 590 l 300 836 l 154 836 l 154 1069 l 536 1069 l 536 590 m 1217 590 l 981 590 l 981 836 l 585 836 l 585 1069 l 1217 1069 l 1217 590 m 1326 299 l 806 299 l 806 199 l 583 199 l 583 299 l 63 299 l 63 521 l 1326 521 l 1326 299 m 207 -17 q 386 -4 294 -17 q 531 33 478 8 q 583 85 563 47 q 604 153 604 122 l 840 153 q 815 24 840 89 l 1258 -25 l 1258 -264 l 781 -211 l 781 -44 q 631 -181 722 -137 q 432 -235 550 -218 q 207 -253 314 -253 l 117 -253 l 117 -17 l 207 -17 z "},"꿍":{"ha":1389,"x_min":63,"x_max":1326,"o":"m 697 -56 q 892 -52 833 -56 q 974 -37 951 -49 q 997 0 997 -26 q 974 40 997 28 q 894 55 951 51 q 697 58 836 58 q 497 55 556 58 q 415 40 439 51 q 392 0 392 28 q 415 -37 392 -26 q 499 -52 439 -49 q 697 -56 558 -56 m 697 -278 q 354 -240 474 -278 q 195 -141 235 -201 q 156 0 156 -81 q 188 132 156 75 q 313 228 219 189 q 583 278 407 268 l 583 326 l 63 326 l 63 549 l 1326 549 l 1326 326 l 806 326 l 806 278 q 1075 228 981 268 q 1201 133 1169 189 q 1233 0 1233 76 q 1194 -141 1233 -81 q 1036 -240 1154 -201 q 697 -278 918 -278 m 536 590 l 300 590 l 300 836 l 154 836 l 154 1069 l 536 1069 l 536 590 m 1217 590 l 981 590 l 981 836 l 585 836 l 585 1069 l 1217 1069 l 1217 590 z "},"꿎":{"ha":1389,"x_min":63,"x_max":1326,"o":"m 249 -14 q 395 1 325 -14 q 518 49 465 17 l 524 53 l 200 53 l 200 261 l 1217 261 l 1217 53 l 801 53 l 782 8 l 1244 -81 l 1244 -292 l 739 -194 l 739 -61 q 643 -151 699 -117 q 456 -227 558 -204 q 249 -250 353 -250 l 117 -250 l 117 -14 l 249 -14 m 536 646 l 981 646 l 981 836 l 585 836 l 585 1069 l 1217 1069 l 1217 646 l 1326 646 l 1326 424 l 806 424 l 806 310 l 583 310 l 583 424 l 63 424 l 63 646 l 300 646 l 300 836 l 154 836 l 154 1069 l 536 1069 l 536 646 z "},"꿏":{"ha":1389,"x_min":63,"x_max":1326,"o":"m 249 -35 l 304 -35 q 434 -28 383 -35 q 522 1 485 -21 q 543 25 532 7 l 158 25 l 158 233 l 606 233 q 611 296 611 265 l 833 296 q 831 233 833 278 l 1217 233 l 1217 25 l 785 25 l 775 -3 l 1217 -93 l 1217 -307 l 739 -210 l 739 -76 q 639 -187 697 -151 q 491 -244 569 -231 q 317 -257 413 -257 l 249 -257 l 117 -257 l 117 -35 l 249 -35 m 536 590 l 300 590 l 300 836 l 154 836 l 154 1069 l 536 1069 l 536 590 m 1217 590 l 981 590 l 981 836 l 585 836 l 585 1069 l 1217 1069 l 1217 590 m 1326 326 l 63 326 l 63 549 l 1326 549 l 1326 326 z "},"꿔":{"ha":1389,"x_min":25,"x_max":1217,"o":"m 193 613 q 222 833 207 651 l 104 833 l 104 1069 l 472 1069 q 456 806 467 938 q 426 599 444 674 l 193 613 m 610 613 q 632 833 631 763 l 511 833 l 511 1069 l 882 1069 q 870 804 876 907 q 850 599 864 701 l 610 613 m 1217 1083 l 1217 -228 l 981 -228 l 981 224 l 863 224 l 863 460 l 981 460 l 981 1083 l 1217 1083 m 554 -60 l 554 215 l 25 175 l 25 411 l 790 467 l 790 -60 l 554 -60 z "},"꿘":{"ha":1389,"x_min":25,"x_max":1286,"o":"m 210 160 l 446 160 l 446 -14 l 1286 -14 l 1286 -250 l 210 -250 l 210 160 m 1217 1083 l 1217 76 l 981 76 l 981 293 l 863 293 l 863 529 l 981 529 l 981 1083 l 1217 1083 m 193 640 q 210 729 201 664 q 222 833 218 794 l 104 833 l 104 1069 l 472 1069 q 426 640 461 788 l 193 640 m 617 693 q 632 833 631 793 l 511 833 l 511 1069 l 882 1069 q 870 840 876 935 q 850 640 864 746 l 610 640 l 617 693 m 554 149 l 554 299 l 25 258 l 25 494 l 790 550 l 790 149 l 554 149 z "},"꿜":{"ha":1389,"x_min":25,"x_max":1258,"o":"m 981 125 l 981 160 l 154 160 l 154 347 l 1217 347 l 1217 -28 l 390 -28 l 390 -62 l 1258 -62 l 1258 -250 l 154 -250 l 154 125 l 981 125 m 1217 1083 l 1217 404 l 981 404 l 981 446 l 863 446 l 863 682 l 981 682 l 981 1083 l 1217 1083 m 554 397 l 554 467 l 25 432 l 25 635 l 790 683 l 790 397 l 554 397 m 193 710 q 212 774 203 738 q 222 833 221 810 l 104 833 l 104 1069 l 472 1069 q 426 710 464 871 l 193 710 m 610 724 q 632 833 631 807 l 511 833 l 511 1069 l 882 1069 q 872 908 878 965 q 850 724 867 850 l 610 724 z "},"꿨":{"ha":1389,"x_min":25,"x_max":1286,"o":"m 1286 -269 l 1058 -200 l 1058 -97 q 938 -219 1017 -171 q 756 -267 858 -267 q 490 -189 628 -267 q 361 -240 433 -229 q 179 -250 289 -250 l 131 -250 l 131 -14 l 179 -14 q 315 -8 276 -14 q 365 19 353 -3 q 378 47 375 36 q 381 96 381 58 q 382 194 382 133 l 618 194 l 618 107 q 613 13 618 40 q 754 -31 689 -31 q 815 -17 790 -31 q 851 19 840 -3 q 864 47 861 36 q 867 96 867 58 q 868 194 868 133 l 1104 194 l 1104 118 q 1101 33 1104 58 l 1286 -22 l 1286 -269 m 1217 1083 l 1217 269 l 981 269 l 981 335 l 863 335 l 863 571 l 981 571 l 981 1083 l 1217 1083 m 193 640 q 210 729 201 664 q 222 833 218 794 l 104 833 l 104 1069 l 472 1069 q 426 640 461 788 l 193 640 m 617 693 q 632 833 631 793 l 511 833 l 511 1069 l 882 1069 q 870 840 876 935 q 850 640 864 746 l 610 640 l 617 693 m 554 246 l 554 326 l 25 286 l 25 522 l 790 578 l 790 246 l 554 246 z "},"꿩":{"ha":1389,"x_min":25,"x_max":1217,"o":"m 711 -42 q 891 -40 825 -42 q 969 -35 957 -39 q 981 -17 981 -31 q 969 1 981 -3 q 891 7 957 6 q 711 8 825 8 q 528 7 596 8 q 449 1 461 6 q 436 -17 436 -3 q 449 -35 436 -31 q 528 -40 461 -39 q 711 -42 596 -42 m 711 -264 q 388 -232 500 -264 q 238 -147 275 -200 q 200 -17 200 -94 q 238 115 200 61 q 388 199 275 168 q 711 231 500 231 q 1032 199 921 231 q 1180 114 1143 167 q 1217 -17 1217 61 q 1180 -147 1217 -93 q 1032 -232 1143 -200 q 711 -264 921 -264 m 1217 1083 l 1217 269 l 981 269 l 981 335 l 863 335 l 863 571 l 981 571 l 981 1083 l 1217 1083 m 193 640 q 210 729 201 664 q 222 833 218 794 l 104 833 l 104 1069 l 472 1069 q 426 640 461 788 l 193 640 m 617 693 q 632 833 631 793 l 511 833 l 511 1069 l 882 1069 q 870 840 876 935 q 850 640 864 746 l 610 640 l 617 693 m 554 281 l 554 353 l 25 317 l 25 528 l 790 578 l 790 281 l 554 281 z "},"꿰":{"ha":1389,"x_min":25,"x_max":1272,"o":"m 149 668 q 163 749 156 693 q 171 833 169 806 l 76 833 l 76 1069 l 372 1069 q 336 668 365 836 l 149 668 m 493 746 q 500 833 500 801 l 404 833 l 404 1069 l 701 1069 q 693 867 699 954 q 675 668 688 781 l 483 668 l 493 746 m 360 163 l 360 308 l 25 272 l 25 508 l 596 564 l 596 163 l 360 163 m 1272 1083 l 1272 -229 l 1050 -229 l 1050 1083 l 1272 1083 m 967 1083 l 967 35 l 744 35 l 744 304 l 654 304 l 654 540 l 744 540 l 744 1083 l 967 1083 z "},"꿱":{"ha":1389,"x_min":25,"x_max":1272,"o":"m 1272 -250 l 1036 -250 l 1036 -62 l 210 -62 l 210 174 l 1272 174 l 1272 -250 m 1272 1083 l 1272 256 l 1050 256 l 1050 1083 l 1272 1083 m 967 1083 l 967 256 l 744 256 l 744 304 l 654 304 l 654 540 l 744 540 l 744 1083 l 967 1083 m 360 246 l 360 322 l 25 286 l 25 522 l 596 578 l 596 246 l 360 246 m 139 629 q 153 717 146 656 q 161 807 160 778 l 65 807 l 65 1061 l 367 1061 q 329 629 360 822 l 139 629 m 489 714 q 496 807 496 772 l 399 807 l 399 1061 l 701 1061 q 692 843 699 936 q 674 629 686 750 l 479 629 l 489 714 z "},"꿴":{"ha":1389,"x_min":25,"x_max":1342,"o":"m 265 160 l 501 160 l 501 -14 l 1342 -14 l 1342 -250 l 265 -250 l 265 160 m 1272 1083 l 1272 161 l 1050 161 l 1050 1083 l 1272 1083 m 967 1083 l 967 161 l 744 161 l 744 304 l 654 304 l 654 540 l 744 540 l 744 1083 l 967 1083 m 360 246 l 360 322 l 25 286 l 25 522 l 596 578 l 596 246 l 360 246 m 139 629 q 153 717 146 656 q 161 807 160 778 l 65 807 l 65 1061 l 367 1061 q 329 629 360 822 l 139 629 m 489 714 q 496 807 496 772 l 399 807 l 399 1061 l 701 1061 q 692 843 699 936 q 674 629 686 750 l 479 629 l 489 714 z "},"꿸":{"ha":1389,"x_min":25,"x_max":1314,"o":"m 1036 100 l 1036 132 l 210 132 l 210 307 l 1272 307 l 1272 -43 l 446 -43 l 446 -75 l 1314 -75 l 1314 -250 l 210 -250 l 210 100 l 1036 100 m 1272 1083 l 1272 351 l 1050 351 l 1050 1083 l 1272 1083 m 967 1083 l 967 351 l 744 351 l 744 401 l 654 401 l 654 621 l 744 621 l 744 1083 l 967 1083 m 360 349 l 360 421 l 25 388 l 25 582 l 596 633 l 596 349 l 360 349 m 139 678 q 153 756 146 701 q 161 836 160 810 l 65 836 l 65 1061 l 367 1061 q 329 678 360 849 l 139 678 m 489 753 q 496 836 496 806 l 399 836 l 399 1061 l 701 1061 q 692 867 699 950 q 674 678 686 785 l 479 678 l 489 753 z "},"뀀":{"ha":1389,"x_min":25,"x_max":1272,"o":"m 1272 211 l 1272 -250 l 210 -250 l 210 211 l 1272 211 m 1036 -50 l 1036 11 l 446 11 l 446 -50 l 1036 -50 m 1272 1083 l 1272 256 l 1050 256 l 1050 1083 l 1272 1083 m 967 1083 l 967 256 l 744 256 l 744 304 l 654 304 l 654 540 l 744 540 l 744 1083 l 967 1083 m 360 246 l 360 322 l 25 286 l 25 522 l 596 578 l 596 246 l 360 246 m 139 629 q 153 717 146 656 q 161 807 160 778 l 65 807 l 65 1061 l 367 1061 q 329 629 360 822 l 139 629 m 489 714 q 496 807 496 772 l 399 807 l 399 1061 l 701 1061 q 692 843 699 936 q 674 629 686 750 l 479 629 l 489 714 z "},"뀁":{"ha":1389,"x_min":25,"x_max":1272,"o":"m 1272 206 l 1272 -250 l 210 -250 l 210 218 l 446 218 l 446 140 l 1036 140 l 1036 206 l 1272 206 m 1036 -68 l 1036 -22 l 446 -22 l 446 -68 l 1036 -68 m 1272 1083 l 1272 256 l 1050 256 l 1050 1083 l 1272 1083 m 967 1083 l 967 256 l 744 256 l 744 304 l 654 304 l 654 540 l 744 540 l 744 1083 l 967 1083 m 360 246 l 360 322 l 25 286 l 25 522 l 596 578 l 596 246 l 360 246 m 139 629 q 153 717 146 656 q 161 807 160 778 l 65 807 l 65 1061 l 367 1061 q 329 629 360 822 l 139 629 m 489 714 q 496 807 496 772 l 399 807 l 399 1061 l 701 1061 q 692 843 699 936 q 674 629 686 750 l 479 629 l 489 714 z "},"뀄":{"ha":1389,"x_min":25,"x_max":1314,"o":"m 1314 -269 l 1086 -200 l 1086 -97 q 965 -219 1044 -171 q 783 -267 886 -267 q 518 -189 656 -267 q 389 -240 461 -229 q 207 -250 317 -250 l 158 -250 l 158 -14 l 207 -14 q 342 -8 304 -14 q 393 19 381 -3 q 406 47 403 36 q 409 96 408 58 q 410 194 410 133 l 646 194 l 646 107 q 640 13 646 40 q 782 -31 717 -31 q 843 -17 818 -31 q 879 19 868 -3 q 892 47 889 36 q 895 96 894 58 q 896 194 896 133 l 1132 194 l 1132 118 q 1129 33 1132 58 l 1314 -22 l 1314 -269 m 1272 1083 l 1272 256 l 1050 256 l 1050 1083 l 1272 1083 m 967 1083 l 967 256 l 744 256 l 744 304 l 654 304 l 654 540 l 744 540 l 744 1083 l 967 1083 m 360 246 l 360 322 l 25 286 l 25 522 l 596 578 l 596 246 l 360 246 m 139 629 q 153 717 146 656 q 161 807 160 778 l 65 807 l 65 1061 l 367 1061 q 329 629 360 822 l 139 629 m 489 714 q 496 807 496 772 l 399 807 l 399 1061 l 701 1061 q 692 843 699 936 q 674 629 686 750 l 479 629 l 489 714 z "},"뀌":{"ha":1389,"x_min":25,"x_max":1217,"o":"m 193 613 q 222 833 207 651 l 104 833 l 104 1069 l 472 1069 q 456 806 467 938 q 426 599 444 674 l 193 613 m 610 613 q 632 833 631 763 l 511 833 l 511 1069 l 882 1069 q 870 804 876 907 q 850 599 864 701 l 610 613 m 1217 1083 l 1217 -228 l 981 -228 l 981 1083 l 1217 1083 m 624 -60 l 624 215 l 25 175 l 25 411 l 860 467 l 860 -60 l 624 -60 z "},"뀐":{"ha":1389,"x_min":25,"x_max":1286,"o":"m 210 160 l 446 160 l 446 -14 l 1286 -14 l 1286 -250 l 210 -250 l 210 160 m 193 640 q 210 729 201 664 q 222 833 218 794 l 104 833 l 104 1069 l 472 1069 q 426 640 461 788 l 193 640 m 617 693 q 632 833 631 793 l 511 833 l 511 1069 l 882 1069 q 870 840 876 935 q 850 640 864 746 l 610 640 l 617 693 m 624 135 l 624 285 l 25 244 l 25 481 l 860 536 l 860 135 l 624 135 z "},"뀔":{"ha":1389,"x_min":25,"x_max":1258,"o":"m 981 125 l 981 160 l 154 160 l 154 347 l 1217 347 l 1217 -28 l 390 -28 l 390 -62 l 1258 -62 l 1258 -250 l 154 -250 l 154 125 l 981 125 m 624 401 l 624 471 l 25 436 l 25 639 l 860 688 l 860 401 l 624 401 m 193 710 q 212 774 203 738 q 222 833 221 810 l 104 833 l 104 1069 l 472 1069 q 426 710 464 871 l 193 710 m 610 724 q 632 833 631 807 l 511 833 l 511 1069 l 882 1069 q 872 908 878 965 q 850 724 867 850 l 610 724 z "},"뀜":{"ha":1389,"x_min":25,"x_max":1217,"o":"m 1217 211 l 1217 -250 l 154 -250 l 154 211 l 1217 211 m 981 -50 l 981 11 l 390 11 l 390 -50 l 981 -50 m 1217 1083 l 1217 269 l 981 269 l 981 1083 l 1217 1083 m 193 640 q 210 729 201 664 q 222 833 218 794 l 104 833 l 104 1069 l 472 1069 q 426 640 461 788 l 193 640 m 617 693 q 632 833 631 793 l 511 833 l 511 1069 l 882 1069 q 870 840 876 935 q 850 640 864 746 l 610 640 l 617 693 m 624 246 l 624 326 l 25 286 l 25 522 l 860 578 l 860 246 l 624 246 z "},"뀝":{"ha":1389,"x_min":25,"x_max":1217,"o":"m 1217 236 l 1217 -250 l 154 -250 l 154 250 l 390 250 l 390 167 l 981 167 l 981 236 l 1217 236 m 981 -56 l 981 -7 l 390 -7 l 390 -56 l 981 -56 m 1217 1083 l 1217 269 l 981 269 l 981 1083 l 1217 1083 m 193 640 q 210 729 201 664 q 222 833 218 794 l 104 833 l 104 1069 l 472 1069 q 426 640 461 788 l 193 640 m 617 693 q 632 833 631 793 l 511 833 l 511 1069 l 882 1069 q 870 840 876 935 q 850 640 864 746 l 610 640 l 617 693 m 624 246 l 624 326 l 25 286 l 25 522 l 860 578 l 860 246 l 624 246 z "},"뀨":{"ha":1389,"x_min":63,"x_max":1326,"o":"m 536 590 l 300 590 l 300 836 l 154 836 l 154 1069 l 536 1069 l 536 590 m 1217 590 l 981 590 l 981 836 l 585 836 l 585 1069 l 1217 1069 l 1217 590 m 1326 261 l 1042 261 l 1042 -110 l 819 -110 l 819 261 l 569 261 l 569 -110 l 347 -110 l 347 261 l 63 261 l 63 483 l 1326 483 l 1326 261 z "},"뀰":{"ha":1389,"x_min":63,"x_max":1326,"o":"m 981 153 l 981 188 l 154 188 l 154 403 l 367 403 l 367 451 l 63 451 l 63 674 l 300 674 l 300 836 l 154 836 l 154 1069 l 536 1069 l 536 674 l 981 674 l 981 836 l 585 836 l 585 1069 l 1217 1069 l 1217 674 l 1326 674 l 1326 451 l 1019 451 l 1019 403 l 1217 403 l 1217 0 l 390 0 l 390 -35 l 1258 -35 l 1258 -250 l 154 -250 l 154 153 l 981 153 m 797 403 l 797 451 l 589 451 l 589 403 l 797 403 z "},"뀼":{"ha":1389,"x_min":63,"x_max":1326,"o":"m 1286 -268 l 1058 -207 l 1058 -106 q 933 -217 1015 -172 q 744 -262 850 -262 q 481 -193 615 -262 q 349 -239 424 -226 q 179 -251 275 -251 l 131 -251 l 131 -44 l 179 -44 q 306 -36 261 -44 q 365 -3 350 -28 q 379 35 376 14 q 382 101 382 57 l 382 200 l 618 200 l 618 106 q 608 -18 618 26 q 743 -54 682 -54 q 810 -40 782 -54 q 851 -3 838 -25 q 865 35 863 14 q 868 101 868 57 l 868 200 l 1104 200 l 1104 117 q 1097 -1 1104 42 l 1286 -51 l 1286 -268 m 536 590 l 300 590 l 300 836 l 154 836 l 154 1069 l 536 1069 l 536 590 m 1217 590 l 981 590 l 981 836 l 585 836 l 585 1069 l 1217 1069 l 1217 590 m 1326 317 l 1019 317 l 1019 243 l 797 243 l 797 317 l 589 317 l 589 243 l 367 243 l 367 317 l 63 317 l 63 539 l 1326 539 l 1326 317 z "},"끄":{"ha":1389,"x_min":63,"x_max":1326,"o":"m 536 590 l 300 590 l 300 836 l 154 836 l 154 1069 l 536 1069 l 536 590 m 1217 590 l 981 590 l 981 836 l 585 836 l 585 1069 l 1217 1069 l 1217 590 z "},"끅":{"ha":1389,"x_min":63,"x_max":1326,"o":"m 1217 -250 l 981 -250 l 981 -7 l 154 -7 l 154 229 l 1217 229 l 1217 -250 m 1326 299 l 63 299 l 63 521 l 1326 521 l 1326 299 m 536 590 l 300 590 l 300 836 l 154 836 l 154 1069 l 536 1069 l 536 590 m 1217 590 l 981 590 l 981 836 l 585 836 l 585 1069 l 1217 1069 l 1217 590 z "},"끈":{"ha":1389,"x_min":63,"x_max":1326,"o":"m 154 213 l 390 213 l 390 -14 l 1217 -14 l 1217 -250 l 154 -250 l 154 213 m 536 590 l 300 590 l 300 836 l 154 836 l 154 1069 l 536 1069 l 536 590 m 1217 590 l 981 590 l 981 836 l 585 836 l 585 1069 l 1217 1069 l 1217 590 m 1326 299 l 63 299 l 63 521 l 1326 521 l 1326 299 z "},"끊":{"ha":1389,"x_min":63,"x_max":1326,"o":"m 126 229 l 363 229 l 363 -28 l 628 -28 l 628 -250 l 126 -250 l 126 229 m 1217 35 l 1178 35 q 1186 -43 1186 -1 q 1120 -228 1186 -160 q 928 -296 1054 -296 q 733 -228 800 -296 q 667 -43 667 -160 q 676 35 667 0 l 440 35 l 440 229 l 811 229 l 811 278 l 1047 278 l 1047 229 l 1217 229 l 1217 35 m 928 -115 q 990 -101 975 -115 q 1006 -43 1006 -86 q 990 13 1006 -1 q 928 26 975 26 q 863 13 879 26 q 847 -43 847 -1 q 863 -101 847 -86 q 928 -115 878 -115 m 536 590 l 300 590 l 300 836 l 154 836 l 154 1069 l 536 1069 l 536 590 m 1217 590 l 981 590 l 981 836 l 585 836 l 585 1069 l 1217 1069 l 1217 590 m 1326 326 l 63 326 l 63 549 l 1326 549 l 1326 326 z "},"끌":{"ha":1389,"x_min":63,"x_max":1326,"o":"m 981 153 l 981 188 l 154 188 l 154 403 l 1217 403 l 1217 0 l 390 0 l 390 -35 l 1258 -35 l 1258 -250 l 154 -250 l 154 153 l 981 153 m 536 674 l 981 674 l 981 836 l 585 836 l 585 1069 l 1217 1069 l 1217 674 l 1326 674 l 1326 451 l 63 451 l 63 674 l 300 674 l 300 836 l 154 836 l 154 1069 l 536 1069 l 536 674 z "},"끎":{"ha":1389,"x_min":63,"x_max":1326,"o":"m 154 133 l 411 133 l 411 167 l 154 167 l 154 365 l 647 365 l 647 -18 l 390 -18 l 390 -53 l 696 -53 l 696 365 l 1217 365 l 1217 -31 l 1244 -31 l 1244 -250 l 154 -250 l 154 133 m 994 -31 l 994 146 l 918 146 l 918 -31 l 994 -31 m 536 674 l 981 674 l 981 836 l 585 836 l 585 1069 l 1217 1069 l 1217 674 l 1326 674 l 1326 451 l 63 451 l 63 674 l 300 674 l 300 836 l 154 836 l 154 1069 l 536 1069 l 536 674 z "},"끓":{"ha":1389,"x_min":63,"x_max":1326,"o":"m 286 139 l 286 174 l 154 174 l 154 375 l 522 375 l 522 -14 l 376 -14 l 376 -49 l 606 -49 l 606 -250 l 154 -250 l 154 139 l 286 139 m 1294 160 l 1207 160 q 1238 18 1238 94 q 1200 -139 1238 -71 q 1092 -244 1163 -207 q 928 -282 1022 -282 q 753 -240 824 -282 q 649 -131 682 -199 q 615 18 615 -62 q 647 160 615 97 l 557 160 l 557 354 l 808 354 l 808 417 l 1044 417 l 1044 354 l 1294 354 l 1294 160 m 928 -60 q 997 -42 978 -60 q 1015 18 1015 -25 q 997 75 1015 58 q 928 92 978 92 q 857 76 876 92 q 838 18 838 60 q 857 -42 838 -25 q 928 -60 876 -60 m 536 674 l 981 674 l 981 836 l 585 836 l 585 1069 l 1217 1069 l 1217 674 l 1326 674 l 1326 451 l 63 451 l 63 674 l 300 674 l 300 836 l 154 836 l 154 1069 l 536 1069 l 536 674 z "},"끔":{"ha":1389,"x_min":63,"x_max":1326,"o":"m 1217 243 l 1217 -250 l 154 -250 l 154 243 l 1217 243 m 981 -42 l 981 35 l 390 35 l 390 -42 l 981 -42 m 536 590 l 300 590 l 300 836 l 154 836 l 154 1069 l 536 1069 l 536 590 m 1217 590 l 981 590 l 981 836 l 585 836 l 585 1069 l 1217 1069 l 1217 590 m 1326 313 l 63 313 l 63 535 l 1326 535 l 1326 313 z "},"끕":{"ha":1389,"x_min":63,"x_max":1326,"o":"m 1217 257 l 1217 -250 l 154 -250 l 154 271 l 390 271 l 390 188 l 981 188 l 981 257 l 1217 257 m 981 -42 l 981 7 l 390 7 l 390 -42 l 981 -42 m 536 590 l 300 590 l 300 836 l 154 836 l 154 1069 l 536 1069 l 536 590 m 1217 590 l 981 590 l 981 836 l 585 836 l 585 1069 l 1217 1069 l 1217 590 m 1326 313 l 63 313 l 63 535 l 1326 535 l 1326 313 z "},"끗":{"ha":1389,"x_min":63,"x_max":1326,"o":"m 207 -14 q 379 2 290 -14 q 518 49 468 18 q 579 133 554 71 q 604 247 604 194 l 840 247 q 797 42 840 149 l 1258 -25 l 1258 -264 l 781 -194 l 781 6 q 643 -151 726 -100 q 438 -226 560 -203 q 207 -250 315 -250 l 117 -250 l 117 -14 l 207 -14 m 536 590 l 300 590 l 300 836 l 154 836 l 154 1069 l 536 1069 l 536 590 m 1217 590 l 981 590 l 981 836 l 585 836 l 585 1069 l 1217 1069 l 1217 590 m 1326 299 l 63 299 l 63 521 l 1326 521 l 1326 299 z "},"끙":{"ha":1389,"x_min":63,"x_max":1326,"o":"m 697 -56 q 892 -52 833 -56 q 974 -37 951 -49 q 997 0 997 -26 q 974 40 997 28 q 894 55 951 51 q 697 58 836 58 q 497 55 556 58 q 415 40 439 51 q 392 0 392 28 q 415 -37 392 -26 q 499 -52 439 -49 q 697 -56 558 -56 m 697 -278 q 354 -240 474 -278 q 195 -141 235 -201 q 156 0 156 -81 q 195 144 156 83 q 354 242 235 204 q 697 281 474 281 q 1036 242 918 281 q 1194 144 1154 204 q 1233 0 1233 83 q 1194 -141 1233 -81 q 1036 -240 1154 -201 q 697 -278 918 -278 m 536 590 l 300 590 l 300 836 l 154 836 l 154 1069 l 536 1069 l 536 590 m 1217 590 l 981 590 l 981 836 l 585 836 l 585 1069 l 1217 1069 l 1217 590 m 1326 326 l 63 326 l 63 549 l 1326 549 l 1326 326 z "}}}
